SplineFontDB: 3.2
FontName: ClassWizXDisplayExtTiny
FullName: ClassWiz X Display Ext Tiny
FamilyName: ClassWiz X Display Ext Tiny
Weight: Regular
Copyright: Copyright (c) 2026, Hayden Wong (https://github.com/haydenwong7bm/),\nCopyright (c) 2014-2026, CASIO Computer Co., Ltd (https://www.casio.com/).
Version: 3.916
ItalicAngle: 0
UnderlinePosition: 0
UnderlineWidth: 0
Ascent: 80
Descent: 10
InvalidEm: 0
sfntRevision: 0x00013333
LayerCount: 2
Layer: 0 1 "Back" 1
Layer: 1 1 "Fore" 0
XUID: [1021 367 -1095228404 21408]
StyleMap: 0x0040
FSType: 0
OS2Version: 3
OS2_WeightWidthSlopeOnly: 0
OS2_UseTypoMetrics: 0
CreationTime: 1772717664
ModificationTime: 1782396898
PfmFamily: 81
TTFWeight: 400
TTFWidth: 5
LineGap: 0
VLineGap: 0
Panose: 0 0 0 0 0 0 0 0 0 0
OS2TypoAscent: 80
OS2TypoAOffset: 0
OS2TypoDescent: -10
OS2TypoDOffset: 0
OS2TypoLinegap: 10
OS2WinAscent: 90
OS2WinAOffset: 0
OS2WinDescent: 20
OS2WinDOffset: 0
HheadAscent: 100
HheadAOffset: 0
HheadDescent: -10
HheadDOffset: 0
OS2SubXSize: 60
OS2SubYSize: 70
OS2SubXOff: 0
OS2SubYOff: 5
OS2SupXSize: 60
OS2SupYSize: 70
OS2SupXOff: 0
OS2SupYOff: 15
OS2StrikeYSize: -10
OS2StrikeYPos: 54
OS2CapHeight: 90
OS2XHeight: 70
OS2Vendor: 'NONE'
OS2CodePages: 00000001.00000000
OS2UnicodeRanges: a0000033.100028e9.02000010.00000000
DEI: 91125
ShortTable: maxp 16
  1
  0
  418
  46
  10
  0
  0
  2
  0
  0
  0
  0
  0
  0
  0
  0
EndShort

StartChar: .notdef
Encoding: 1114112 -1 0
Width: 60
VWidth: 74
GlyphClass: 1
Flags: W
LayerCount: 2
Fore
SplineSet
10 70 m 1,0,-1
 60 70 l 1,1,-1
 60 0 l 1,2,-1
 10 0 l 1,3,-1
 10 70 l 1,0,-1
50 60 m 1,4,-1
 20 60 l 1,5,-1
 20 10 l 1,6,-1
 50 10 l 1,7,-1
 50 60 l 1,4,-1
EndSplineSet
EndChar

StartChar: space
Encoding: 32 32 2
Width: 60
VWidth: 73
GlyphClass: 1
Flags: W
LayerCount: 2
Fore
SplineSet
0 0 m 1,0,-1
 0 0 l 1,1,-1
 0 0 l 1,2,-1
 0 0 l 1,0,-1
EndSplineSet
EndChar

StartChar: exclam
Encoding: 33 33 3
Width: 60
VWidth: 73
GlyphClass: 1
Flags: W
LayerCount: 2
Fore
SplineSet
30 70 m 1,0,-1
 40 70 l 1,1,-1
 40 20 l 1,2,-1
 30 20 l 1,3,-1
 30 70 l 1,0,-1
30 10 m 1,4,-1
 40 10 l 1,5,-1
 40 0 l 1,6,-1
 30 0 l 1,7,-1
 30 10 l 1,8,-1
 30 10 l 1,4,-1
EndSplineSet
EndChar

StartChar: quotedbl
Encoding: 34 34 4
Width: 60
VWidth: 74
GlyphClass: 1
Flags: W
LayerCount: 2
Fore
SplineSet
20 70 m 1,0,-1
 30 70 l 1,1,-1
 30 40 l 1,2,-1
 20 40 l 1,3,-1
 20 70 l 1,0,-1
40 70 m 1,4,-1
 50 70 l 1,5,-1
 50 40 l 1,6,-1
 40 40 l 1,7,-1
 40 70 l 1,4,-1
EndSplineSet
EndChar

StartChar: numbersign
Encoding: 35 35 5
Width: 60
VWidth: 73
GlyphClass: 1
Flags: W
LayerCount: 2
Fore
SplineSet
20 70 m 1,0,-1
 30 70 l 1,1,-1
 30 60 l 1,2,-1
 40 60 l 1,3,-1
 40 70 l 1,4,-1
 50 70 l 1,5,-1
 50 60 l 1,6,-1
 60 60 l 1,7,-1
 60 50 l 1,8,-1
 50 50 l 1,9,-1
 50 20 l 1,10,-1
 60 20 l 1,11,-1
 60 10 l 1,12,-1
 50 10 l 1,13,-1
 50 0 l 1,14,-1
 40 0 l 1,15,-1
 40 10 l 1,16,-1
 30 10 l 1,17,-1
 30 0 l 1,18,-1
 20 0 l 1,19,-1
 20 10 l 1,20,-1
 10 10 l 1,21,-1
 10 20 l 1,22,-1
 20 20 l 1,23,-1
 20 50 l 1,24,-1
 10 50 l 1,25,-1
 10 60 l 1,26,-1
 20 60 l 1,27,-1
 20 70 l 1,0,-1
40 50 m 1,28,-1
 30 50 l 1,29,-1
 30 20 l 1,30,-1
 40 20 l 1,31,-1
 40 50 l 1,32,-1
 40 50 l 1,28,-1
EndSplineSet
EndChar

StartChar: dollar
Encoding: 36 36 6
Width: 60
VWidth: 73
GlyphClass: 1
Flags: W
LayerCount: 2
Fore
SplineSet
30 70 m 1,0,-1
 40 70 l 1,1,-1
 40 60 l 1,2,-1
 60 60 l 1,3,-1
 60 50 l 1,4,-1
 40 50 l 1,5,-1
 40 40 l 1,6,-1
 50 40 l 1,7,-1
 50 30 l 1,8,-1
 40 30 l 1,9,-1
 40 20 l 1,10,-1
 50 20 l 1,11,-1
 50 30 l 1,12,-1
 60 30 l 1,13,-1
 60 20 l 1,14,-1
 50 20 l 1,15,-1
 50 10 l 1,16,-1
 40 10 l 1,17,-1
 40 0 l 1,18,-1
 30 0 l 1,19,-1
 30 10 l 1,20,-1
 10 10 l 1,21,-1
 10 20 l 1,22,-1
 30 20 l 1,23,-1
 30 30 l 1,24,-1
 20 30 l 1,25,-1
 20 40 l 1,26,-1
 10 40 l 1,27,-1
 10 50 l 1,28,-1
 20 50 l 1,29,-1
 20 60 l 1,30,-1
 30 60 l 1,31,-1
 30 70 l 1,0,-1
30 50 m 1,32,-1
 20 50 l 1,33,-1
 20 40 l 1,34,-1
 30 40 l 1,35,-1
 30 50 l 1,32,-1
EndSplineSet
EndChar

StartChar: percent
Encoding: 37 37 7
Width: 60
VWidth: 73
GlyphClass: 1
Flags: W
LayerCount: 2
Fore
SplineSet
10 70 m 1,0,-1
 30 70 l 1,1,-1
 30 50 l 1,2,-1
 10 50 l 1,3,-1
 10 70 l 1,0,-1
50 60 m 1,4,-1
 60 60 l 1,5,-1
 60 50 l 1,6,-1
 50 50 l 1,7,-1
 50 60 l 1,8,-1
 50 60 l 1,4,-1
40 50 m 1,9,-1
 50 50 l 1,10,-1
 50 40 l 1,11,-1
 40 40 l 1,12,-1
 40 50 l 1,9,-1
30 40 m 1,13,-1
 40 40 l 1,14,-1
 40 30 l 1,15,-1
 30 30 l 1,16,-1
 30 40 l 1,13,-1
20 30 m 1,17,-1
 30 30 l 1,18,-1
 30 20 l 1,19,-1
 20 20 l 1,20,-1
 20 30 l 1,17,-1
10 20 m 1,21,-1
 20 20 l 1,22,-1
 20 10 l 1,23,-1
 10 10 l 1,24,-1
 10 20 l 1,25,-1
 10 20 l 1,21,-1
40 20 m 1,26,-1
 60 20 l 1,27,-1
 60 0 l 1,28,-1
 40 0 l 1,29,-1
 40 20 l 1,26,-1
EndSplineSet
EndChar

StartChar: ampersand
Encoding: 38 38 8
Width: 60
VWidth: 73
GlyphClass: 1
Flags: W
LayerCount: 2
Fore
SplineSet
30 70 m 1,0,-1
 40 70 l 1,1,-1
 40 60 l 1,2,-1
 30 60 l 1,3,-1
 30 70 l 1,0,-1
20 60 m 1,4,-1
 30 60 l 1,5,-1
 30 40 l 1,6,-1
 40 40 l 1,7,-1
 40 60 l 1,8,-1
 50 60 l 1,9,-1
 50 40 l 1,10,-1
 40 40 l 1,11,-1
 40 20 l 1,12,-1
 30 20 l 1,13,-1
 30 30 l 1,14,-1
 20 30 l 1,15,-1
 20 60 l 1,16,-1
 20 60 l 1,4,-1
10 30 m 1,17,-1
 20 30 l 1,18,-1
 20 10 l 1,19,-1
 10 10 l 1,20,-1
 10 30 l 1,17,-1
50 30 m 1,21,-1
 60 30 l 1,22,-1
 60 20 l 1,23,-1
 50 20 l 1,24,-1
 50 30 l 1,25,-1
 50 30 l 1,21,-1
40 20 m 1,26,-1
 50 20 l 1,27,-1
 50 10 l 1,28,-1
 40 10 l 1,29,-1
 40 20 l 1,30,-1
 40 20 l 1,26,-1
20 10 m 1,31,-1
 40 10 l 1,32,-1
 40 0 l 1,33,-1
 20 0 l 1,34,-1
 20 10 l 1,35,-1
 20 10 l 1,31,-1
50 10 m 1,36,-1
 60 10 l 1,37,-1
 60 0 l 1,38,-1
 50 0 l 1,39,-1
 50 10 l 1,40,-1
 50 10 l 1,36,-1
EndSplineSet
EndChar

StartChar: quotesingle
Encoding: 39 39 9
Width: 60
VWidth: 74
GlyphClass: 1
Flags: W
LayerCount: 2
Fore
SplineSet
30 70 m 1,0,-1
 40 70 l 1,1,-1
 40 40 l 1,2,-1
 30 40 l 1,3,-1
 30 70 l 1,0,-1
EndSplineSet
EndChar

StartChar: parenleft
Encoding: 40 40 10
Width: 60
VWidth: 73
GlyphClass: 1
Flags: W
LayerCount: 2
Fore
SplineSet
40 70 m 1,0,-1
 50 70 l 1,1,-1
 50 60 l 1,2,-1
 40 60 l 1,3,-1
 40 70 l 1,0,-1
30 60 m 1,4,-1
 40 60 l 1,5,-1
 40 50 l 1,6,-1
 30 50 l 1,7,-1
 30 60 l 1,4,-1
20 50 m 1,8,-1
 30 50 l 1,9,-1
 30 20 l 1,10,-1
 20 20 l 1,11,-1
 20 50 l 1,12,-1
 20 50 l 1,8,-1
30 20 m 1,13,-1
 40 20 l 1,14,-1
 40 10 l 1,15,-1
 30 10 l 1,16,-1
 30 20 l 1,17,-1
 30 20 l 1,13,-1
40 10 m 1,18,-1
 50 10 l 1,19,-1
 50 0 l 1,20,-1
 40 0 l 1,21,-1
 40 10 l 1,22,-1
 40 10 l 1,18,-1
EndSplineSet
EndChar

StartChar: parenright
Encoding: 41 41 11
Width: 60
VWidth: 73
GlyphClass: 1
Flags: W
LayerCount: 2
Fore
SplineSet
20 70 m 1,0,-1
 30 70 l 1,1,-1
 30 60 l 1,2,-1
 20 60 l 1,3,-1
 20 70 l 1,0,-1
30 60 m 1,4,-1
 40 60 l 1,5,-1
 40 50 l 1,6,-1
 30 50 l 1,7,-1
 30 60 l 1,4,-1
40 50 m 1,8,-1
 50 50 l 1,9,-1
 50 20 l 1,10,-1
 40 20 l 1,11,-1
 40 50 l 1,12,-1
 40 50 l 1,8,-1
30 20 m 1,13,-1
 40 20 l 1,14,-1
 40 10 l 1,15,-1
 30 10 l 1,16,-1
 30 20 l 1,17,-1
 30 20 l 1,13,-1
20 10 m 1,18,-1
 30 10 l 1,19,-1
 30 0 l 1,20,-1
 20 0 l 1,21,-1
 20 10 l 1,22,-1
 20 10 l 1,18,-1
EndSplineSet
EndChar

StartChar: plus
Encoding: 43 43 12
Width: 60
VWidth: 73
GlyphClass: 1
Flags: W
LayerCount: 2
Fore
SplineSet
30 60 m 1,0,-1
 40 60 l 1,1,-1
 40 40 l 1,2,-1
 60 40 l 1,3,-1
 60 30 l 1,4,-1
 40 30 l 1,5,-1
 40 10 l 1,6,-1
 30 10 l 1,7,-1
 30 30 l 1,8,-1
 10 30 l 1,9,-1
 10 40 l 1,10,-1
 30 40 l 1,11,-1
 30 60 l 1,0,-1
EndSplineSet
EndChar

StartChar: comma
Encoding: 44 44 13
Width: 60
VWidth: 73
GlyphClass: 1
Flags: W
LayerCount: 2
Fore
SplineSet
20 30 m 1,0,-1
 40 30 l 1,1,-1
 40 10 l 1,2,-1
 30 10 l 1,3,-1
 30 20 l 1,4,-1
 20 20 l 1,5,-1
 20 30 l 1,6,-1
 20 30 l 1,0,-1
20 10 m 1,7,-1
 30 10 l 1,8,-1
 30 0 l 1,9,-1
 20 0 l 1,10,-1
 20 10 l 1,11,-1
 20 10 l 1,7,-1
EndSplineSet
EndChar

StartChar: hyphen
Encoding: 45 45 14
Width: 60
VWidth: 73
GlyphClass: 1
Flags: W
LayerCount: 2
Fore
SplineSet
10 40 m 1,0,-1
 60 40 l 1,1,-1
 60 30 l 1,2,-1
 10 30 l 1,3,-1
 10 40 l 1,4,-1
 10 40 l 1,0,-1
EndSplineSet
EndChar

StartChar: period
Encoding: 46 46 15
Width: 60
VWidth: 73
GlyphClass: 1
Flags: W
LayerCount: 2
Fore
SplineSet
20 20 m 1,0,-1
 40 20 l 1,1,-1
 40 0 l 1,2,-1
 20 0 l 1,3,-1
 20 20 l 1,0,-1
EndSplineSet
EndChar

StartChar: slash
Encoding: 47 47 16
Width: 60
VWidth: 73
GlyphClass: 1
Flags: W
LayerCount: 2
Fore
SplineSet
50 60 m 1,0,-1
 60 60 l 1,1,-1
 60 50 l 1,2,-1
 50 50 l 1,3,-1
 50 60 l 1,4,-1
 50 60 l 1,0,-1
40 50 m 1,5,-1
 50 50 l 1,6,-1
 50 40 l 1,7,-1
 40 40 l 1,8,-1
 40 50 l 1,5,-1
30 40 m 1,9,-1
 40 40 l 1,10,-1
 40 30 l 1,11,-1
 30 30 l 1,12,-1
 30 40 l 1,9,-1
20 30 m 1,13,-1
 30 30 l 1,14,-1
 30 20 l 1,15,-1
 20 20 l 1,16,-1
 20 30 l 1,13,-1
10 20 m 1,17,-1
 20 20 l 1,18,-1
 20 10 l 1,19,-1
 10 10 l 1,20,-1
 10 20 l 1,21,-1
 10 20 l 1,17,-1
EndSplineSet
EndChar

StartChar: zero
Encoding: 48 48 17
Width: 60
VWidth: 73
GlyphClass: 1
Flags: W
LayerCount: 2
Fore
SplineSet
20 70 m 1,0,-1
 50 70 l 1,1,-1
 50 60 l 1,2,-1
 20 60 l 1,3,-1
 20 70 l 1,4,-1
 20 70 l 1,0,-1
10 60 m 1,5,-1
 20 60 l 1,6,-1
 20 10 l 1,7,-1
 10 10 l 1,8,-1
 10 60 l 1,9,-1
 10 60 l 1,5,-1
50 60 m 1,10,-1
 60 60 l 1,11,-1
 60 10 l 1,12,-1
 50 10 l 1,13,-1
 50 60 l 1,14,-1
 50 60 l 1,10,-1
20 10 m 1,15,-1
 50 10 l 1,16,-1
 50 0 l 1,17,-1
 20 0 l 1,18,-1
 20 10 l 1,19,-1
 20 10 l 1,15,-1
EndSplineSet
EndChar

StartChar: one
Encoding: 49 49 18
Width: 60
VWidth: 73
GlyphClass: 1
Flags: W
LayerCount: 2
Fore
SplineSet
30 70 m 1,0,-1
 40 70 l 1,1,-1
 40 10 l 1,2,-1
 50 10 l 1,3,-1
 50 0 l 1,4,-1
 20 0 l 1,5,-1
 20 10 l 1,6,-1
 30 10 l 1,7,-1
 30 50 l 1,8,-1
 20 50 l 1,9,-1
 20 60 l 1,10,-1
 30 60 l 1,11,-1
 30 70 l 1,12,-1
 30 70 l 1,0,-1
EndSplineSet
EndChar

StartChar: two
Encoding: 50 50 19
Width: 60
VWidth: 73
GlyphClass: 1
Flags: W
LayerCount: 2
Fore
SplineSet
20 70 m 1,0,-1
 50 70 l 1,1,-1
 50 60 l 1,2,-1
 20 60 l 1,3,-1
 20 70 l 1,4,-1
 20 70 l 1,0,-1
10 60 m 1,5,-1
 20 60 l 1,6,-1
 20 50 l 1,7,-1
 10 50 l 1,8,-1
 10 60 l 1,5,-1
50 60 m 1,9,-1
 60 60 l 1,10,-1
 60 40 l 1,11,-1
 50 40 l 1,12,-1
 50 60 l 1,13,-1
 50 60 l 1,9,-1
40 40 m 1,14,-1
 50 40 l 1,15,-1
 50 30 l 1,16,-1
 40 30 l 1,17,-1
 40 40 l 1,14,-1
30 30 m 1,18,-1
 40 30 l 1,19,-1
 40 20 l 1,20,-1
 30 20 l 1,21,-1
 30 30 l 1,18,-1
20 20 m 1,22,-1
 30 20 l 1,23,-1
 30 10 l 1,24,-1
 60 10 l 1,25,-1
 60 0 l 1,26,-1
 10 0 l 1,27,-1
 10 10 l 1,28,-1
 20 10 l 1,29,-1
 20 20 l 1,30,-1
 20 20 l 1,22,-1
EndSplineSet
EndChar

StartChar: three
Encoding: 51 51 20
Width: 60
VWidth: 73
GlyphClass: 1
Flags: W
LayerCount: 2
Fore
SplineSet
20 70 m 1,0,-1
 50 70 l 1,1,-1
 50 60 l 1,2,-1
 20 60 l 1,3,-1
 20 70 l 1,4,-1
 20 70 l 1,0,-1
10 60 m 1,5,-1
 20 60 l 1,6,-1
 20 50 l 1,7,-1
 10 50 l 1,8,-1
 10 60 l 1,5,-1
50 60 m 1,9,-1
 60 60 l 1,10,-1
 60 40 l 1,11,-1
 50 40 l 1,12,-1
 50 60 l 1,13,-1
 50 60 l 1,9,-1
30 40 m 1,14,-1
 50 40 l 1,15,-1
 50 30 l 1,16,-1
 30 30 l 1,17,-1
 30 40 l 1,18,-1
 30 40 l 1,14,-1
50 30 m 1,19,-1
 60 30 l 1,20,-1
 60 10 l 1,21,-1
 50 10 l 1,22,-1
 50 30 l 1,23,-1
 50 30 l 1,19,-1
10 20 m 1,24,-1
 20 20 l 1,25,-1
 20 10 l 1,26,-1
 10 10 l 1,27,-1
 10 20 l 1,28,-1
 10 20 l 1,24,-1
20 10 m 1,29,-1
 50 10 l 1,30,-1
 50 0 l 1,31,-1
 20 0 l 1,32,-1
 20 10 l 1,33,-1
 20 10 l 1,29,-1
EndSplineSet
EndChar

StartChar: four
Encoding: 52 52 21
Width: 60
VWidth: 73
GlyphClass: 1
Flags: W
LayerCount: 2
Fore
SplineSet
40 70 m 1,0,-1
 50 70 l 1,1,-1
 50 20 l 1,2,-1
 60 20 l 1,3,-1
 60 10 l 1,4,-1
 50 10 l 1,5,-1
 50 0 l 1,6,-1
 40 0 l 1,7,-1
 40 10 l 1,8,-1
 10 10 l 1,9,-1
 10 30 l 1,10,-1
 20 30 l 1,11,-1
 20 50 l 1,12,-1
 30 50 l 1,13,-1
 30 60 l 1,14,-1
 40 60 l 1,15,-1
 40 70 l 1,16,-1
 40 70 l 1,0,-1
40 50 m 1,17,-1
 30 50 l 1,18,-1
 30 30 l 1,19,-1
 20 30 l 1,20,-1
 20 20 l 1,21,-1
 40 20 l 1,22,-1
 40 50 l 1,23,-1
 40 50 l 1,17,-1
EndSplineSet
EndChar

StartChar: five
Encoding: 53 53 22
Width: 60
VWidth: 73
GlyphClass: 1
Flags: W
LayerCount: 2
Fore
SplineSet
10 70 m 1,0,-1
 60 70 l 1,1,-1
 60 60 l 1,2,-1
 20 60 l 1,3,-1
 20 50 l 1,4,-1
 50 50 l 1,5,-1
 50 40 l 1,6,-1
 10 40 l 1,7,-1
 10 70 l 1,8,-1
 10 70 l 1,0,-1
50 40 m 1,9,-1
 60 40 l 1,10,-1
 60 10 l 1,11,-1
 50 10 l 1,12,-1
 50 40 l 1,13,-1
 50 40 l 1,9,-1
10 20 m 1,14,-1
 20 20 l 1,15,-1
 20 10 l 1,16,-1
 10 10 l 1,17,-1
 10 20 l 1,18,-1
 10 20 l 1,14,-1
20 10 m 1,19,-1
 50 10 l 1,20,-1
 50 0 l 1,21,-1
 20 0 l 1,22,-1
 20 10 l 1,23,-1
 20 10 l 1,19,-1
EndSplineSet
EndChar

StartChar: six
Encoding: 54 54 23
Width: 60
VWidth: 73
GlyphClass: 1
Flags: W
LayerCount: 2
Fore
SplineSet
30 70 m 1,0,-1
 50 70 l 1,1,-1
 50 60 l 1,2,-1
 30 60 l 1,3,-1
 30 70 l 1,4,-1
 30 70 l 1,0,-1
20 60 m 1,5,-1
 30 60 l 1,6,-1
 30 50 l 1,7,-1
 20 50 l 1,8,-1
 20 60 l 1,5,-1
10 50 m 1,9,-1
 20 50 l 1,10,-1
 20 40 l 1,11,-1
 50 40 l 1,12,-1
 50 30 l 1,13,-1
 20 30 l 1,14,-1
 20 10 l 1,15,-1
 10 10 l 1,16,-1
 10 50 l 1,17,-1
 10 50 l 1,9,-1
50 30 m 1,18,-1
 60 30 l 1,19,-1
 60 10 l 1,20,-1
 50 10 l 1,21,-1
 50 30 l 1,22,-1
 50 30 l 1,18,-1
20 10 m 1,23,-1
 50 10 l 1,24,-1
 50 0 l 1,25,-1
 20 0 l 1,26,-1
 20 10 l 1,27,-1
 20 10 l 1,23,-1
EndSplineSet
EndChar

StartChar: seven
Encoding: 55 55 24
Width: 60
VWidth: 73
GlyphClass: 1
Flags: W
LayerCount: 2
Fore
SplineSet
10 70 m 1,0,-1
 60 70 l 1,1,-1
 60 50 l 1,2,-1
 50 50 l 1,3,-1
 50 60 l 1,4,-1
 20 60 l 1,5,-1
 20 50 l 1,6,-1
 10 50 l 1,7,-1
 10 70 l 1,8,-1
 10 70 l 1,0,-1
40 50 m 1,9,-1
 50 50 l 1,10,-1
 50 30 l 1,11,-1
 40 30 l 1,12,-1
 40 50 l 1,9,-1
30 30 m 1,13,-1
 40 30 l 1,14,-1
 40 0 l 1,15,-1
 30 0 l 1,16,-1
 30 30 l 1,13,-1
EndSplineSet
EndChar

StartChar: eight
Encoding: 56 56 25
Width: 60
VWidth: 73
GlyphClass: 1
Flags: W
LayerCount: 2
Fore
SplineSet
20 70 m 1,0,-1
 50 70 l 1,1,-1
 50 60 l 1,2,-1
 20 60 l 1,3,-1
 20 70 l 1,4,-1
 20 70 l 1,0,-1
10 60 m 1,5,-1
 20 60 l 1,6,-1
 20 40 l 1,7,-1
 10 40 l 1,8,-1
 10 60 l 1,5,-1
50 60 m 1,9,-1
 60 60 l 1,10,-1
 60 40 l 1,11,-1
 50 40 l 1,12,-1
 50 60 l 1,13,-1
 50 60 l 1,9,-1
20 40 m 1,14,-1
 50 40 l 1,15,-1
 50 30 l 1,16,-1
 20 30 l 1,17,-1
 20 40 l 1,18,-1
 20 40 l 1,14,-1
10 30 m 1,19,-1
 20 30 l 1,20,-1
 20 10 l 1,21,-1
 10 10 l 1,22,-1
 10 30 l 1,19,-1
50 30 m 1,23,-1
 60 30 l 1,24,-1
 60 10 l 1,25,-1
 50 10 l 1,26,-1
 50 30 l 1,27,-1
 50 30 l 1,23,-1
20 10 m 1,28,-1
 50 10 l 1,29,-1
 50 0 l 1,30,-1
 20 0 l 1,31,-1
 20 10 l 1,32,-1
 20 10 l 1,28,-1
EndSplineSet
EndChar

StartChar: nine
Encoding: 57 57 26
Width: 60
VWidth: 73
GlyphClass: 1
Flags: W
LayerCount: 2
Fore
SplineSet
20 70 m 1,0,-1
 50 70 l 1,1,-1
 50 60 l 1,2,-1
 20 60 l 1,3,-1
 20 70 l 1,4,-1
 20 70 l 1,0,-1
10 60 m 1,5,-1
 20 60 l 1,6,-1
 20 40 l 1,7,-1
 10 40 l 1,8,-1
 10 60 l 1,5,-1
50 60 m 1,9,-1
 60 60 l 1,10,-1
 60 20 l 1,11,-1
 50 20 l 1,12,-1
 50 30 l 1,13,-1
 20 30 l 1,14,-1
 20 40 l 1,15,-1
 50 40 l 1,16,-1
 50 60 l 1,17,-1
 50 60 l 1,9,-1
40 20 m 1,18,-1
 50 20 l 1,19,-1
 50 10 l 1,20,-1
 40 10 l 1,21,-1
 40 20 l 1,22,-1
 40 20 l 1,18,-1
20 10 m 1,23,-1
 40 10 l 1,24,-1
 40 0 l 1,25,-1
 20 0 l 1,26,-1
 20 10 l 1,27,-1
 20 10 l 1,23,-1
EndSplineSet
EndChar

StartChar: colon
Encoding: 58 58 27
Width: 60
VWidth: 73
GlyphClass: 1
Flags: W
LayerCount: 2
Fore
SplineSet
20 60 m 1,0,-1
 40 60 l 1,1,-1
 40 40 l 1,2,-1
 20 40 l 1,3,-1
 20 60 l 1,0,-1
20 30 m 1,4,-1
 40 30 l 1,5,-1
 40 10 l 1,6,-1
 20 10 l 1,7,-1
 20 30 l 1,4,-1
EndSplineSet
EndChar

StartChar: semicolon
Encoding: 59 59 28
Width: 60
VWidth: 73
GlyphClass: 1
Flags: W
LayerCount: 2
Fore
SplineSet
20 60 m 1,0,-1
 40 60 l 1,1,-1
 40 40 l 1,2,-1
 20 40 l 1,3,-1
 20 60 l 1,0,-1
20 30 m 1,4,-1
 40 30 l 1,5,-1
 40 10 l 1,6,-1
 30 10 l 1,7,-1
 30 20 l 1,8,-1
 20 20 l 1,9,-1
 20 30 l 1,10,-1
 20 30 l 1,4,-1
20 10 m 1,11,-1
 30 10 l 1,12,-1
 30 0 l 1,13,-1
 20 0 l 1,14,-1
 20 10 l 1,15,-1
 20 10 l 1,11,-1
EndSplineSet
EndChar

StartChar: less
Encoding: 60 60 29
Width: 60
VWidth: 73
GlyphClass: 1
Flags: W
LayerCount: 2
Fore
SplineSet
40 70 m 1,0,-1
 50 70 l 1,1,-1
 50 60 l 1,2,-1
 40 60 l 1,3,-1
 40 70 l 1,0,-1
30 60 m 1,4,-1
 40 60 l 1,5,-1
 40 50 l 1,6,-1
 30 50 l 1,7,-1
 30 60 l 1,4,-1
20 50 m 1,8,-1
 30 50 l 1,9,-1
 30 40 l 1,10,-1
 20 40 l 1,11,-1
 20 50 l 1,8,-1
10 40 m 1,12,-1
 20 40 l 1,13,-1
 20 30 l 1,14,-1
 10 30 l 1,15,-1
 10 40 l 1,12,-1
20 30 m 1,16,-1
 30 30 l 1,17,-1
 30 20 l 1,18,-1
 20 20 l 1,19,-1
 20 30 l 1,16,-1
30 20 m 1,20,-1
 40 20 l 1,21,-1
 40 10 l 1,22,-1
 30 10 l 1,23,-1
 30 20 l 1,24,-1
 30 20 l 1,20,-1
40 10 m 1,25,-1
 50 10 l 1,26,-1
 50 0 l 1,27,-1
 40 0 l 1,28,-1
 40 10 l 1,29,-1
 40 10 l 1,25,-1
EndSplineSet
EndChar

StartChar: equal
Encoding: 61 61 30
Width: 60
VWidth: 73
GlyphClass: 1
Flags: W
LayerCount: 2
Fore
SplineSet
10 50 m 1,0,-1
 60 50 l 1,1,-1
 60 40 l 1,2,-1
 10 40 l 1,3,-1
 10 50 l 1,4,-1
 10 50 l 1,0,-1
10 30 m 1,5,-1
 60 30 l 1,6,-1
 60 20 l 1,7,-1
 10 20 l 1,8,-1
 10 30 l 1,9,-1
 10 30 l 1,5,-1
EndSplineSet
EndChar

StartChar: greater
Encoding: 62 62 31
Width: 60
VWidth: 73
GlyphClass: 1
Flags: W
LayerCount: 2
Fore
SplineSet
10 70 m 1,0,-1
 20 70 l 1,1,-1
 20 60 l 1,2,-1
 10 60 l 1,3,-1
 10 70 l 1,0,-1
20 60 m 1,4,-1
 30 60 l 1,5,-1
 30 50 l 1,6,-1
 20 50 l 1,7,-1
 20 60 l 1,4,-1
30 50 m 1,8,-1
 40 50 l 1,9,-1
 40 40 l 1,10,-1
 30 40 l 1,11,-1
 30 50 l 1,8,-1
40 40 m 1,12,-1
 50 40 l 1,13,-1
 50 30 l 1,14,-1
 40 30 l 1,15,-1
 40 40 l 1,12,-1
30 30 m 1,16,-1
 40 30 l 1,17,-1
 40 20 l 1,18,-1
 30 20 l 1,19,-1
 30 30 l 1,16,-1
20 20 m 1,20,-1
 30 20 l 1,21,-1
 30 10 l 1,22,-1
 20 10 l 1,23,-1
 20 20 l 1,24,-1
 20 20 l 1,20,-1
10 10 m 1,25,-1
 20 10 l 1,26,-1
 20 0 l 1,27,-1
 10 0 l 1,28,-1
 10 10 l 1,29,-1
 10 10 l 1,25,-1
EndSplineSet
EndChar

StartChar: question
Encoding: 63 63 32
Width: 60
VWidth: 73
GlyphClass: 1
Flags: W
LayerCount: 2
Fore
SplineSet
20 70 m 1,0,-1
 50 70 l 1,1,-1
 50 60 l 1,2,-1
 20 60 l 1,3,-1
 20 70 l 1,4,-1
 20 70 l 1,0,-1
10 60 m 1,5,-1
 20 60 l 1,6,-1
 20 50 l 1,7,-1
 10 50 l 1,8,-1
 10 60 l 1,5,-1
50 60 m 1,9,-1
 60 60 l 1,10,-1
 60 40 l 1,11,-1
 50 40 l 1,12,-1
 50 60 l 1,13,-1
 50 60 l 1,9,-1
40 40 m 1,14,-1
 50 40 l 1,15,-1
 50 30 l 1,16,-1
 40 30 l 1,17,-1
 40 40 l 1,14,-1
30 30 m 1,18,-1
 40 30 l 1,19,-1
 40 20 l 1,20,-1
 30 20 l 1,21,-1
 30 30 l 1,18,-1
30 10 m 1,22,-1
 40 10 l 1,23,-1
 40 0 l 1,24,-1
 30 0 l 1,25,-1
 30 10 l 1,26,-1
 30 10 l 1,22,-1
EndSplineSet
EndChar

StartChar: at
Encoding: 64 64 33
Width: 60
VWidth: 73
GlyphClass: 1
Flags: W
LayerCount: 2
Fore
SplineSet
20 70 m 1,0,-1
 50 70 l 1,1,-1
 50 60 l 1,2,-1
 20 60 l 1,3,-1
 20 70 l 1,4,-1
 20 70 l 1,0,-1
10 60 m 1,5,-1
 20 60 l 1,6,-1
 20 50 l 1,7,-1
 10 50 l 1,8,-1
 10 60 l 1,5,-1
50 60 m 1,9,-1
 60 60 l 1,10,-1
 60 10 l 1,11,-1
 50 10 l 1,12,-1
 50 60 l 1,13,-1
 50 60 l 1,9,-1
20 50 m 1,14,-1
 40 50 l 1,15,-1
 40 10 l 1,16,-1
 30 10 l 1,17,-1
 30 40 l 1,18,-1
 20 40 l 1,19,-1
 20 50 l 1,20,-1
 20 50 l 1,14,-1
10 40 m 1,21,-1
 20 40 l 1,22,-1
 20 10 l 1,23,-1
 10 10 l 1,24,-1
 10 40 l 1,21,-1
20 10 m 1,25,-1
 30 10 l 1,26,-1
 30 0 l 1,27,-1
 20 0 l 1,28,-1
 20 10 l 1,29,-1
 20 10 l 1,25,-1
40 10 m 1,30,-1
 50 10 l 1,31,-1
 50 0 l 1,32,-1
 40 0 l 1,33,-1
 40 10 l 1,34,-1
 40 10 l 1,30,-1
EndSplineSet
EndChar

StartChar: A
Encoding: 65 65 34
Width: 60
VWidth: 73
GlyphClass: 1
Flags: W
LayerCount: 2
Fore
SplineSet
30 70 m 1,0,-1
 40 70 l 1,1,-1
 40 60 l 1,2,-1
 30 60 l 1,3,-1
 30 70 l 1,0,-1
20 60 m 1,4,-1
 30 60 l 1,5,-1
 30 50 l 1,6,-1
 20 50 l 1,7,-1
 20 60 l 1,4,-1
40 60 m 1,8,-1
 50 60 l 1,9,-1
 50 50 l 1,10,-1
 40 50 l 1,11,-1
 40 60 l 1,8,-1
10 50 m 1,12,-1
 20 50 l 1,13,-1
 20 30 l 1,14,-1
 50 30 l 1,15,-1
 50 50 l 1,16,-1
 60 50 l 1,17,-1
 60 0 l 1,18,-1
 50 0 l 1,19,-1
 50 20 l 1,20,-1
 20 20 l 1,21,-1
 20 0 l 1,22,-1
 10 0 l 1,23,-1
 10 50 l 1,24,-1
 10 50 l 1,12,-1
EndSplineSet
EndChar

StartChar: B
Encoding: 66 66 35
Width: 60
VWidth: 73
GlyphClass: 1
Flags: W
LayerCount: 2
Fore
SplineSet
10 70 m 1,0,-1
 50 70 l 1,1,-1
 50 60 l 1,2,-1
 20 60 l 1,3,-1
 20 40 l 1,4,-1
 50 40 l 1,5,-1
 50 60 l 1,6,-1
 60 60 l 1,7,-1
 60 40 l 1,8,-1
 50 40 l 1,9,-1
 50 30 l 1,10,-1
 20 30 l 1,11,-1
 20 10 l 1,12,-1
 50 10 l 1,13,-1
 50 30 l 1,14,-1
 60 30 l 1,15,-1
 60 10 l 1,16,-1
 50 10 l 1,17,-1
 50 0 l 1,18,-1
 10 0 l 1,19,-1
 10 70 l 1,20,-1
 10 70 l 1,0,-1
EndSplineSet
EndChar

StartChar: C
Encoding: 67 67 36
Width: 60
VWidth: 73
GlyphClass: 1
Flags: W
LayerCount: 2
Fore
SplineSet
20 70 m 1,0,-1
 50 70 l 1,1,-1
 50 60 l 1,2,-1
 20 60 l 1,3,-1
 20 70 l 1,4,-1
 20 70 l 1,0,-1
10 60 m 1,5,-1
 20 60 l 1,6,-1
 20 10 l 1,7,-1
 10 10 l 1,8,-1
 10 60 l 1,9,-1
 10 60 l 1,5,-1
50 60 m 1,10,-1
 60 60 l 1,11,-1
 60 50 l 1,12,-1
 50 50 l 1,13,-1
 50 60 l 1,14,-1
 50 60 l 1,10,-1
50 20 m 1,15,-1
 60 20 l 1,16,-1
 60 10 l 1,17,-1
 50 10 l 1,18,-1
 50 20 l 1,19,-1
 50 20 l 1,15,-1
20 10 m 1,20,-1
 50 10 l 1,21,-1
 50 0 l 1,22,-1
 20 0 l 1,23,-1
 20 10 l 1,24,-1
 20 10 l 1,20,-1
EndSplineSet
EndChar

StartChar: D
Encoding: 68 68 37
Width: 60
VWidth: 73
GlyphClass: 1
Flags: W
LayerCount: 2
Fore
SplineSet
10 70 m 1,0,-1
 40 70 l 1,1,-1
 40 60 l 1,2,-1
 20 60 l 1,3,-1
 20 10 l 1,4,-1
 40 10 l 1,5,-1
 40 20 l 1,6,-1
 50 20 l 1,7,-1
 50 50 l 1,8,-1
 40 50 l 1,9,-1
 40 60 l 1,10,-1
 50 60 l 1,11,-1
 50 50 l 1,12,-1
 60 50 l 1,13,-1
 60 20 l 1,14,-1
 50 20 l 1,15,-1
 50 10 l 1,16,-1
 40 10 l 1,17,-1
 40 0 l 1,18,-1
 10 0 l 1,19,-1
 10 70 l 1,20,-1
 10 70 l 1,0,-1
EndSplineSet
EndChar

StartChar: E
Encoding: 69 69 38
Width: 60
VWidth: 73
GlyphClass: 1
Flags: W
LayerCount: 2
Fore
SplineSet
10 70 m 1,0,-1
 60 70 l 1,1,-1
 60 60 l 1,2,-1
 20 60 l 1,3,-1
 20 40 l 1,4,-1
 50 40 l 1,5,-1
 50 30 l 1,6,-1
 20 30 l 1,7,-1
 20 10 l 1,8,-1
 60 10 l 1,9,-1
 60 0 l 1,10,-1
 10 0 l 1,11,-1
 10 70 l 1,12,-1
 10 70 l 1,0,-1
EndSplineSet
EndChar

StartChar: F
Encoding: 70 70 39
Width: 60
VWidth: 73
GlyphClass: 1
Flags: W
LayerCount: 2
Fore
SplineSet
10 70 m 1,0,-1
 60 70 l 1,1,-1
 60 60 l 1,2,-1
 20 60 l 1,3,-1
 20 40 l 1,4,-1
 50 40 l 1,5,-1
 50 30 l 1,6,-1
 20 30 l 1,7,-1
 20 0 l 1,8,-1
 10 0 l 1,9,-1
 10 70 l 1,10,-1
 10 70 l 1,0,-1
EndSplineSet
EndChar

StartChar: G
Encoding: 71 71 40
Width: 60
VWidth: 73
GlyphClass: 1
Flags: W
LayerCount: 2
Fore
SplineSet
20 70 m 1,0,-1
 50 70 l 1,1,-1
 50 60 l 1,2,-1
 20 60 l 1,3,-1
 20 70 l 1,4,-1
 20 70 l 1,0,-1
10 60 m 1,5,-1
 20 60 l 1,6,-1
 20 10 l 1,7,-1
 10 10 l 1,8,-1
 10 60 l 1,9,-1
 10 60 l 1,5,-1
50 60 m 1,10,-1
 60 60 l 1,11,-1
 60 50 l 1,12,-1
 50 50 l 1,13,-1
 50 60 l 1,14,-1
 50 60 l 1,10,-1
30 40 m 1,15,-1
 60 40 l 1,16,-1
 60 0 l 1,17,-1
 20 0 l 1,18,-1
 20 10 l 1,19,-1
 50 10 l 1,20,-1
 50 30 l 1,21,-1
 30 30 l 1,22,-1
 30 40 l 1,23,-1
 30 40 l 1,15,-1
EndSplineSet
EndChar

StartChar: H
Encoding: 72 72 41
Width: 60
VWidth: 73
GlyphClass: 1
Flags: W
LayerCount: 2
Fore
SplineSet
10 70 m 1,0,-1
 20 70 l 1,1,-1
 20 40 l 1,2,-1
 50 40 l 1,3,-1
 50 70 l 1,4,-1
 60 70 l 1,5,-1
 60 0 l 1,6,-1
 50 0 l 1,7,-1
 50 30 l 1,8,-1
 20 30 l 1,9,-1
 20 0 l 1,10,-1
 10 0 l 1,11,-1
 10 70 l 1,12,-1
 10 70 l 1,0,-1
EndSplineSet
EndChar

StartChar: I
Encoding: 73 73 42
Width: 60
VWidth: 73
GlyphClass: 1
Flags: W
LayerCount: 2
Fore
SplineSet
20 70 m 1,0,-1
 50 70 l 1,1,-1
 50 60 l 1,2,-1
 40 60 l 1,3,-1
 40 10 l 1,4,-1
 50 10 l 1,5,-1
 50 0 l 1,6,-1
 20 0 l 1,7,-1
 20 10 l 1,8,-1
 30 10 l 1,9,-1
 30 60 l 1,10,-1
 20 60 l 1,11,-1
 20 70 l 1,12,-1
 20 70 l 1,0,-1
EndSplineSet
EndChar

StartChar: J
Encoding: 74 74 43
Width: 60
VWidth: 73
GlyphClass: 1
Flags: W
LayerCount: 2
Fore
SplineSet
30 70 m 1,0,-1
 60 70 l 1,1,-1
 60 60 l 1,2,-1
 50 60 l 1,3,-1
 50 10 l 1,4,-1
 40 10 l 1,5,-1
 40 60 l 1,6,-1
 30 60 l 1,7,-1
 30 70 l 1,8,-1
 30 70 l 1,0,-1
10 20 m 1,9,-1
 20 20 l 1,10,-1
 20 10 l 1,11,-1
 10 10 l 1,12,-1
 10 20 l 1,13,-1
 10 20 l 1,9,-1
20 10 m 1,14,-1
 40 10 l 1,15,-1
 40 0 l 1,16,-1
 20 0 l 1,17,-1
 20 10 l 1,18,-1
 20 10 l 1,14,-1
EndSplineSet
EndChar

StartChar: K
Encoding: 75 75 44
Width: 60
VWidth: 73
GlyphClass: 1
Flags: W
LayerCount: 2
Fore
SplineSet
10 70 m 1,0,-1
 20 70 l 1,1,-1
 20 40 l 1,2,-1
 30 40 l 1,3,-1
 30 50 l 1,4,-1
 40 50 l 1,5,-1
 40 60 l 1,6,-1
 50 60 l 1,7,-1
 50 70 l 1,8,-1
 60 70 l 1,9,-1
 60 60 l 1,10,-1
 50 60 l 1,11,-1
 50 50 l 1,12,-1
 40 50 l 1,13,-1
 40 40 l 1,14,-1
 30 40 l 1,15,-1
 30 30 l 1,16,-1
 20 30 l 1,17,-1
 20 0 l 1,18,-1
 10 0 l 1,19,-1
 10 70 l 1,0,-1
30 30 m 1,20,-1
 40 30 l 1,21,-1
 40 20 l 1,22,-1
 30 20 l 1,23,-1
 30 30 l 1,20,-1
40 20 m 1,24,-1
 50 20 l 1,25,-1
 50 10 l 1,26,-1
 40 10 l 1,27,-1
 40 20 l 1,28,-1
 40 20 l 1,24,-1
50 10 m 1,29,-1
 60 10 l 1,30,-1
 60 0 l 1,31,-1
 50 0 l 1,32,-1
 50 10 l 1,33,-1
 50 10 l 1,29,-1
EndSplineSet
EndChar

StartChar: L
Encoding: 76 76 45
Width: 60
VWidth: 73
GlyphClass: 1
Flags: W
LayerCount: 2
Fore
SplineSet
10 70 m 1,0,-1
 20 70 l 1,1,-1
 20 10 l 1,2,-1
 60 10 l 1,3,-1
 60 0 l 1,4,-1
 10 0 l 1,5,-1
 10 70 l 1,6,-1
 10 70 l 1,0,-1
EndSplineSet
EndChar

StartChar: M
Encoding: 77 77 46
Width: 60
VWidth: 73
GlyphClass: 1
Flags: W
LayerCount: 2
Fore
SplineSet
10 70 m 1,0,-1
 20 70 l 1,1,-1
 20 60 l 1,2,-1
 30 60 l 1,3,-1
 30 40 l 1,4,-1
 20 40 l 1,5,-1
 20 0 l 1,6,-1
 10 0 l 1,7,-1
 10 70 l 1,0,-1
50 70 m 1,8,-1
 60 70 l 1,9,-1
 60 0 l 1,10,-1
 50 0 l 1,11,-1
 50 40 l 1,12,-1
 40 40 l 1,13,-1
 40 60 l 1,14,-1
 50 60 l 1,15,-1
 50 70 l 1,16,-1
 50 70 l 1,8,-1
30 40 m 1,17,-1
 40 40 l 1,18,-1
 40 20 l 1,19,-1
 30 20 l 1,20,-1
 30 40 l 1,21,-1
 30 40 l 1,17,-1
EndSplineSet
EndChar

StartChar: N
Encoding: 78 78 47
Width: 60
VWidth: 73
GlyphClass: 1
Flags: W
LayerCount: 2
Fore
SplineSet
10 70 m 1,0,-1
 20 70 l 1,1,-1
 20 60 l 1,2,-1
 30 60 l 1,3,-1
 30 50 l 1,4,-1
 20 50 l 1,5,-1
 20 0 l 1,6,-1
 10 0 l 1,7,-1
 10 70 l 1,8,-1
 10 70 l 1,0,-1
50 70 m 1,9,-1
 60 70 l 1,10,-1
 60 0 l 1,11,-1
 50 0 l 1,12,-1
 50 30 l 1,13,-1
 40 30 l 1,14,-1
 40 40 l 1,15,-1
 30 40 l 1,16,-1
 30 50 l 1,17,-1
 40 50 l 1,18,-1
 40 40 l 1,19,-1
 50 40 l 1,20,-1
 50 70 l 1,21,-1
 50 70 l 1,9,-1
EndSplineSet
EndChar

StartChar: O
Encoding: 79 79 48
Width: 60
VWidth: 73
GlyphClass: 1
Flags: W
LayerCount: 2
Fore
SplineSet
20 70 m 1,0,-1
 50 70 l 1,1,-1
 50 60 l 1,2,-1
 20 60 l 1,3,-1
 20 70 l 1,4,-1
 20 70 l 1,0,-1
10 60 m 1,5,-1
 20 60 l 1,6,-1
 20 10 l 1,7,-1
 10 10 l 1,8,-1
 10 60 l 1,9,-1
 10 60 l 1,5,-1
50 60 m 1,10,-1
 60 60 l 1,11,-1
 60 10 l 1,12,-1
 50 10 l 1,13,-1
 50 60 l 1,14,-1
 50 60 l 1,10,-1
20 10 m 1,15,-1
 50 10 l 1,16,-1
 50 0 l 1,17,-1
 20 0 l 1,18,-1
 20 10 l 1,19,-1
 20 10 l 1,15,-1
EndSplineSet
EndChar

StartChar: P
Encoding: 80 80 49
Width: 60
VWidth: 73
GlyphClass: 1
Flags: W
LayerCount: 2
Fore
SplineSet
10 70 m 1,0,-1
 50 70 l 1,1,-1
 50 60 l 1,2,-1
 20 60 l 1,3,-1
 20 40 l 1,4,-1
 50 40 l 1,5,-1
 50 60 l 1,6,-1
 60 60 l 1,7,-1
 60 40 l 1,8,-1
 50 40 l 1,9,-1
 50 30 l 1,10,-1
 20 30 l 1,11,-1
 20 0 l 1,12,-1
 10 0 l 1,13,-1
 10 70 l 1,14,-1
 10 70 l 1,0,-1
EndSplineSet
EndChar

StartChar: Q
Encoding: 81 81 50
Width: 60
VWidth: 73
GlyphClass: 1
Flags: W
LayerCount: 2
Fore
SplineSet
20 70 m 1,0,-1
 50 70 l 1,1,-1
 50 60 l 1,2,-1
 20 60 l 1,3,-1
 20 70 l 1,4,-1
 20 70 l 1,0,-1
10 60 m 1,5,-1
 20 60 l 1,6,-1
 20 10 l 1,7,-1
 10 10 l 1,8,-1
 10 60 l 1,9,-1
 10 60 l 1,5,-1
50 60 m 1,10,-1
 60 60 l 1,11,-1
 60 20 l 1,12,-1
 50 20 l 1,13,-1
 50 60 l 1,14,-1
 50 60 l 1,10,-1
30 30 m 1,15,-1
 40 30 l 1,16,-1
 40 20 l 1,17,-1
 30 20 l 1,18,-1
 30 30 l 1,15,-1
40 20 m 1,19,-1
 50 20 l 1,20,-1
 50 10 l 1,21,-1
 40 10 l 1,22,-1
 40 20 l 1,23,-1
 40 20 l 1,19,-1
20 10 m 1,24,-1
 40 10 l 1,25,-1
 40 0 l 1,26,-1
 20 0 l 1,27,-1
 20 10 l 1,28,-1
 20 10 l 1,24,-1
50 10 m 1,29,-1
 60 10 l 1,30,-1
 60 0 l 1,31,-1
 50 0 l 1,32,-1
 50 10 l 1,33,-1
 50 10 l 1,29,-1
EndSplineSet
EndChar

StartChar: R
Encoding: 82 82 51
Width: 60
VWidth: 73
GlyphClass: 1
Flags: W
LayerCount: 2
Fore
SplineSet
10 70 m 1,0,-1
 50 70 l 1,1,-1
 50 60 l 1,2,-1
 20 60 l 1,3,-1
 20 40 l 1,4,-1
 50 40 l 1,5,-1
 50 60 l 1,6,-1
 60 60 l 1,7,-1
 60 40 l 1,8,-1
 50 40 l 1,9,-1
 50 20 l 1,10,-1
 40 20 l 1,11,-1
 40 30 l 1,12,-1
 20 30 l 1,13,-1
 20 0 l 1,14,-1
 10 0 l 1,15,-1
 10 70 l 1,16,-1
 10 70 l 1,0,-1
50 20 m 1,17,-1
 60 20 l 1,18,-1
 60 0 l 1,19,-1
 50 0 l 1,20,-1
 50 20 l 1,21,-1
 50 20 l 1,17,-1
EndSplineSet
EndChar

StartChar: S
Encoding: 83 83 52
Width: 60
VWidth: 73
GlyphClass: 1
Flags: W
LayerCount: 2
Fore
SplineSet
20 70 m 1,0,-1
 50 70 l 1,1,-1
 50 60 l 1,2,-1
 20 60 l 1,3,-1
 20 70 l 1,4,-1
 20 70 l 1,0,-1
10 60 m 1,5,-1
 20 60 l 1,6,-1
 20 40 l 1,7,-1
 10 40 l 1,8,-1
 10 60 l 1,5,-1
50 60 m 1,9,-1
 60 60 l 1,10,-1
 60 50 l 1,11,-1
 50 50 l 1,12,-1
 50 60 l 1,13,-1
 50 60 l 1,9,-1
20 40 m 1,14,-1
 50 40 l 1,15,-1
 50 30 l 1,16,-1
 20 30 l 1,17,-1
 20 40 l 1,18,-1
 20 40 l 1,14,-1
50 30 m 1,19,-1
 60 30 l 1,20,-1
 60 10 l 1,21,-1
 50 10 l 1,22,-1
 50 30 l 1,23,-1
 50 30 l 1,19,-1
10 20 m 1,24,-1
 20 20 l 1,25,-1
 20 10 l 1,26,-1
 10 10 l 1,27,-1
 10 20 l 1,28,-1
 10 20 l 1,24,-1
20 10 m 1,29,-1
 50 10 l 1,30,-1
 50 0 l 1,31,-1
 20 0 l 1,32,-1
 20 10 l 1,33,-1
 20 10 l 1,29,-1
EndSplineSet
EndChar

StartChar: T
Encoding: 84 84 53
Width: 60
VWidth: 73
GlyphClass: 1
Flags: W
LayerCount: 2
Fore
SplineSet
10 70 m 1,0,-1
 60 70 l 1,1,-1
 60 60 l 1,2,-1
 40 60 l 1,3,-1
 40 0 l 1,4,-1
 30 0 l 1,5,-1
 30 60 l 1,6,-1
 10 60 l 1,7,-1
 10 70 l 1,8,-1
 10 70 l 1,0,-1
EndSplineSet
EndChar

StartChar: U
Encoding: 85 85 54
Width: 60
VWidth: 73
GlyphClass: 1
Flags: W
LayerCount: 2
Fore
SplineSet
10 70 m 1,0,-1
 20 70 l 1,1,-1
 20 10 l 1,2,-1
 10 10 l 1,3,-1
 10 70 l 1,0,-1
50 70 m 1,4,-1
 60 70 l 1,5,-1
 60 10 l 1,6,-1
 50 10 l 1,7,-1
 50 70 l 1,8,-1
 50 70 l 1,4,-1
20 10 m 1,9,-1
 50 10 l 1,10,-1
 50 0 l 1,11,-1
 20 0 l 1,12,-1
 20 10 l 1,13,-1
 20 10 l 1,9,-1
EndSplineSet
EndChar

StartChar: V
Encoding: 86 86 55
Width: 60
VWidth: 73
GlyphClass: 1
Flags: W
LayerCount: 2
Fore
SplineSet
10 70 m 1,0,-1
 20 70 l 1,1,-1
 20 40 l 1,2,-1
 10 40 l 1,3,-1
 10 70 l 1,0,-1
50 70 m 1,4,-1
 60 70 l 1,5,-1
 60 40 l 1,6,-1
 50 40 l 1,7,-1
 50 70 l 1,8,-1
 50 70 l 1,4,-1
20 40 m 1,9,-1
 30 40 l 1,10,-1
 30 20 l 1,11,-1
 20 20 l 1,12,-1
 20 40 l 1,13,-1
 20 40 l 1,9,-1
40 40 m 1,14,-1
 50 40 l 1,15,-1
 50 20 l 1,16,-1
 40 20 l 1,17,-1
 40 40 l 1,18,-1
 40 40 l 1,14,-1
30 20 m 1,19,-1
 40 20 l 1,20,-1
 40 0 l 1,21,-1
 30 0 l 1,22,-1
 30 20 l 1,19,-1
EndSplineSet
EndChar

StartChar: W
Encoding: 87 87 56
Width: 60
VWidth: 73
GlyphClass: 1
Flags: W
LayerCount: 2
Fore
SplineSet
10 70 m 1,0,-1
 20 70 l 1,1,-1
 20 20 l 1,2,-1
 10 20 l 1,3,-1
 10 70 l 1,0,-1
50 70 m 1,4,-1
 60 70 l 1,5,-1
 60 20 l 1,6,-1
 50 20 l 1,7,-1
 50 70 l 1,8,-1
 50 70 l 1,4,-1
30 60 m 1,9,-1
 40 60 l 1,10,-1
 40 20 l 1,11,-1
 30 20 l 1,12,-1
 30 60 l 1,9,-1
20 20 m 1,13,-1
 30 20 l 1,14,-1
 30 0 l 1,15,-1
 20 0 l 1,16,-1
 20 20 l 1,13,-1
40 20 m 1,17,-1
 50 20 l 1,18,-1
 50 0 l 1,19,-1
 40 0 l 1,20,-1
 40 20 l 1,17,-1
EndSplineSet
EndChar

StartChar: X
Encoding: 88 88 57
Width: 60
VWidth: 73
GlyphClass: 1
Flags: W
LayerCount: 2
Fore
SplineSet
10 70 m 1,0,-1
 20 70 l 1,1,-1
 20 50 l 1,2,-1
 10 50 l 1,3,-1
 10 70 l 1,0,-1
50 70 m 1,4,-1
 60 70 l 1,5,-1
 60 50 l 1,6,-1
 50 50 l 1,7,-1
 50 70 l 1,8,-1
 50 70 l 1,4,-1
20 50 m 1,9,-1
 30 50 l 1,10,-1
 30 40 l 1,11,-1
 20 40 l 1,12,-1
 20 50 l 1,9,-1
40 50 m 1,13,-1
 50 50 l 1,14,-1
 50 40 l 1,15,-1
 40 40 l 1,16,-1
 40 50 l 1,13,-1
30 40 m 1,17,-1
 40 40 l 1,18,-1
 40 30 l 1,19,-1
 30 30 l 1,20,-1
 30 40 l 1,17,-1
20 30 m 1,21,-1
 30 30 l 1,22,-1
 30 20 l 1,23,-1
 20 20 l 1,24,-1
 20 30 l 1,21,-1
40 30 m 1,25,-1
 50 30 l 1,26,-1
 50 20 l 1,27,-1
 40 20 l 1,28,-1
 40 30 l 1,25,-1
10 20 m 1,29,-1
 20 20 l 1,30,-1
 20 0 l 1,31,-1
 10 0 l 1,32,-1
 10 20 l 1,29,-1
50 20 m 1,33,-1
 60 20 l 1,34,-1
 60 0 l 1,35,-1
 50 0 l 1,36,-1
 50 20 l 1,37,-1
 50 20 l 1,33,-1
EndSplineSet
EndChar

StartChar: Y
Encoding: 89 89 58
Width: 60
VWidth: 73
GlyphClass: 1
Flags: W
LayerCount: 2
Fore
SplineSet
10 70 m 1,0,-1
 20 70 l 1,1,-1
 20 50 l 1,2,-1
 10 50 l 1,3,-1
 10 70 l 1,0,-1
50 70 m 1,4,-1
 60 70 l 1,5,-1
 60 50 l 1,6,-1
 50 50 l 1,7,-1
 50 70 l 1,8,-1
 50 70 l 1,4,-1
20 50 m 1,9,-1
 30 50 l 1,10,-1
 30 40 l 1,11,-1
 20 40 l 1,12,-1
 20 50 l 1,9,-1
40 50 m 1,13,-1
 50 50 l 1,14,-1
 50 40 l 1,15,-1
 40 40 l 1,16,-1
 40 50 l 1,13,-1
30 40 m 1,17,-1
 40 40 l 1,18,-1
 40 0 l 1,19,-1
 30 0 l 1,20,-1
 30 40 l 1,17,-1
EndSplineSet
EndChar

StartChar: Z
Encoding: 90 90 59
Width: 60
VWidth: 73
GlyphClass: 1
Flags: W
LayerCount: 2
Fore
SplineSet
10 70 m 1,0,-1
 60 70 l 1,1,-1
 60 50 l 1,2,-1
 50 50 l 1,3,-1
 50 60 l 1,4,-1
 10 60 l 1,5,-1
 10 70 l 1,6,-1
 10 70 l 1,0,-1
40 50 m 1,7,-1
 50 50 l 1,8,-1
 50 40 l 1,9,-1
 40 40 l 1,10,-1
 40 50 l 1,7,-1
30 40 m 1,11,-1
 40 40 l 1,12,-1
 40 30 l 1,13,-1
 30 30 l 1,14,-1
 30 40 l 1,11,-1
20 30 m 1,15,-1
 30 30 l 1,16,-1
 30 20 l 1,17,-1
 20 20 l 1,18,-1
 20 30 l 1,15,-1
10 20 m 1,19,-1
 20 20 l 1,20,-1
 20 10 l 1,21,-1
 60 10 l 1,22,-1
 60 0 l 1,23,-1
 10 0 l 1,24,-1
 10 20 l 1,25,-1
 10 20 l 1,19,-1
EndSplineSet
EndChar

StartChar: bracketleft
Encoding: 91 91 60
Width: 60
VWidth: 73
GlyphClass: 1
Flags: W
LayerCount: 2
Fore
SplineSet
20 70 m 1,0,-1
 50 70 l 1,1,-1
 50 60 l 1,2,-1
 30 60 l 1,3,-1
 30 10 l 1,4,-1
 50 10 l 1,5,-1
 50 0 l 1,6,-1
 20 0 l 1,7,-1
 20 70 l 1,8,-1
 20 70 l 1,0,-1
EndSplineSet
EndChar

StartChar: bracketright
Encoding: 93 93 61
Width: 60
VWidth: 73
GlyphClass: 1
Flags: W
LayerCount: 2
Fore
SplineSet
20 70 m 1,0,-1
 50 70 l 1,1,-1
 50 0 l 1,2,-1
 20 0 l 1,3,-1
 20 10 l 1,4,-1
 40 10 l 1,5,-1
 40 60 l 1,6,-1
 20 60 l 1,7,-1
 20 70 l 1,8,-1
 20 70 l 1,0,-1
EndSplineSet
EndChar

StartChar: asciicircum
Encoding: 94 94 62
Width: 60
VWidth: 73
GlyphClass: 1
Flags: W
LayerCount: 2
Fore
SplineSet
30 70 m 1,0,-1
 40 70 l 1,1,-1
 40 60 l 1,2,-1
 30 60 l 1,3,-1
 30 70 l 1,0,-1
20 60 m 1,4,-1
 30 60 l 1,5,-1
 30 50 l 1,6,-1
 20 50 l 1,7,-1
 20 60 l 1,4,-1
40 60 m 1,8,-1
 50 60 l 1,9,-1
 50 50 l 1,10,-1
 40 50 l 1,11,-1
 40 60 l 1,8,-1
10 50 m 1,12,-1
 20 50 l 1,13,-1
 20 40 l 1,14,-1
 10 40 l 1,15,-1
 10 50 l 1,12,-1
50 50 m 1,16,-1
 60 50 l 1,17,-1
 60 40 l 1,18,-1
 50 40 l 1,19,-1
 50 50 l 1,20,-1
 50 50 l 1,16,-1
EndSplineSet
EndChar

StartChar: underscore
Encoding: 95 95 63
Width: 60
VWidth: 73
GlyphClass: 1
Flags: W
LayerCount: 2
Fore
SplineSet
10 10 m 1,0,-1
 60 10 l 1,1,-1
 60 0 l 1,2,-1
 10 0 l 1,3,-1
 10 10 l 1,4,-1
 10 10 l 1,0,-1
EndSplineSet
EndChar

StartChar: a
Encoding: 97 97 64
Width: 60
VWidth: 73
GlyphClass: 1
Flags: W
LayerCount: 2
Fore
SplineSet
20 50 m 1,0,-1
 50 50 l 1,1,-1
 50 40 l 1,2,-1
 20 40 l 1,3,-1
 20 50 l 1,4,-1
 20 50 l 1,0,-1
50 40 m 1,5,-1
 60 40 l 1,6,-1
 60 0 l 1,7,-1
 20 0 l 1,8,-1
 20 10 l 1,9,-1
 10 10 l 1,10,-1
 10 20 l 1,11,-1
 20 20 l 1,12,-1
 20 30 l 1,13,-1
 50 30 l 1,14,-1
 50 40 l 1,15,-1
 50 40 l 1,5,-1
30 20 m 1,16,-1
 20 20 l 1,17,-1
 20 10 l 1,18,-1
 50 10 l 1,19,-1
 50 20 l 1,20,-1
 30 20 l 1,21,-1
 30 20 l 1,16,-1
EndSplineSet
EndChar

StartChar: b
Encoding: 98 98 65
Width: 60
VWidth: 73
GlyphClass: 1
Flags: W
LayerCount: 2
Fore
SplineSet
10 70 m 1,0,-1
 20 70 l 1,1,-1
 20 40 l 1,2,-1
 30 40 l 1,3,-1
 30 50 l 1,4,-1
 50 50 l 1,5,-1
 50 40 l 1,6,-1
 30 40 l 1,7,-1
 30 30 l 1,8,-1
 20 30 l 1,9,-1
 20 10 l 1,10,-1
 50 10 l 1,11,-1
 50 40 l 1,12,-1
 60 40 l 1,13,-1
 60 10 l 1,14,-1
 50 10 l 1,15,-1
 50 0 l 1,16,-1
 10 0 l 1,17,-1
 10 70 l 1,18,-1
 10 70 l 1,0,-1
EndSplineSet
EndChar

StartChar: c
Encoding: 99 99 66
Width: 60
VWidth: 73
GlyphClass: 1
Flags: W
LayerCount: 2
Fore
SplineSet
20 50 m 1,0,-1
 50 50 l 1,1,-1
 50 40 l 1,2,-1
 20 40 l 1,3,-1
 20 50 l 1,4,-1
 20 50 l 1,0,-1
10 40 m 1,5,-1
 20 40 l 1,6,-1
 20 10 l 1,7,-1
 10 10 l 1,8,-1
 10 40 l 1,5,-1
50 20 m 1,9,-1
 60 20 l 1,10,-1
 60 10 l 1,11,-1
 50 10 l 1,12,-1
 50 20 l 1,13,-1
 50 20 l 1,9,-1
20 10 m 1,14,-1
 50 10 l 1,15,-1
 50 0 l 1,16,-1
 20 0 l 1,17,-1
 20 10 l 1,18,-1
 20 10 l 1,14,-1
EndSplineSet
EndChar

StartChar: d
Encoding: 100 100 67
Width: 60
VWidth: 73
GlyphClass: 1
Flags: W
LayerCount: 2
Fore
SplineSet
50 70 m 1,0,-1
 60 70 l 1,1,-1
 60 0 l 1,2,-1
 20 0 l 1,3,-1
 20 10 l 1,4,-1
 10 10 l 1,5,-1
 10 40 l 1,6,-1
 20 40 l 1,7,-1
 20 50 l 1,8,-1
 40 50 l 1,9,-1
 40 40 l 1,10,-1
 20 40 l 1,11,-1
 20 10 l 1,12,-1
 50 10 l 1,13,-1
 50 30 l 1,14,-1
 40 30 l 1,15,-1
 40 40 l 1,16,-1
 50 40 l 1,17,-1
 50 70 l 1,18,-1
 50 70 l 1,0,-1
EndSplineSet
EndChar

StartChar: e
Encoding: 101 101 68
Width: 60
VWidth: 73
GlyphClass: 1
Flags: W
LayerCount: 2
Fore
SplineSet
20 50 m 1,0,-1
 50 50 l 1,1,-1
 50 40 l 1,2,-1
 20 40 l 1,3,-1
 20 50 l 1,4,-1
 20 50 l 1,0,-1
10 40 m 1,5,-1
 20 40 l 1,6,-1
 20 30 l 1,7,-1
 50 30 l 1,8,-1
 50 40 l 1,9,-1
 60 40 l 1,10,-1
 60 20 l 1,11,-1
 20 20 l 1,12,-1
 20 10 l 1,13,-1
 10 10 l 1,14,-1
 10 40 l 1,15,-1
 10 40 l 1,5,-1
20 10 m 1,16,-1
 50 10 l 1,17,-1
 50 0 l 1,18,-1
 20 0 l 1,19,-1
 20 10 l 1,20,-1
 20 10 l 1,16,-1
EndSplineSet
EndChar

StartChar: f
Encoding: 102 102 69
Width: 60
VWidth: 73
GlyphClass: 1
Flags: W
LayerCount: 2
Fore
SplineSet
40 70 m 1,0,-1
 60 70 l 1,1,-1
 60 60 l 1,2,-1
 40 60 l 1,3,-1
 40 70 l 1,0,-1
30 60 m 1,4,-1
 40 60 l 1,5,-1
 40 50 l 1,6,-1
 50 50 l 1,7,-1
 50 40 l 1,8,-1
 40 40 l 1,9,-1
 40 0 l 1,10,-1
 30 0 l 1,11,-1
 30 40 l 1,12,-1
 20 40 l 1,13,-1
 20 50 l 1,14,-1
 30 50 l 1,15,-1
 30 60 l 1,16,-1
 30 60 l 1,4,-1
EndSplineSet
EndChar

StartChar: g
Encoding: 103 103 70
Width: 60
VWidth: 73
GlyphClass: 1
Flags: W
LayerCount: 2
Fore
SplineSet
20 50 m 1,0,-1
 60 50 l 1,1,-1
 60 10 l 1,2,-1
 50 10 l 1,3,-1
 50 20 l 1,4,-1
 20 20 l 1,5,-1
 20 30 l 1,6,-1
 10 30 l 1,7,-1
 10 40 l 1,8,-1
 20 40 l 1,9,-1
 20 50 l 1,10,-1
 20 50 l 1,0,-1
30 40 m 1,11,-1
 20 40 l 1,12,-1
 20 30 l 1,13,-1
 50 30 l 1,14,-1
 50 40 l 1,15,-1
 30 40 l 1,16,-1
 30 40 l 1,11,-1
20 10 m 1,17,-1
 50 10 l 1,18,-1
 50 0 l 1,19,-1
 20 0 l 1,20,-1
 20 10 l 1,21,-1
 20 10 l 1,17,-1
EndSplineSet
EndChar

StartChar: h
Encoding: 104 104 71
Width: 60
VWidth: 73
GlyphClass: 1
Flags: W
LayerCount: 2
Fore
SplineSet
10 70 m 1,0,-1
 20 70 l 1,1,-1
 20 40 l 1,2,-1
 30 40 l 1,3,-1
 30 50 l 1,4,-1
 50 50 l 1,5,-1
 50 40 l 1,6,-1
 30 40 l 1,7,-1
 30 30 l 1,8,-1
 20 30 l 1,9,-1
 20 0 l 1,10,-1
 10 0 l 1,11,-1
 10 70 l 1,12,-1
 10 70 l 1,0,-1
50 40 m 1,13,-1
 60 40 l 1,14,-1
 60 0 l 1,15,-1
 50 0 l 1,16,-1
 50 40 l 1,17,-1
 50 40 l 1,13,-1
EndSplineSet
EndChar

StartChar: i
Encoding: 105 105 72
Width: 60
VWidth: 73
GlyphClass: 1
Flags: W
LayerCount: 2
Fore
SplineSet
30 70 m 1,0,-1
 40 70 l 1,1,-1
 40 60 l 1,2,-1
 30 60 l 1,3,-1
 30 70 l 1,0,-1
20 50 m 1,4,-1
 40 50 l 1,5,-1
 40 10 l 1,6,-1
 50 10 l 1,7,-1
 50 0 l 1,8,-1
 20 0 l 1,9,-1
 20 10 l 1,10,-1
 30 10 l 1,11,-1
 30 40 l 1,12,-1
 20 40 l 1,13,-1
 20 50 l 1,14,-1
 20 50 l 1,4,-1
EndSplineSet
EndChar

StartChar: j
Encoding: 106 106 73
Width: 60
VWidth: 73
GlyphClass: 1
Flags: W
LayerCount: 2
Fore
SplineSet
40 70 m 1,0,-1
 50 70 l 1,1,-1
 50 60 l 1,2,-1
 40 60 l 1,3,-1
 40 70 l 1,0,-1
30 50 m 1,4,-1
 50 50 l 1,5,-1
 50 10 l 1,6,-1
 40 10 l 1,7,-1
 40 40 l 1,8,-1
 30 40 l 1,9,-1
 30 50 l 1,10,-1
 30 50 l 1,4,-1
10 20 m 1,11,-1
 20 20 l 1,12,-1
 20 10 l 1,13,-1
 10 10 l 1,14,-1
 10 20 l 1,15,-1
 10 20 l 1,11,-1
20 10 m 1,16,-1
 40 10 l 1,17,-1
 40 0 l 1,18,-1
 20 0 l 1,19,-1
 20 10 l 1,20,-1
 20 10 l 1,16,-1
EndSplineSet
EndChar

StartChar: k
Encoding: 107 107 74
Width: 60
VWidth: 73
GlyphClass: 1
Flags: W
LayerCount: 2
Fore
SplineSet
20 70 m 1,0,-1
 30 70 l 1,1,-1
 30 30 l 1,2,-1
 40 30 l 1,3,-1
 40 40 l 1,4,-1
 50 40 l 1,5,-1
 50 50 l 1,6,-1
 60 50 l 1,7,-1
 60 40 l 1,8,-1
 50 40 l 1,9,-1
 50 30 l 1,10,-1
 40 30 l 1,11,-1
 40 20 l 1,12,-1
 30 20 l 1,13,-1
 30 0 l 1,14,-1
 20 0 l 1,15,-1
 20 70 l 1,0,-1
40 20 m 1,16,-1
 50 20 l 1,17,-1
 50 10 l 1,18,-1
 40 10 l 1,19,-1
 40 20 l 1,20,-1
 40 20 l 1,16,-1
50 10 m 1,21,-1
 60 10 l 1,22,-1
 60 0 l 1,23,-1
 50 0 l 1,24,-1
 50 10 l 1,25,-1
 50 10 l 1,21,-1
EndSplineSet
EndChar

StartChar: l
Encoding: 108 108 75
Width: 60
VWidth: 73
GlyphClass: 1
Flags: W
LayerCount: 2
Fore
SplineSet
20 70 m 1,0,-1
 40 70 l 1,1,-1
 40 10 l 1,2,-1
 50 10 l 1,3,-1
 50 0 l 1,4,-1
 20 0 l 1,5,-1
 20 10 l 1,6,-1
 30 10 l 1,7,-1
 30 60 l 1,8,-1
 20 60 l 1,9,-1
 20 70 l 1,10,-1
 20 70 l 1,0,-1
EndSplineSet
EndChar

StartChar: m
Encoding: 109 109 76
Width: 60
VWidth: 73
GlyphClass: 1
Flags: W
LayerCount: 2
Fore
SplineSet
10 50 m 1,0,-1
 30 50 l 1,1,-1
 30 40 l 1,2,-1
 20 40 l 1,3,-1
 20 0 l 1,4,-1
 10 0 l 1,5,-1
 10 50 l 1,6,-1
 10 50 l 1,0,-1
40 50 m 1,7,-1
 50 50 l 1,8,-1
 50 40 l 1,9,-1
 40 40 l 1,10,-1
 40 50 l 1,7,-1
30 40 m 1,11,-1
 40 40 l 1,12,-1
 40 0 l 1,13,-1
 30 0 l 1,14,-1
 30 40 l 1,11,-1
50 40 m 1,15,-1
 60 40 l 1,16,-1
 60 0 l 1,17,-1
 50 0 l 1,18,-1
 50 40 l 1,19,-1
 50 40 l 1,15,-1
EndSplineSet
EndChar

StartChar: n
Encoding: 110 110 77
Width: 60
VWidth: 73
GlyphClass: 1
Flags: W
LayerCount: 2
Fore
SplineSet
10 50 m 1,0,-1
 20 50 l 1,1,-1
 20 40 l 1,2,-1
 30 40 l 1,3,-1
 30 50 l 1,4,-1
 50 50 l 1,5,-1
 50 40 l 1,6,-1
 30 40 l 1,7,-1
 30 30 l 1,8,-1
 20 30 l 1,9,-1
 20 0 l 1,10,-1
 10 0 l 1,11,-1
 10 50 l 1,12,-1
 10 50 l 1,0,-1
50 40 m 1,13,-1
 60 40 l 1,14,-1
 60 0 l 1,15,-1
 50 0 l 1,16,-1
 50 40 l 1,17,-1
 50 40 l 1,13,-1
EndSplineSet
EndChar

StartChar: o
Encoding: 111 111 78
Width: 60
VWidth: 73
GlyphClass: 1
Flags: W
LayerCount: 2
Fore
SplineSet
20 50 m 1,0,-1
 50 50 l 1,1,-1
 50 40 l 1,2,-1
 20 40 l 1,3,-1
 20 50 l 1,4,-1
 20 50 l 1,0,-1
10 40 m 1,5,-1
 20 40 l 1,6,-1
 20 10 l 1,7,-1
 10 10 l 1,8,-1
 10 40 l 1,5,-1
50 40 m 1,9,-1
 60 40 l 1,10,-1
 60 10 l 1,11,-1
 50 10 l 1,12,-1
 50 40 l 1,13,-1
 50 40 l 1,9,-1
20 10 m 1,14,-1
 50 10 l 1,15,-1
 50 0 l 1,16,-1
 20 0 l 1,17,-1
 20 10 l 1,18,-1
 20 10 l 1,14,-1
EndSplineSet
EndChar

StartChar: p
Encoding: 112 112 79
Width: 60
VWidth: 73
GlyphClass: 1
Flags: W
LayerCount: 2
Fore
SplineSet
10 50 m 1,0,-1
 50 50 l 1,1,-1
 50 40 l 1,2,-1
 20 40 l 1,3,-1
 20 30 l 1,4,-1
 30 30 l 1,5,-1
 30 20 l 1,6,-1
 20 20 l 1,7,-1
 20 0 l 1,8,-1
 10 0 l 1,9,-1
 10 50 l 1,10,-1
 10 50 l 1,0,-1
50 40 m 1,11,-1
 60 40 l 1,12,-1
 60 20 l 1,13,-1
 50 20 l 1,14,-1
 50 40 l 1,15,-1
 50 40 l 1,11,-1
30 20 m 1,16,-1
 50 20 l 1,17,-1
 50 10 l 1,18,-1
 30 10 l 1,19,-1
 30 20 l 1,20,-1
 30 20 l 1,16,-1
EndSplineSet
EndChar

StartChar: q
Encoding: 113 113 80
Width: 60
VWidth: 73
GlyphClass: 1
Flags: W
LayerCount: 2
Fore
SplineSet
20 50 m 1,0,-1
 60 50 l 1,1,-1
 60 0 l 1,2,-1
 50 0 l 1,3,-1
 50 20 l 1,4,-1
 40 20 l 1,5,-1
 40 30 l 1,6,-1
 50 30 l 1,7,-1
 50 40 l 1,8,-1
 20 40 l 1,9,-1
 20 50 l 1,10,-1
 20 50 l 1,0,-1
10 40 m 1,11,-1
 20 40 l 1,12,-1
 20 20 l 1,13,-1
 10 20 l 1,14,-1
 10 40 l 1,15,-1
 10 40 l 1,11,-1
20 20 m 1,16,-1
 40 20 l 1,17,-1
 40 10 l 1,18,-1
 20 10 l 1,19,-1
 20 20 l 1,20,-1
 20 20 l 1,16,-1
EndSplineSet
EndChar

StartChar: r
Encoding: 114 114 81
Width: 60
VWidth: 73
GlyphClass: 1
Flags: W
LayerCount: 2
Fore
SplineSet
10 50 m 1,0,-1
 20 50 l 1,1,-1
 20 40 l 1,2,-1
 30 40 l 1,3,-1
 30 50 l 1,4,-1
 50 50 l 1,5,-1
 50 40 l 1,6,-1
 30 40 l 1,7,-1
 30 30 l 1,8,-1
 20 30 l 1,9,-1
 20 0 l 1,10,-1
 10 0 l 1,11,-1
 10 50 l 1,12,-1
 10 50 l 1,0,-1
50 40 m 1,13,-1
 60 40 l 1,14,-1
 60 30 l 1,15,-1
 50 30 l 1,16,-1
 50 40 l 1,17,-1
 50 40 l 1,13,-1
EndSplineSet
EndChar

StartChar: s
Encoding: 115 115 82
Width: 60
VWidth: 73
GlyphClass: 1
Flags: W
LayerCount: 2
Fore
SplineSet
20 50 m 1,0,-1
 60 50 l 1,1,-1
 60 40 l 1,2,-1
 20 40 l 1,3,-1
 20 50 l 1,0,-1
10 40 m 1,4,-1
 20 40 l 1,5,-1
 20 30 l 1,6,-1
 10 30 l 1,7,-1
 10 40 l 1,4,-1
20 30 m 1,8,-1
 50 30 l 1,9,-1
 50 20 l 1,10,-1
 20 20 l 1,11,-1
 20 30 l 1,12,-1
 20 30 l 1,8,-1
50 20 m 1,13,-1
 60 20 l 1,14,-1
 60 10 l 1,15,-1
 50 10 l 1,16,-1
 50 20 l 1,17,-1
 50 20 l 1,13,-1
10 10 m 1,18,-1
 50 10 l 1,19,-1
 50 0 l 1,20,-1
 10 0 l 1,21,-1
 10 10 l 1,22,-1
 10 10 l 1,18,-1
EndSplineSet
EndChar

StartChar: t
Encoding: 116 116 83
Width: 60
VWidth: 73
GlyphClass: 1
Flags: W
LayerCount: 2
Fore
SplineSet
20 70 m 1,0,-1
 30 70 l 1,1,-1
 30 50 l 1,2,-1
 50 50 l 1,3,-1
 50 40 l 1,4,-1
 30 40 l 1,5,-1
 30 10 l 1,6,-1
 20 10 l 1,7,-1
 20 40 l 1,8,-1
 10 40 l 1,9,-1
 10 50 l 1,10,-1
 20 50 l 1,11,-1
 20 70 l 1,12,-1
 20 70 l 1,0,-1
50 20 m 1,13,-1
 60 20 l 1,14,-1
 60 10 l 1,15,-1
 50 10 l 1,16,-1
 50 20 l 1,17,-1
 50 20 l 1,13,-1
30 10 m 1,18,-1
 50 10 l 1,19,-1
 50 0 l 1,20,-1
 30 0 l 1,21,-1
 30 10 l 1,22,-1
 30 10 l 1,18,-1
EndSplineSet
EndChar

StartChar: u
Encoding: 117 117 84
Width: 60
VWidth: 73
GlyphClass: 1
Flags: W
LayerCount: 2
Fore
SplineSet
10 50 m 1,0,-1
 20 50 l 1,1,-1
 20 10 l 1,2,-1
 10 10 l 1,3,-1
 10 50 l 1,0,-1
50 50 m 1,4,-1
 60 50 l 1,5,-1
 60 0 l 1,6,-1
 50 0 l 1,7,-1
 50 10 l 1,8,-1
 40 10 l 1,9,-1
 40 20 l 1,10,-1
 50 20 l 1,11,-1
 50 50 l 1,12,-1
 50 50 l 1,4,-1
20 10 m 1,13,-1
 40 10 l 1,14,-1
 40 0 l 1,15,-1
 20 0 l 1,16,-1
 20 10 l 1,17,-1
 20 10 l 1,13,-1
EndSplineSet
EndChar

StartChar: v
Encoding: 118 118 85
Width: 60
VWidth: 73
GlyphClass: 1
Flags: W
LayerCount: 2
Fore
SplineSet
10 50 m 1,0,-1
 20 50 l 1,1,-1
 20 30 l 1,2,-1
 10 30 l 1,3,-1
 10 50 l 1,0,-1
50 50 m 1,4,-1
 60 50 l 1,5,-1
 60 30 l 1,6,-1
 50 30 l 1,7,-1
 50 50 l 1,8,-1
 50 50 l 1,4,-1
20 30 m 1,9,-1
 30 30 l 1,10,-1
 30 10 l 1,11,-1
 20 10 l 1,12,-1
 20 30 l 1,9,-1
40 30 m 1,13,-1
 50 30 l 1,14,-1
 50 10 l 1,15,-1
 40 10 l 1,16,-1
 40 30 l 1,13,-1
30 10 m 1,17,-1
 40 10 l 1,18,-1
 40 0 l 1,19,-1
 30 0 l 1,20,-1
 30 10 l 1,21,-1
 30 10 l 1,17,-1
EndSplineSet
EndChar

StartChar: w
Encoding: 119 119 86
Width: 60
VWidth: 73
GlyphClass: 1
Flags: W
LayerCount: 2
Fore
SplineSet
10 50 m 1,0,-1
 20 50 l 1,1,-1
 20 10 l 1,2,-1
 10 10 l 1,3,-1
 10 50 l 1,0,-1
50 50 m 1,4,-1
 60 50 l 1,5,-1
 60 10 l 1,6,-1
 50 10 l 1,7,-1
 50 50 l 1,8,-1
 50 50 l 1,4,-1
30 40 m 1,9,-1
 40 40 l 1,10,-1
 40 10 l 1,11,-1
 30 10 l 1,12,-1
 30 40 l 1,9,-1
20 10 m 1,13,-1
 30 10 l 1,14,-1
 30 0 l 1,15,-1
 20 0 l 1,16,-1
 20 10 l 1,17,-1
 20 10 l 1,13,-1
40 10 m 1,18,-1
 50 10 l 1,19,-1
 50 0 l 1,20,-1
 40 0 l 1,21,-1
 40 10 l 1,22,-1
 40 10 l 1,18,-1
EndSplineSet
EndChar

StartChar: x
Encoding: 120 120 87
Width: 60
VWidth: 73
GlyphClass: 1
Flags: W
LayerCount: 2
Fore
SplineSet
10 50 m 1,0,-1
 20 50 l 1,1,-1
 20 40 l 1,2,-1
 10 40 l 1,3,-1
 10 50 l 1,0,-1
50 50 m 1,4,-1
 60 50 l 1,5,-1
 60 40 l 1,6,-1
 50 40 l 1,7,-1
 50 50 l 1,8,-1
 50 50 l 1,4,-1
20 40 m 1,9,-1
 30 40 l 1,10,-1
 30 30 l 1,11,-1
 20 30 l 1,12,-1
 20 40 l 1,9,-1
40 40 m 1,13,-1
 50 40 l 1,14,-1
 50 30 l 1,15,-1
 40 30 l 1,16,-1
 40 40 l 1,13,-1
30 30 m 1,17,-1
 40 30 l 1,18,-1
 40 20 l 1,19,-1
 30 20 l 1,20,-1
 30 30 l 1,17,-1
20 20 m 1,21,-1
 30 20 l 1,22,-1
 30 10 l 1,23,-1
 20 10 l 1,24,-1
 20 20 l 1,25,-1
 20 20 l 1,21,-1
40 20 m 1,26,-1
 50 20 l 1,27,-1
 50 10 l 1,28,-1
 40 10 l 1,29,-1
 40 20 l 1,30,-1
 40 20 l 1,26,-1
10 10 m 1,31,-1
 20 10 l 1,32,-1
 20 0 l 1,33,-1
 10 0 l 1,34,-1
 10 10 l 1,35,-1
 10 10 l 1,31,-1
50 10 m 1,36,-1
 60 10 l 1,37,-1
 60 0 l 1,38,-1
 50 0 l 1,39,-1
 50 10 l 1,40,-1
 50 10 l 1,36,-1
EndSplineSet
EndChar

StartChar: y
Encoding: 121 121 88
Width: 60
VWidth: 73
GlyphClass: 1
Flags: W
LayerCount: 2
Fore
SplineSet
10 50 m 1,0,-1
 20 50 l 1,1,-1
 20 30 l 1,2,-1
 10 30 l 1,3,-1
 10 50 l 1,0,-1
50 50 m 1,4,-1
 60 50 l 1,5,-1
 60 30 l 1,6,-1
 50 30 l 1,7,-1
 50 50 l 1,8,-1
 50 50 l 1,4,-1
20 30 m 1,9,-1
 30 30 l 1,10,-1
 30 20 l 1,11,-1
 20 20 l 1,12,-1
 20 30 l 1,9,-1
40 30 m 1,13,-1
 50 30 l 1,14,-1
 50 20 l 1,15,-1
 40 20 l 1,16,-1
 40 30 l 1,13,-1
30 20 m 1,17,-1
 40 20 l 1,18,-1
 40 10 l 1,19,-1
 30 10 l 1,20,-1
 30 20 l 1,21,-1
 30 20 l 1,17,-1
10 10 m 1,22,-1
 30 10 l 1,23,-1
 30 0 l 1,24,-1
 10 0 l 1,25,-1
 10 10 l 1,26,-1
 10 10 l 1,22,-1
EndSplineSet
EndChar

StartChar: z
Encoding: 122 122 89
Width: 60
VWidth: 73
GlyphClass: 1
Flags: W
LayerCount: 2
Fore
SplineSet
10 50 m 1,0,-1
 60 50 l 1,1,-1
 60 40 l 1,2,-1
 50 40 l 1,3,-1
 50 30 l 1,4,-1
 40 30 l 1,5,-1
 40 40 l 1,6,-1
 10 40 l 1,7,-1
 10 50 l 1,8,-1
 10 50 l 1,0,-1
30 30 m 1,9,-1
 40 30 l 1,10,-1
 40 20 l 1,11,-1
 30 20 l 1,12,-1
 30 30 l 1,9,-1
20 20 m 1,13,-1
 30 20 l 1,14,-1
 30 10 l 1,15,-1
 60 10 l 1,16,-1
 60 0 l 1,17,-1
 10 0 l 1,18,-1
 10 10 l 1,19,-1
 20 10 l 1,20,-1
 20 20 l 1,21,-1
 20 20 l 1,13,-1
EndSplineSet
EndChar

StartChar: braceleft
Encoding: 123 123 90
Width: 60
VWidth: 73
GlyphClass: 1
Flags: W
LayerCount: 2
Fore
SplineSet
40 70 m 1,0,-1
 60 70 l 1,1,-1
 60 60 l 1,2,-1
 40 60 l 1,3,-1
 40 70 l 1,0,-1
30 60 m 1,4,-1
 40 60 l 1,5,-1
 40 40 l 1,6,-1
 30 40 l 1,7,-1
 30 60 l 1,4,-1
20 40 m 1,8,-1
 30 40 l 1,9,-1
 30 30 l 1,10,-1
 20 30 l 1,11,-1
 20 40 l 1,8,-1
30 30 m 1,12,-1
 40 30 l 1,13,-1
 40 10 l 1,14,-1
 30 10 l 1,15,-1
 30 30 l 1,12,-1
40 10 m 1,16,-1
 60 10 l 1,17,-1
 60 0 l 1,18,-1
 40 0 l 1,19,-1
 40 10 l 1,20,-1
 40 10 l 1,16,-1
EndSplineSet
EndChar

StartChar: bar
Encoding: 124 124 91
Width: 60
VWidth: 73
GlyphClass: 1
Flags: W
LayerCount: 2
Fore
SplineSet
30 70 m 1,0,-1
 40 70 l 1,1,-1
 40 0 l 1,2,-1
 30 0 l 1,3,-1
 30 70 l 1,0,-1
EndSplineSet
EndChar

StartChar: braceright
Encoding: 125 125 92
Width: 60
VWidth: 73
GlyphClass: 1
Flags: W
LayerCount: 2
Fore
SplineSet
10 70 m 1,0,-1
 30 70 l 1,1,-1
 30 60 l 1,2,-1
 10 60 l 1,3,-1
 10 70 l 1,0,-1
30 60 m 1,4,-1
 40 60 l 1,5,-1
 40 40 l 1,6,-1
 30 40 l 1,7,-1
 30 60 l 1,4,-1
40 40 m 1,8,-1
 50 40 l 1,9,-1
 50 30 l 1,10,-1
 40 30 l 1,11,-1
 40 40 l 1,8,-1
30 30 m 1,12,-1
 40 30 l 1,13,-1
 40 10 l 1,14,-1
 30 10 l 1,15,-1
 30 30 l 1,12,-1
10 10 m 1,16,-1
 30 10 l 1,17,-1
 30 0 l 1,18,-1
 10 0 l 1,19,-1
 10 10 l 1,20,-1
 10 10 l 1,16,-1
EndSplineSet
EndChar

StartChar: asciitilde
Encoding: 126 126 93
Width: 60
VWidth: 73
GlyphClass: 1
Flags: W
LayerCount: 2
Fore
SplineSet
20 50 m 1,0,-1
 30 50 l 1,1,-1
 30 40 l 1,2,-1
 20 40 l 1,3,-1
 20 50 l 1,0,-1
10 40 m 1,4,-1
 20 40 l 1,5,-1
 20 30 l 1,6,-1
 10 30 l 1,7,-1
 10 40 l 1,4,-1
30 40 m 1,8,-1
 40 40 l 1,9,-1
 40 30 l 1,10,-1
 30 30 l 1,11,-1
 30 40 l 1,8,-1
50 40 m 1,12,-1
 60 40 l 1,13,-1
 60 30 l 1,14,-1
 50 30 l 1,15,-1
 50 40 l 1,16,-1
 50 40 l 1,12,-1
40 30 m 1,17,-1
 50 30 l 1,18,-1
 50 20 l 1,19,-1
 40 20 l 1,20,-1
 40 30 l 1,17,-1
EndSplineSet
EndChar

StartChar: degree
Encoding: 176 176 94
Width: 60
VWidth: 73
GlyphClass: 1
Flags: W
LayerCount: 2
Fore
SplineSet
20 70 m 1,0,-1
 40 70 l 1,1,-1
 40 60 l 1,2,-1
 20 60 l 1,3,-1
 20 70 l 1,0,-1
10 60 m 1,4,-1
 20 60 l 1,5,-1
 20 40 l 1,6,-1
 10 40 l 1,7,-1
 10 60 l 1,4,-1
40 60 m 1,8,-1
 50 60 l 1,9,-1
 50 40 l 1,10,-1
 40 40 l 1,11,-1
 40 60 l 1,8,-1
20 40 m 1,12,-1
 40 40 l 1,13,-1
 40 30 l 1,14,-1
 20 30 l 1,15,-1
 20 40 l 1,12,-1
EndSplineSet
EndChar

StartChar: uni00B2
Encoding: 178 178 95
Width: 60
VWidth: 73
GlyphClass: 1
Flags: W
LayerCount: 2
Fore
SplineSet
20 70 m 1,0,-1
 40 70 l 1,1,-1
 40 60 l 1,2,-1
 20 60 l 1,3,-1
 20 70 l 1,0,-1
10 60 m 1,4,-1
 20 60 l 1,5,-1
 20 50 l 1,6,-1
 10 50 l 1,7,-1
 10 60 l 1,4,-1
40 60 m 1,8,-1
 50 60 l 1,9,-1
 50 50 l 1,10,-1
 40 50 l 1,11,-1
 40 60 l 1,8,-1
30 50 m 1,12,-1
 40 50 l 1,13,-1
 40 40 l 1,14,-1
 30 40 l 1,15,-1
 30 50 l 1,12,-1
20 40 m 1,16,-1
 30 40 l 1,17,-1
 30 30 l 1,18,-1
 50 30 l 1,19,-1
 50 20 l 1,20,-1
 10 20 l 1,21,-1
 10 30 l 1,22,-1
 20 30 l 1,23,-1
 20 40 l 1,24,-1
 20 40 l 1,16,-1
EndSplineSet
EndChar

StartChar: uni00B3
Encoding: 179 179 96
Width: 60
VWidth: 73
GlyphClass: 1
Flags: W
LayerCount: 2
Fore
SplineSet
20 70 m 1,0,-1
 40 70 l 1,1,-1
 40 60 l 1,2,-1
 20 60 l 1,3,-1
 20 70 l 1,0,-1
10 60 m 1,4,-1
 20 60 l 1,5,-1
 20 50 l 1,6,-1
 10 50 l 1,7,-1
 10 60 l 1,4,-1
40 60 m 1,8,-1
 50 60 l 1,9,-1
 50 50 l 1,10,-1
 40 50 l 1,11,-1
 40 60 l 1,8,-1
30 50 m 1,12,-1
 40 50 l 1,13,-1
 40 40 l 1,14,-1
 30 40 l 1,15,-1
 30 50 l 1,12,-1
10 40 m 1,16,-1
 20 40 l 1,17,-1
 20 30 l 1,18,-1
 10 30 l 1,19,-1
 10 40 l 1,16,-1
40 40 m 1,20,-1
 50 40 l 1,21,-1
 50 30 l 1,22,-1
 40 30 l 1,23,-1
 40 40 l 1,20,-1
20 30 m 1,24,-1
 40 30 l 1,25,-1
 40 20 l 1,26,-1
 20 20 l 1,27,-1
 20 30 l 1,24,-1
EndSplineSet
EndChar

StartChar: uni00B9
Encoding: 185 185 97
Width: 60
VWidth: 73
GlyphClass: 1
Flags: W
LayerCount: 2
Fore
SplineSet
20 70 m 1,0,-1
 30 70 l 1,1,-1
 30 30 l 1,2,-1
 40 30 l 1,3,-1
 40 20 l 1,4,-1
 10 20 l 1,5,-1
 10 30 l 1,6,-1
 20 30 l 1,7,-1
 20 50 l 1,8,-1
 10 50 l 1,9,-1
 10 60 l 1,10,-1
 20 60 l 1,11,-1
 20 70 l 1,12,-1
 20 70 l 1,0,-1
EndSplineSet
EndChar

StartChar: multiply
Encoding: 215 215 98
Width: 60
VWidth: 73
GlyphClass: 1
Flags: W
LayerCount: 2
Fore
SplineSet
10 60 m 1,0,-1
 20 60 l 1,1,-1
 20 50 l 1,2,-1
 10 50 l 1,3,-1
 10 60 l 1,0,-1
50 60 m 1,4,-1
 60 60 l 1,5,-1
 60 50 l 1,6,-1
 50 50 l 1,7,-1
 50 60 l 1,8,-1
 50 60 l 1,4,-1
20 50 m 1,9,-1
 30 50 l 1,10,-1
 30 40 l 1,11,-1
 20 40 l 1,12,-1
 20 50 l 1,9,-1
40 50 m 1,13,-1
 50 50 l 1,14,-1
 50 40 l 1,15,-1
 40 40 l 1,16,-1
 40 50 l 1,13,-1
30 40 m 1,17,-1
 40 40 l 1,18,-1
 40 30 l 1,19,-1
 30 30 l 1,20,-1
 30 40 l 1,17,-1
20 30 m 1,21,-1
 30 30 l 1,22,-1
 30 20 l 1,23,-1
 20 20 l 1,24,-1
 20 30 l 1,21,-1
40 30 m 1,25,-1
 50 30 l 1,26,-1
 50 20 l 1,27,-1
 40 20 l 1,28,-1
 40 30 l 1,25,-1
10 20 m 1,29,-1
 20 20 l 1,30,-1
 20 10 l 1,31,-1
 10 10 l 1,32,-1
 10 20 l 1,33,-1
 10 20 l 1,29,-1
50 20 m 1,34,-1
 60 20 l 1,35,-1
 60 10 l 1,36,-1
 50 10 l 1,37,-1
 50 20 l 1,38,-1
 50 20 l 1,34,-1
EndSplineSet
EndChar

StartChar: divide
Encoding: 247 247 99
Width: 60
VWidth: 73
GlyphClass: 1
Flags: W
LayerCount: 2
Fore
SplineSet
30 60 m 1,0,-1
 40 60 l 1,1,-1
 40 50 l 1,2,-1
 30 50 l 1,3,-1
 30 60 l 1,0,-1
10 40 m 1,4,-1
 60 40 l 1,5,-1
 60 30 l 1,6,-1
 10 30 l 1,7,-1
 10 40 l 1,8,-1
 10 40 l 1,4,-1
30 20 m 1,9,-1
 40 20 l 1,10,-1
 40 10 l 1,11,-1
 30 10 l 1,12,-1
 30 20 l 1,13,-1
 30 20 l 1,9,-1
EndSplineSet
EndChar

StartChar: uni026A
Encoding: 618 618 100
Width: 60
VWidth: 73
GlyphClass: 1
Flags: W
LayerCount: 2
Fore
SplineSet
20 50 m 1,0,-1
 50 50 l 1,1,-1
 50 40 l 1,2,-1
 40 40 l 1,3,-1
 40 10 l 1,4,-1
 50 10 l 1,5,-1
 50 0 l 1,6,-1
 20 0 l 1,7,-1
 20 10 l 1,8,-1
 30 10 l 1,9,-1
 30 40 l 1,10,-1
 20 40 l 1,11,-1
 20 50 l 1,12,-1
 20 50 l 1,0,-1
EndSplineSet
EndChar

StartChar: uni0274
Encoding: 628 628 101
Width: 60
VWidth: 73
GlyphClass: 1
Flags: W
LayerCount: 2
Fore
SplineSet
10 50 m 1,0,-1
 20 50 l 1,1,-1
 20 40 l 1,2,-1
 30 40 l 1,3,-1
 30 30 l 1,4,-1
 20 30 l 1,5,-1
 20 0 l 1,6,-1
 10 0 l 1,7,-1
 10 50 l 1,0,-1
50 50 m 1,8,-1
 60 50 l 1,9,-1
 60 0 l 1,10,-1
 50 0 l 1,11,-1
 50 10 l 1,12,-1
 40 10 l 1,13,-1
 40 20 l 1,14,-1
 30 20 l 1,15,-1
 30 30 l 1,16,-1
 40 30 l 1,17,-1
 40 20 l 1,18,-1
 50 20 l 1,19,-1
 50 50 l 1,20,-1
 50 50 l 1,8,-1
EndSplineSet
EndChar

StartChar: uni0299
Encoding: 665 665 102
Width: 60
VWidth: 73
GlyphClass: 1
Flags: W
LayerCount: 2
Fore
SplineSet
10 50 m 1,0,-1
 40 50 l 1,1,-1
 40 40 l 1,2,-1
 20 40 l 1,3,-1
 20 30 l 1,4,-1
 40 30 l 1,5,-1
 40 40 l 1,6,-1
 50 40 l 1,7,-1
 50 30 l 1,8,-1
 40 30 l 1,9,-1
 40 20 l 1,10,-1
 20 20 l 1,11,-1
 20 10 l 1,12,-1
 40 10 l 1,13,-1
 40 20 l 1,14,-1
 50 20 l 1,15,-1
 50 10 l 1,16,-1
 40 10 l 1,17,-1
 40 0 l 1,18,-1
 10 0 l 1,19,-1
 10 50 l 1,20,-1
 10 50 l 1,0,-1
EndSplineSet
EndChar

StartChar: uni02B3
Encoding: 691 691 103
Width: 60
VWidth: 73
GlyphClass: 1
Flags: W
LayerCount: 2
Fore
SplineSet
10 70 m 1,0,-1
 20 70 l 1,1,-1
 20 60 l 1,2,-1
 30 60 l 1,3,-1
 30 70 l 1,4,-1
 40 70 l 1,5,-1
 40 60 l 1,6,-1
 30 60 l 1,7,-1
 30 50 l 1,8,-1
 20 50 l 1,9,-1
 20 30 l 1,10,-1
 10 30 l 1,11,-1
 10 70 l 1,0,-1
EndSplineSet
EndChar

StartChar: uni1D00
Encoding: 7424 7424 104
Width: 60
VWidth: 73
GlyphClass: 1
Flags: W
LayerCount: 2
Fore
SplineSet
20 50 m 1,0,-1
 40 50 l 1,1,-1
 40 40 l 1,2,-1
 20 40 l 1,3,-1
 20 50 l 1,0,-1
10 40 m 1,4,-1
 20 40 l 1,5,-1
 20 20 l 1,6,-1
 40 20 l 1,7,-1
 40 40 l 1,8,-1
 50 40 l 1,9,-1
 50 0 l 1,10,-1
 40 0 l 1,11,-1
 40 10 l 1,12,-1
 20 10 l 1,13,-1
 20 0 l 1,14,-1
 10 0 l 1,15,-1
 10 40 l 1,4,-1
EndSplineSet
EndChar

StartChar: uni1D04
Encoding: 7428 7428 105
Width: 60
VWidth: 73
GlyphClass: 1
Flags: W
LayerCount: 2
Fore
SplineSet
20 50 m 1,0,-1
 40 50 l 1,1,-1
 40 40 l 1,2,-1
 20 40 l 1,3,-1
 20 50 l 1,0,-1
10 40 m 1,4,-1
 20 40 l 1,5,-1
 20 10 l 1,6,-1
 10 10 l 1,7,-1
 10 40 l 1,4,-1
40 40 m 1,8,-1
 50 40 l 1,9,-1
 50 30 l 1,10,-1
 40 30 l 1,11,-1
 40 40 l 1,8,-1
40 20 m 1,12,-1
 50 20 l 1,13,-1
 50 10 l 1,14,-1
 40 10 l 1,15,-1
 40 20 l 1,16,-1
 40 20 l 1,12,-1
20 10 m 1,17,-1
 40 10 l 1,18,-1
 40 0 l 1,19,-1
 20 0 l 1,20,-1
 20 10 l 1,21,-1
 20 10 l 1,17,-1
EndSplineSet
EndChar

StartChar: uni1D0A
Encoding: 7434 7434 106
Width: 60
VWidth: 73
GlyphClass: 1
Flags: W
LayerCount: 2
Fore
SplineSet
20 50 m 1,0,-1
 50 50 l 1,1,-1
 50 40 l 1,2,-1
 40 40 l 1,3,-1
 40 10 l 1,4,-1
 30 10 l 1,5,-1
 30 40 l 1,6,-1
 20 40 l 1,7,-1
 20 50 l 1,8,-1
 20 50 l 1,0,-1
10 20 m 1,9,-1
 20 20 l 1,10,-1
 20 10 l 1,11,-1
 10 10 l 1,12,-1
 10 20 l 1,13,-1
 10 20 l 1,9,-1
20 10 m 1,14,-1
 30 10 l 1,15,-1
 30 0 l 1,16,-1
 20 0 l 1,17,-1
 20 10 l 1,18,-1
 20 10 l 1,14,-1
EndSplineSet
EndChar

StartChar: uni1D0B
Encoding: 7435 7435 107
Width: 60
VWidth: 73
GlyphClass: 1
Flags: W
LayerCount: 2
Fore
SplineSet
10 50 m 1,0,-1
 20 50 l 1,1,-1
 20 30 l 1,2,-1
 30 30 l 1,3,-1
 30 40 l 1,4,-1
 40 40 l 1,5,-1
 40 50 l 1,6,-1
 50 50 l 1,7,-1
 50 40 l 1,8,-1
 40 40 l 1,9,-1
 40 30 l 1,10,-1
 30 30 l 1,11,-1
 30 20 l 1,12,-1
 20 20 l 1,13,-1
 20 0 l 1,14,-1
 10 0 l 1,15,-1
 10 50 l 1,16,-1
 10 50 l 1,0,-1
30 20 m 1,17,-1
 40 20 l 1,18,-1
 40 10 l 1,19,-1
 30 10 l 1,20,-1
 30 20 l 1,21,-1
 30 20 l 1,17,-1
40 10 m 1,22,-1
 50 10 l 1,23,-1
 50 0 l 1,24,-1
 40 0 l 1,25,-1
 40 10 l 1,26,-1
 40 10 l 1,22,-1
EndSplineSet
EndChar

StartChar: uni1D18
Encoding: 7448 7448 108
Width: 60
VWidth: 73
GlyphClass: 1
Flags: W
LayerCount: 2
Fore
SplineSet
10 50 m 1,0,-1
 50 50 l 1,1,-1
 50 40 l 1,2,-1
 20 40 l 1,3,-1
 20 20 l 1,4,-1
 50 20 l 1,5,-1
 50 40 l 1,6,-1
 60 40 l 1,7,-1
 60 20 l 1,8,-1
 50 20 l 1,9,-1
 50 10 l 1,10,-1
 20 10 l 1,11,-1
 20 0 l 1,12,-1
 10 0 l 1,13,-1
 10 50 l 1,14,-1
 10 50 l 1,0,-1
EndSplineSet
EndChar

StartChar: uni1D1B
Encoding: 7451 7451 109
Width: 60
VWidth: 73
GlyphClass: 1
Flags: W
LayerCount: 2
Fore
SplineSet
10 50 m 1,0,-1
 60 50 l 1,1,-1
 60 40 l 1,2,-1
 40 40 l 1,3,-1
 40 0 l 1,4,-1
 30 0 l 1,5,-1
 30 40 l 1,6,-1
 10 40 l 1,7,-1
 10 50 l 1,8,-1
 10 50 l 1,0,-1
EndSplineSet
EndChar

StartChar: uni1D4D
Encoding: 7501 7501 110
Width: 60
VWidth: 73
GlyphClass: 1
Flags: W
LayerCount: 2
Fore
SplineSet
20 70 m 1,0,-1
 50 70 l 1,1,-1
 50 30 l 1,2,-1
 40 30 l 1,3,-1
 40 40 l 1,4,-1
 20 40 l 1,5,-1
 20 50 l 1,6,-1
 10 50 l 1,7,-1
 10 60 l 1,8,-1
 20 60 l 1,9,-1
 20 70 l 1,10,-1
 20 70 l 1,0,-1
30 60 m 1,11,-1
 20 60 l 1,12,-1
 20 50 l 1,13,-1
 40 50 l 1,14,-1
 40 60 l 1,15,-1
 30 60 l 1,16,-1
 30 60 l 1,11,-1
20 30 m 1,17,-1
 40 30 l 1,18,-1
 40 20 l 1,19,-1
 20 20 l 1,20,-1
 20 30 l 1,17,-1
EndSplineSet
EndChar

StartChar: ellipsis
Encoding: 8230 8230 111
Width: 60
VWidth: 73
GlyphClass: 1
Flags: W
LayerCount: 2
Fore
SplineSet
10 40 m 1,0,-1
 20 40 l 1,1,-1
 20 30 l 1,2,-1
 10 30 l 1,3,-1
 10 40 l 1,0,-1
30 40 m 1,4,-1
 40 40 l 1,5,-1
 40 30 l 1,6,-1
 30 30 l 1,7,-1
 30 40 l 1,4,-1
50 40 m 1,8,-1
 60 40 l 1,9,-1
 60 30 l 1,10,-1
 50 30 l 1,11,-1
 50 40 l 1,12,-1
 50 40 l 1,8,-1
EndSplineSet
EndChar

StartChar: uni2070
Encoding: 8304 8304 112
Width: 60
VWidth: 73
GlyphClass: 1
Flags: W
LayerCount: 2
Fore
SplineSet
20 70 m 1,0,-1
 40 70 l 1,1,-1
 40 60 l 1,2,-1
 20 60 l 1,3,-1
 20 70 l 1,0,-1
10 60 m 1,4,-1
 20 60 l 1,5,-1
 20 30 l 1,6,-1
 10 30 l 1,7,-1
 10 60 l 1,4,-1
40 60 m 1,8,-1
 50 60 l 1,9,-1
 50 30 l 1,10,-1
 40 30 l 1,11,-1
 40 60 l 1,8,-1
20 30 m 1,12,-1
 40 30 l 1,13,-1
 40 20 l 1,14,-1
 20 20 l 1,15,-1
 20 30 l 1,12,-1
EndSplineSet
EndChar

StartChar: uni2074
Encoding: 8308 8308 113
Width: 60
VWidth: 73
GlyphClass: 1
Flags: W
LayerCount: 2
Fore
SplineSet
30 70 m 1,0,-1
 40 70 l 1,1,-1
 40 40 l 1,2,-1
 50 40 l 1,3,-1
 50 30 l 1,4,-1
 40 30 l 1,5,-1
 40 20 l 1,6,-1
 30 20 l 1,7,-1
 30 30 l 1,8,-1
 10 30 l 1,9,-1
 10 50 l 1,10,-1
 20 50 l 1,11,-1
 20 60 l 1,12,-1
 30 60 l 1,13,-1
 30 70 l 1,14,-1
 30 70 l 1,0,-1
30 50 m 1,15,-1
 20 50 l 1,16,-1
 20 40 l 1,17,-1
 30 40 l 1,18,-1
 30 50 l 1,15,-1
EndSplineSet
EndChar

StartChar: uni2075
Encoding: 8309 8309 114
Width: 60
VWidth: 73
GlyphClass: 1
Flags: W
LayerCount: 2
Fore
SplineSet
10 70 m 1,0,-1
 50 70 l 1,1,-1
 50 60 l 1,2,-1
 20 60 l 1,3,-1
 20 50 l 1,4,-1
 40 50 l 1,5,-1
 40 40 l 1,6,-1
 10 40 l 1,7,-1
 10 70 l 1,8,-1
 10 70 l 1,0,-1
40 40 m 1,9,-1
 50 40 l 1,10,-1
 50 30 l 1,11,-1
 40 30 l 1,12,-1
 40 40 l 1,9,-1
10 30 m 1,13,-1
 40 30 l 1,14,-1
 40 20 l 1,15,-1
 10 20 l 1,16,-1
 10 30 l 1,13,-1
EndSplineSet
EndChar

StartChar: uni2076
Encoding: 8310 8310 115
Width: 60
VWidth: 73
GlyphClass: 1
Flags: W
LayerCount: 2
Fore
SplineSet
20 70 m 1,0,-1
 40 70 l 1,1,-1
 40 60 l 1,2,-1
 20 60 l 1,3,-1
 20 70 l 1,0,-1
10 60 m 1,4,-1
 20 60 l 1,5,-1
 20 50 l 1,6,-1
 40 50 l 1,7,-1
 40 40 l 1,8,-1
 20 40 l 1,9,-1
 20 30 l 1,10,-1
 10 30 l 1,11,-1
 10 60 l 1,12,-1
 10 60 l 1,4,-1
40 40 m 1,13,-1
 50 40 l 1,14,-1
 50 30 l 1,15,-1
 40 30 l 1,16,-1
 40 40 l 1,13,-1
20 30 m 1,17,-1
 40 30 l 1,18,-1
 40 20 l 1,19,-1
 20 20 l 1,20,-1
 20 30 l 1,17,-1
EndSplineSet
EndChar

StartChar: uni2077
Encoding: 8311 8311 116
Width: 60
VWidth: 73
GlyphClass: 1
Flags: W
LayerCount: 2
Fore
SplineSet
10 70 m 1,0,-1
 50 70 l 1,1,-1
 50 50 l 1,2,-1
 40 50 l 1,3,-1
 40 60 l 1,4,-1
 20 60 l 1,5,-1
 20 50 l 1,6,-1
 10 50 l 1,7,-1
 10 70 l 1,0,-1
30 50 m 1,8,-1
 40 50 l 1,9,-1
 40 30 l 1,10,-1
 30 30 l 1,11,-1
 30 50 l 1,8,-1
20 30 m 1,12,-1
 30 30 l 1,13,-1
 30 20 l 1,14,-1
 20 20 l 1,15,-1
 20 30 l 1,12,-1
EndSplineSet
EndChar

StartChar: uni2078
Encoding: 8312 8312 117
Width: 60
VWidth: 73
GlyphClass: 1
Flags: W
LayerCount: 2
Fore
SplineSet
20 70 m 1,0,-1
 40 70 l 1,1,-1
 40 60 l 1,2,-1
 20 60 l 1,3,-1
 20 70 l 1,0,-1
10 60 m 1,4,-1
 20 60 l 1,5,-1
 20 50 l 1,6,-1
 10 50 l 1,7,-1
 10 60 l 1,4,-1
40 60 m 1,8,-1
 50 60 l 1,9,-1
 50 50 l 1,10,-1
 40 50 l 1,11,-1
 40 60 l 1,8,-1
20 50 m 1,12,-1
 40 50 l 1,13,-1
 40 40 l 1,14,-1
 20 40 l 1,15,-1
 20 50 l 1,12,-1
10 40 m 1,16,-1
 20 40 l 1,17,-1
 20 30 l 1,18,-1
 10 30 l 1,19,-1
 10 40 l 1,16,-1
40 40 m 1,20,-1
 50 40 l 1,21,-1
 50 30 l 1,22,-1
 40 30 l 1,23,-1
 40 40 l 1,20,-1
20 30 m 1,24,-1
 40 30 l 1,25,-1
 40 20 l 1,26,-1
 20 20 l 1,27,-1
 20 30 l 1,24,-1
EndSplineSet
EndChar

StartChar: uni2079
Encoding: 8313 8313 118
Width: 60
VWidth: 73
GlyphClass: 1
Flags: W
LayerCount: 2
Fore
SplineSet
20 70 m 1,0,-1
 40 70 l 1,1,-1
 40 60 l 1,2,-1
 20 60 l 1,3,-1
 20 70 l 1,0,-1
10 60 m 1,4,-1
 20 60 l 1,5,-1
 20 50 l 1,6,-1
 10 50 l 1,7,-1
 10 60 l 1,4,-1
40 60 m 1,8,-1
 50 60 l 1,9,-1
 50 30 l 1,10,-1
 40 30 l 1,11,-1
 40 40 l 1,12,-1
 20 40 l 1,13,-1
 20 50 l 1,14,-1
 40 50 l 1,15,-1
 40 60 l 1,16,-1
 40 60 l 1,8,-1
20 30 m 1,17,-1
 40 30 l 1,18,-1
 40 20 l 1,19,-1
 20 20 l 1,20,-1
 20 30 l 1,17,-1
EndSplineSet
EndChar

StartChar: uni2080
Encoding: 8320 8320 119
Width: 60
VWidth: 73
GlyphClass: 1
Flags: W
LayerCount: 2
Fore
SplineSet
20 50 m 1,0,-1
 40 50 l 1,1,-1
 40 40 l 1,2,-1
 20 40 l 1,3,-1
 20 50 l 1,0,-1
10 40 m 1,4,-1
 20 40 l 1,5,-1
 20 10 l 1,6,-1
 10 10 l 1,7,-1
 10 40 l 1,4,-1
40 40 m 1,8,-1
 50 40 l 1,9,-1
 50 10 l 1,10,-1
 40 10 l 1,11,-1
 40 40 l 1,8,-1
20 10 m 1,12,-1
 40 10 l 1,13,-1
 40 0 l 1,14,-1
 20 0 l 1,15,-1
 20 10 l 1,16,-1
 20 10 l 1,12,-1
EndSplineSet
EndChar

StartChar: uni2081
Encoding: 8321 8321 120
Width: 60
VWidth: 73
GlyphClass: 1
Flags: W
LayerCount: 2
Fore
SplineSet
20 50 m 1,0,-1
 30 50 l 1,1,-1
 30 10 l 1,2,-1
 40 10 l 1,3,-1
 40 0 l 1,4,-1
 10 0 l 1,5,-1
 10 10 l 1,6,-1
 20 10 l 1,7,-1
 20 30 l 1,8,-1
 10 30 l 1,9,-1
 10 40 l 1,10,-1
 20 40 l 1,11,-1
 20 50 l 1,12,-1
 20 50 l 1,0,-1
EndSplineSet
EndChar

StartChar: uni2082
Encoding: 8322 8322 121
Width: 60
VWidth: 73
GlyphClass: 1
Flags: W
LayerCount: 2
Fore
SplineSet
20 50 m 1,0,-1
 40 50 l 1,1,-1
 40 40 l 1,2,-1
 20 40 l 1,3,-1
 20 50 l 1,0,-1
10 40 m 1,4,-1
 20 40 l 1,5,-1
 20 30 l 1,6,-1
 10 30 l 1,7,-1
 10 40 l 1,4,-1
40 40 m 1,8,-1
 50 40 l 1,9,-1
 50 30 l 1,10,-1
 40 30 l 1,11,-1
 40 40 l 1,8,-1
30 30 m 1,12,-1
 40 30 l 1,13,-1
 40 20 l 1,14,-1
 30 20 l 1,15,-1
 30 30 l 1,12,-1
20 20 m 1,16,-1
 30 20 l 1,17,-1
 30 10 l 1,18,-1
 50 10 l 1,19,-1
 50 0 l 1,20,-1
 10 0 l 1,21,-1
 10 10 l 1,22,-1
 20 10 l 1,23,-1
 20 20 l 1,24,-1
 20 20 l 1,16,-1
EndSplineSet
EndChar

StartChar: uni2083
Encoding: 8323 8323 122
Width: 60
VWidth: 73
GlyphClass: 1
Flags: W
LayerCount: 2
Fore
SplineSet
20 50 m 1,0,-1
 40 50 l 1,1,-1
 40 40 l 1,2,-1
 20 40 l 1,3,-1
 20 50 l 1,0,-1
10 40 m 1,4,-1
 20 40 l 1,5,-1
 20 30 l 1,6,-1
 10 30 l 1,7,-1
 10 40 l 1,4,-1
40 40 m 1,8,-1
 50 40 l 1,9,-1
 50 30 l 1,10,-1
 40 30 l 1,11,-1
 40 40 l 1,8,-1
30 30 m 1,12,-1
 40 30 l 1,13,-1
 40 20 l 1,14,-1
 30 20 l 1,15,-1
 30 30 l 1,12,-1
10 20 m 1,16,-1
 20 20 l 1,17,-1
 20 10 l 1,18,-1
 10 10 l 1,19,-1
 10 20 l 1,20,-1
 10 20 l 1,16,-1
40 20 m 1,21,-1
 50 20 l 1,22,-1
 50 10 l 1,23,-1
 40 10 l 1,24,-1
 40 20 l 1,25,-1
 40 20 l 1,21,-1
20 10 m 1,26,-1
 40 10 l 1,27,-1
 40 0 l 1,28,-1
 20 0 l 1,29,-1
 20 10 l 1,30,-1
 20 10 l 1,26,-1
EndSplineSet
EndChar

StartChar: uni2084
Encoding: 8324 8324 123
Width: 60
VWidth: 73
GlyphClass: 1
Flags: W
LayerCount: 2
Fore
SplineSet
30 50 m 1,0,-1
 40 50 l 1,1,-1
 40 20 l 1,2,-1
 50 20 l 1,3,-1
 50 10 l 1,4,-1
 40 10 l 1,5,-1
 40 0 l 1,6,-1
 30 0 l 1,7,-1
 30 10 l 1,8,-1
 10 10 l 1,9,-1
 10 30 l 1,10,-1
 20 30 l 1,11,-1
 20 40 l 1,12,-1
 30 40 l 1,13,-1
 30 50 l 1,14,-1
 30 50 l 1,0,-1
30 30 m 1,15,-1
 20 30 l 1,16,-1
 20 20 l 1,17,-1
 30 20 l 1,18,-1
 30 30 l 1,15,-1
EndSplineSet
EndChar

StartChar: uni2085
Encoding: 8325 8325 124
Width: 60
VWidth: 73
GlyphClass: 1
Flags: W
LayerCount: 2
Fore
SplineSet
10 50 m 1,0,-1
 50 50 l 1,1,-1
 50 40 l 1,2,-1
 20 40 l 1,3,-1
 20 30 l 1,4,-1
 40 30 l 1,5,-1
 40 20 l 1,6,-1
 10 20 l 1,7,-1
 10 50 l 1,8,-1
 10 50 l 1,0,-1
40 20 m 1,9,-1
 50 20 l 1,10,-1
 50 10 l 1,11,-1
 40 10 l 1,12,-1
 40 20 l 1,13,-1
 40 20 l 1,9,-1
10 10 m 1,14,-1
 40 10 l 1,15,-1
 40 0 l 1,16,-1
 10 0 l 1,17,-1
 10 10 l 1,18,-1
 10 10 l 1,14,-1
EndSplineSet
EndChar

StartChar: uni2089
Encoding: 8329 8329 125
Width: 60
VWidth: 73
GlyphClass: 1
Flags: W
LayerCount: 2
Fore
SplineSet
20 50 m 1,0,-1
 40 50 l 1,1,-1
 40 40 l 1,2,-1
 20 40 l 1,3,-1
 20 50 l 1,0,-1
10 40 m 1,4,-1
 20 40 l 1,5,-1
 20 30 l 1,6,-1
 10 30 l 1,7,-1
 10 40 l 1,4,-1
40 40 m 1,8,-1
 50 40 l 1,9,-1
 50 10 l 1,10,-1
 40 10 l 1,11,-1
 40 20 l 1,12,-1
 20 20 l 1,13,-1
 20 30 l 1,14,-1
 40 30 l 1,15,-1
 40 40 l 1,16,-1
 40 40 l 1,8,-1
20 10 m 1,17,-1
 40 10 l 1,18,-1
 40 0 l 1,19,-1
 20 0 l 1,20,-1
 20 10 l 1,21,-1
 20 10 l 1,17,-1
EndSplineSet
EndChar

StartChar: uni208B
Encoding: 8331 8331 126
Width: 60
VWidth: 73
GlyphClass: 1
Flags: W
LayerCount: 2
Fore
SplineSet
10 30 m 1,0,-1
 50 30 l 1,1,-1
 50 20 l 1,2,-1
 10 20 l 1,3,-1
 10 30 l 1,4,-1
 10 30 l 1,0,-1
EndSplineSet
EndChar

StartChar: uni208D
Encoding: 8333 8333 127
Width: 60
VWidth: 73
GlyphClass: 1
Flags: W
LayerCount: 2
Fore
SplineSet
40 50 m 1,0,-1
 50 50 l 1,1,-1
 50 40 l 1,2,-1
 40 40 l 1,3,-1
 40 50 l 1,0,-1
30 40 m 1,4,-1
 40 40 l 1,5,-1
 40 10 l 1,6,-1
 30 10 l 1,7,-1
 30 40 l 1,4,-1
40 10 m 1,8,-1
 50 10 l 1,9,-1
 50 0 l 1,10,-1
 40 0 l 1,11,-1
 40 10 l 1,12,-1
 40 10 l 1,8,-1
EndSplineSet
EndChar

StartChar: uni208E
Encoding: 8334 8334 128
Width: 60
VWidth: 73
GlyphClass: 1
Flags: W
LayerCount: 2
Fore
SplineSet
20 50 m 1,0,-1
 30 50 l 1,1,-1
 30 40 l 1,2,-1
 20 40 l 1,3,-1
 20 50 l 1,0,-1
30 40 m 1,4,-1
 40 40 l 1,5,-1
 40 10 l 1,6,-1
 30 10 l 1,7,-1
 30 40 l 1,4,-1
20 10 m 1,8,-1
 30 10 l 1,9,-1
 30 0 l 1,10,-1
 20 0 l 1,11,-1
 20 10 l 1,12,-1
 20 10 l 1,8,-1
EndSplineSet
EndChar

StartChar: uni2091
Encoding: 8337 8337 129
Width: 60
VWidth: 73
GlyphClass: 1
Flags: W
LayerCount: 2
Fore
SplineSet
20 40 m 1,0,-1
 40 40 l 1,1,-1
 40 30 l 1,2,-1
 50 30 l 1,3,-1
 50 20 l 1,4,-1
 20 20 l 1,5,-1
 20 10 l 1,6,-1
 10 10 l 1,7,-1
 10 30 l 1,8,-1
 20 30 l 1,9,-1
 20 40 l 1,10,-1
 20 40 l 1,0,-1
20 10 m 1,11,-1
 40 10 l 1,12,-1
 40 0 l 1,13,-1
 20 0 l 1,14,-1
 20 10 l 1,15,-1
 20 10 l 1,11,-1
EndSplineSet
EndChar

StartChar: uni2095
Encoding: 8341 8341 130
Width: 60
VWidth: 73
GlyphClass: 1
Flags: W
LayerCount: 2
Fore
SplineSet
10 60 m 1,0,-1
 20 60 l 1,1,-1
 20 40 l 1,2,-1
 40 40 l 1,3,-1
 40 30 l 1,4,-1
 20 30 l 1,5,-1
 20 0 l 1,6,-1
 10 0 l 1,7,-1
 10 60 l 1,8,-1
 10 60 l 1,0,-1
40 30 m 1,9,-1
 50 30 l 1,10,-1
 50 0 l 1,11,-1
 40 0 l 1,12,-1
 40 30 l 1,9,-1
EndSplineSet
EndChar

StartChar: uni2098
Encoding: 8344 8344 131
Width: 60
VWidth: 73
GlyphClass: 1
Flags: W
LayerCount: 2
Fore
SplineSet
10 40 m 1,0,-1
 30 40 l 1,1,-1
 30 30 l 1,2,-1
 20 30 l 1,3,-1
 20 0 l 1,4,-1
 10 0 l 1,5,-1
 10 40 l 1,6,-1
 10 40 l 1,0,-1
40 40 m 1,7,-1
 50 40 l 1,8,-1
 50 30 l 1,9,-1
 40 30 l 1,10,-1
 40 40 l 1,7,-1
30 30 m 1,11,-1
 40 30 l 1,12,-1
 40 0 l 1,13,-1
 30 0 l 1,14,-1
 30 30 l 1,11,-1
50 30 m 1,15,-1
 60 30 l 1,16,-1
 60 0 l 1,17,-1
 50 0 l 1,18,-1
 50 30 l 1,19,-1
 50 30 l 1,15,-1
EndSplineSet
EndChar

StartChar: uni2099
Encoding: 8345 8345 132
Width: 60
VWidth: 73
GlyphClass: 1
Flags: W
LayerCount: 2
Fore
SplineSet
10 40 m 1,0,-1
 20 40 l 1,1,-1
 20 30 l 1,2,-1
 30 30 l 1,3,-1
 30 40 l 1,4,-1
 40 40 l 1,5,-1
 40 30 l 1,6,-1
 30 30 l 1,7,-1
 30 20 l 1,8,-1
 20 20 l 1,9,-1
 20 0 l 1,10,-1
 10 0 l 1,11,-1
 10 40 l 1,0,-1
40 30 m 1,12,-1
 50 30 l 1,13,-1
 50 0 l 1,14,-1
 40 0 l 1,15,-1
 40 30 l 1,12,-1
EndSplineSet
EndChar

StartChar: uni209A
Encoding: 8346 8346 133
Width: 60
VWidth: 73
GlyphClass: 1
Flags: W
LayerCount: 2
Fore
SplineSet
10 40 m 1,0,-1
 40 40 l 1,1,-1
 40 30 l 1,2,-1
 20 30 l 1,3,-1
 20 20 l 1,4,-1
 40 20 l 1,5,-1
 40 30 l 1,6,-1
 50 30 l 1,7,-1
 50 20 l 1,8,-1
 40 20 l 1,9,-1
 40 10 l 1,10,-1
 20 10 l 1,11,-1
 20 0 l 1,12,-1
 10 0 l 1,13,-1
 10 40 l 1,14,-1
 10 40 l 1,0,-1
EndSplineSet
EndChar

StartChar: uni209C
Encoding: 8348 8348 134
Width: 60
VWidth: 73
GlyphClass: 1
Flags: W
LayerCount: 2
Fore
SplineSet
20 50 m 1,0,-1
 30 50 l 1,1,-1
 30 40 l 1,2,-1
 50 40 l 1,3,-1
 50 30 l 1,4,-1
 30 30 l 1,5,-1
 30 10 l 1,6,-1
 20 10 l 1,7,-1
 20 30 l 1,8,-1
 10 30 l 1,9,-1
 10 40 l 1,10,-1
 20 40 l 1,11,-1
 20 50 l 1,12,-1
 20 50 l 1,0,-1
30 10 m 1,13,-1
 50 10 l 1,14,-1
 50 0 l 1,15,-1
 30 0 l 1,16,-1
 30 10 l 1,17,-1
 30 10 l 1,13,-1
EndSplineSet
EndChar

StartChar: uni210F
Encoding: 8463 8463 135
Width: 60
VWidth: 73
GlyphClass: 1
Flags: W
LayerCount: 2
Fore
SplineSet
20 70 m 1,0,-1
 30 70 l 1,1,-1
 30 60 l 1,2,-1
 40 60 l 1,3,-1
 40 70 l 1,4,-1
 50 70 l 1,5,-1
 50 60 l 1,6,-1
 40 60 l 1,7,-1
 40 50 l 1,8,-1
 30 50 l 1,9,-1
 30 40 l 1,10,-1
 50 40 l 1,11,-1
 50 30 l 1,12,-1
 30 30 l 1,13,-1
 30 0 l 1,14,-1
 20 0 l 1,15,-1
 20 40 l 1,16,-1
 10 40 l 1,17,-1
 10 50 l 1,18,-1
 20 50 l 1,19,-1
 20 70 l 1,20,-1
 20 70 l 1,0,-1
50 30 m 1,21,-1
 60 30 l 1,22,-1
 60 0 l 1,23,-1
 50 0 l 1,24,-1
 50 30 l 1,25,-1
 50 30 l 1,21,-1
EndSplineSet
EndChar

StartChar: uni2113
Encoding: 8467 8467 136
Width: 60
VWidth: 73
GlyphClass: 1
Flags: W
LayerCount: 2
Fore
SplineSet
30 70 m 1,0,-1
 40 70 l 1,1,-1
 40 60 l 1,2,-1
 30 60 l 1,3,-1
 30 70 l 1,0,-1
20 60 m 1,4,-1
 30 60 l 1,5,-1
 30 20 l 1,6,-1
 20 20 l 1,7,-1
 20 60 l 1,4,-1
40 60 m 1,8,-1
 50 60 l 1,9,-1
 50 20 l 1,10,-1
 40 20 l 1,11,-1
 40 60 l 1,8,-1
30 20 m 1,12,-1
 40 20 l 1,13,-1
 40 10 l 1,14,-1
 30 10 l 1,15,-1
 30 20 l 1,16,-1
 30 20 l 1,12,-1
10 10 m 1,17,-1
 30 10 l 1,18,-1
 30 0 l 1,19,-1
 10 0 l 1,20,-1
 10 10 l 1,21,-1
 10 10 l 1,17,-1
40 10 m 1,22,-1
 60 10 l 1,23,-1
 60 0 l 1,24,-1
 40 0 l 1,25,-1
 40 10 l 1,26,-1
 40 10 l 1,22,-1
EndSplineSet
EndChar

StartChar: uni212B
Encoding: 8491 8491 137
Width: 60
VWidth: 73
GlyphClass: 1
Flags: W
LayerCount: 2
Fore
SplineSet
30 70 m 1,0,-1
 40 70 l 1,1,-1
 40 60 l 1,2,-1
 30 60 l 1,3,-1
 30 70 l 1,0,-1
20 60 m 1,4,-1
 30 60 l 1,5,-1
 30 50 l 1,6,-1
 20 50 l 1,7,-1
 20 60 l 1,4,-1
40 60 m 1,8,-1
 50 60 l 1,9,-1
 50 50 l 1,10,-1
 40 50 l 1,11,-1
 40 60 l 1,8,-1
30 50 m 1,12,-1
 40 50 l 1,13,-1
 40 40 l 1,14,-1
 30 40 l 1,15,-1
 30 50 l 1,12,-1
20 40 m 1,16,-1
 30 40 l 1,17,-1
 30 30 l 1,18,-1
 20 30 l 1,19,-1
 20 40 l 1,16,-1
40 40 m 1,20,-1
 50 40 l 1,21,-1
 50 30 l 1,22,-1
 40 30 l 1,23,-1
 40 40 l 1,20,-1
10 30 m 1,24,-1
 20 30 l 1,25,-1
 20 20 l 1,26,-1
 50 20 l 1,27,-1
 50 30 l 1,28,-1
 60 30 l 1,29,-1
 60 0 l 1,30,-1
 50 0 l 1,31,-1
 50 10 l 1,32,-1
 20 10 l 1,33,-1
 20 0 l 1,34,-1
 10 0 l 1,35,-1
 10 30 l 1,36,-1
 10 30 l 1,24,-1
EndSplineSet
EndChar

StartChar: arrowright
Encoding: 8594 8594 138
Width: 60
VWidth: 73
GlyphClass: 1
Flags: W
LayerCount: 2
Fore
SplineSet
30 60 m 1,0,-1
 40 60 l 1,1,-1
 40 50 l 1,2,-1
 30 50 l 1,3,-1
 30 60 l 1,0,-1
40 50 m 1,4,-1
 50 50 l 1,5,-1
 50 40 l 1,6,-1
 60 40 l 1,7,-1
 60 30 l 1,8,-1
 50 30 l 1,9,-1
 50 20 l 1,10,-1
 40 20 l 1,11,-1
 40 30 l 1,12,-1
 10 30 l 1,13,-1
 10 40 l 1,14,-1
 40 40 l 1,15,-1
 40 50 l 1,4,-1
30 20 m 1,16,-1
 40 20 l 1,17,-1
 40 10 l 1,18,-1
 30 10 l 1,19,-1
 30 20 l 1,20,-1
 30 20 l 1,16,-1
EndSplineSet
EndChar

StartChar: arrowdblright
Encoding: 8658 8658 139
Width: 60
VWidth: 73
GlyphClass: 1
Flags: W
LayerCount: 2
Fore
SplineSet
20 70 m 1,0,-1
 30 70 l 1,1,-1
 30 60 l 1,2,-1
 20 60 l 1,3,-1
 20 70 l 1,0,-1
30 60 m 1,4,-1
 40 60 l 1,5,-1
 40 50 l 1,6,-1
 50 50 l 1,7,-1
 50 40 l 1,8,-1
 10 40 l 1,9,-1
 10 50 l 1,10,-1
 30 50 l 1,11,-1
 30 60 l 1,12,-1
 30 60 l 1,4,-1
50 40 m 1,13,-1
 60 40 l 1,14,-1
 60 30 l 1,15,-1
 50 30 l 1,16,-1
 50 40 l 1,17,-1
 50 40 l 1,13,-1
10 30 m 1,18,-1
 50 30 l 1,19,-1
 50 20 l 1,20,-1
 40 20 l 1,21,-1
 40 10 l 1,22,-1
 30 10 l 1,23,-1
 30 20 l 1,24,-1
 10 20 l 1,25,-1
 10 30 l 1,18,-1
20 10 m 1,26,-1
 30 10 l 1,27,-1
 30 0 l 1,28,-1
 20 0 l 1,29,-1
 20 10 l 1,30,-1
 20 10 l 1,26,-1
EndSplineSet
EndChar

StartChar: product
Encoding: 8719 8719 140
Width: 60
VWidth: 73
GlyphClass: 1
Flags: W
LayerCount: 2
Fore
SplineSet
10 70 m 1,0,-1
 60 70 l 1,1,-1
 60 60 l 1,2,-1
 50 60 l 1,3,-1
 50 0 l 1,4,-1
 40 0 l 1,5,-1
 40 60 l 1,6,-1
 30 60 l 1,7,-1
 30 0 l 1,8,-1
 20 0 l 1,9,-1
 20 60 l 1,10,-1
 10 60 l 1,11,-1
 10 70 l 1,12,-1
 10 70 l 1,0,-1
EndSplineSet
EndChar

StartChar: summation
Encoding: 8721 8721 141
Width: 60
VWidth: 73
GlyphClass: 1
Flags: W
LayerCount: 2
Fore
SplineSet
10 70 m 1,0,-1
 60 70 l 1,1,-1
 60 50 l 1,2,-1
 50 50 l 1,3,-1
 50 60 l 1,4,-1
 20 60 l 1,5,-1
 20 50 l 1,6,-1
 10 50 l 1,7,-1
 10 70 l 1,8,-1
 10 70 l 1,0,-1
20 50 m 1,9,-1
 30 50 l 1,10,-1
 30 40 l 1,11,-1
 20 40 l 1,12,-1
 20 50 l 1,9,-1
30 40 m 1,13,-1
 40 40 l 1,14,-1
 40 30 l 1,15,-1
 30 30 l 1,16,-1
 30 40 l 1,13,-1
20 30 m 1,17,-1
 30 30 l 1,18,-1
 30 20 l 1,19,-1
 20 20 l 1,20,-1
 20 30 l 1,17,-1
10 20 m 1,21,-1
 20 20 l 1,22,-1
 20 10 l 1,23,-1
 50 10 l 1,24,-1
 50 20 l 1,25,-1
 60 20 l 1,26,-1
 60 0 l 1,27,-1
 10 0 l 1,28,-1
 10 20 l 1,29,-1
 10 20 l 1,21,-1
EndSplineSet
EndChar

StartChar: minus
Encoding: 8722 8722 142
Width: 60
VWidth: 73
GlyphClass: 1
Flags: W
LayerCount: 2
Fore
SplineSet
20 40 m 1,0,-1
 50 40 l 1,1,-1
 50 30 l 1,2,-1
 20 30 l 1,3,-1
 20 40 l 1,4,-1
 20 40 l 1,0,-1
EndSplineSet
EndChar

StartChar: radical
Encoding: 8730 8730 143
Width: 60
VWidth: 73
GlyphClass: 1
Flags: W
LayerCount: 2
Fore
SplineSet
30 70 m 1,0,-1
 60 70 l 1,1,-1
 60 60 l 1,2,-1
 40 60 l 1,3,-1
 40 0 l 1,4,-1
 30 0 l 1,5,-1
 30 10 l 1,6,-1
 20 10 l 1,7,-1
 20 20 l 1,8,-1
 10 20 l 1,9,-1
 10 30 l 1,10,-1
 20 30 l 1,11,-1
 20 20 l 1,12,-1
 30 20 l 1,13,-1
 30 70 l 1,14,-1
 30 70 l 1,0,-1
EndSplineSet
EndChar

StartChar: angle
Encoding: 8736 8736 144
Width: 60
VWidth: 73
GlyphClass: 1
Flags: W
LayerCount: 2
Fore
SplineSet
40 70 m 1,0,-1
 50 70 l 1,1,-1
 50 60 l 1,2,-1
 40 60 l 1,3,-1
 40 70 l 1,0,-1
30 60 m 1,4,-1
 40 60 l 1,5,-1
 40 40 l 1,6,-1
 30 40 l 1,7,-1
 30 60 l 1,4,-1
20 40 m 1,8,-1
 30 40 l 1,9,-1
 30 20 l 1,10,-1
 20 20 l 1,11,-1
 20 40 l 1,12,-1
 20 40 l 1,8,-1
10 20 m 1,13,-1
 20 20 l 1,14,-1
 20 10 l 1,15,-1
 60 10 l 1,16,-1
 60 0 l 1,17,-1
 10 0 l 1,18,-1
 10 20 l 1,19,-1
 10 20 l 1,13,-1
EndSplineSet
EndChar

StartChar: integral
Encoding: 8747 8747 145
Width: 60
VWidth: 73
GlyphClass: 1
Flags: W
LayerCount: 2
Fore
SplineSet
40 70 m 1,0,-1
 50 70 l 1,1,-1
 50 60 l 1,2,-1
 40 60 l 1,3,-1
 40 70 l 1,0,-1
30 60 m 1,4,-1
 40 60 l 1,5,-1
 40 10 l 1,6,-1
 30 10 l 1,7,-1
 30 60 l 1,8,-1
 30 60 l 1,4,-1
50 60 m 1,9,-1
 60 60 l 1,10,-1
 60 50 l 1,11,-1
 50 50 l 1,12,-1
 50 60 l 1,13,-1
 50 60 l 1,9,-1
10 20 m 1,14,-1
 20 20 l 1,15,-1
 20 10 l 1,16,-1
 10 10 l 1,17,-1
 10 20 l 1,18,-1
 10 20 l 1,14,-1
20 10 m 1,19,-1
 30 10 l 1,20,-1
 30 0 l 1,21,-1
 20 0 l 1,22,-1
 20 10 l 1,23,-1
 20 10 l 1,19,-1
EndSplineSet
EndChar

StartChar: notequal
Encoding: 8800 8800 146
Width: 60
VWidth: 73
GlyphClass: 1
Flags: W
LayerCount: 2
Fore
SplineSet
40 70 m 1,0,-1
 50 70 l 1,1,-1
 50 50 l 1,2,-1
 60 50 l 1,3,-1
 60 40 l 1,4,-1
 40 40 l 1,5,-1
 40 30 l 1,6,-1
 60 30 l 1,7,-1
 60 20 l 1,8,-1
 30 20 l 1,9,-1
 30 0 l 1,10,-1
 20 0 l 1,11,-1
 20 20 l 1,12,-1
 10 20 l 1,13,-1
 10 30 l 1,14,-1
 30 30 l 1,15,-1
 30 40 l 1,16,-1
 10 40 l 1,17,-1
 10 50 l 1,18,-1
 40 50 l 1,19,-1
 40 70 l 1,20,-1
 40 70 l 1,0,-1
EndSplineSet
EndChar

StartChar: lessequal
Encoding: 8804 8804 147
Width: 60
VWidth: 73
GlyphClass: 1
Flags: W
LayerCount: 2
Fore
SplineSet
40 70 m 1,0,-1
 60 70 l 1,1,-1
 60 60 l 1,2,-1
 40 60 l 1,3,-1
 40 70 l 1,0,-1
20 60 m 1,4,-1
 40 60 l 1,5,-1
 40 50 l 1,6,-1
 20 50 l 1,7,-1
 20 60 l 1,4,-1
10 50 m 1,8,-1
 20 50 l 1,9,-1
 20 40 l 1,10,-1
 10 40 l 1,11,-1
 10 50 l 1,8,-1
20 40 m 1,12,-1
 40 40 l 1,13,-1
 40 30 l 1,14,-1
 20 30 l 1,15,-1
 20 40 l 1,12,-1
40 30 m 1,16,-1
 60 30 l 1,17,-1
 60 20 l 1,18,-1
 40 20 l 1,19,-1
 40 30 l 1,16,-1
10 10 m 1,20,-1
 60 10 l 1,21,-1
 60 0 l 1,22,-1
 10 0 l 1,23,-1
 10 10 l 1,24,-1
 10 10 l 1,20,-1
EndSplineSet
EndChar

StartChar: greaterequal
Encoding: 8805 8805 148
Width: 60
VWidth: 73
GlyphClass: 1
Flags: W
LayerCount: 2
Fore
SplineSet
10 70 m 1,0,-1
 30 70 l 1,1,-1
 30 60 l 1,2,-1
 10 60 l 1,3,-1
 10 70 l 1,0,-1
30 60 m 1,4,-1
 50 60 l 1,5,-1
 50 50 l 1,6,-1
 30 50 l 1,7,-1
 30 60 l 1,8,-1
 30 60 l 1,4,-1
50 50 m 1,9,-1
 60 50 l 1,10,-1
 60 40 l 1,11,-1
 50 40 l 1,12,-1
 50 50 l 1,13,-1
 50 50 l 1,9,-1
30 40 m 1,14,-1
 50 40 l 1,15,-1
 50 30 l 1,16,-1
 30 30 l 1,17,-1
 30 40 l 1,18,-1
 30 40 l 1,14,-1
10 30 m 1,19,-1
 30 30 l 1,20,-1
 30 20 l 1,21,-1
 10 20 l 1,22,-1
 10 30 l 1,19,-1
10 10 m 1,23,-1
 60 10 l 1,24,-1
 60 0 l 1,25,-1
 10 0 l 1,26,-1
 10 10 l 1,27,-1
 10 10 l 1,23,-1
EndSplineSet
EndChar

StartChar: dotmath
Encoding: 8901 8901 149
Width: 60
VWidth: 73
GlyphClass: 1
Flags: W
LayerCount: 2
Fore
SplineSet
30 40 m 1,0,-1
 50 40 l 1,1,-1
 50 20 l 1,2,-1
 30 20 l 1,3,-1
 30 40 l 1,4,-1
 30 40 l 1,0,-1
EndSplineSet
EndChar

StartChar: uni231F
Encoding: 8991 8991 150
Width: 60
VWidth: 73
GlyphClass: 1
Flags: W
LayerCount: 2
Fore
SplineSet
50 50 m 1,0,-1
 60 50 l 1,1,-1
 60 0 l 1,2,-1
 20 0 l 1,3,-1
 20 10 l 1,4,-1
 50 10 l 1,5,-1
 50 50 l 1,6,-1
 50 50 l 1,0,-1
EndSplineSet
EndChar

StartChar: SF080000
Encoding: 9500 9500 151
Width: 60
VWidth: 73
GlyphClass: 1
Flags: W
LayerCount: 2
Fore
SplineSet
30 70 m 1,0,-1
 40 70 l 1,1,-1
 40 40 l 1,2,-1
 60 40 l 1,3,-1
 60 30 l 1,4,-1
 40 30 l 1,5,-1
 40 0 l 1,6,-1
 30 0 l 1,7,-1
 30 70 l 1,0,-1
EndSplineSet
EndChar

StartChar: H18551
Encoding: 9643 9643 152
Width: 60
VWidth: 73
GlyphClass: 1
Flags: W
LayerCount: 2
Fore
SplineSet
20 70 m 1,0,-1
 50 70 l 1,1,-1
 50 40 l 1,2,-1
 20 40 l 1,3,-1
 20 70 l 1,4,-1
 20 70 l 1,0,-1
40 60 m 1,5,-1
 30 60 l 1,6,-1
 30 50 l 1,7,-1
 40 50 l 1,8,-1
 40 60 l 1,5,-1
EndSplineSet
EndChar

StartChar: uni25AE
Encoding: 9646 9646 153
Width: 60
VWidth: 73
GlyphClass: 1
Flags: W
LayerCount: 2
Fore
SplineSet
10 70 m 1,0,-1
 60 70 l 1,1,-1
 60 0 l 1,2,-1
 10 0 l 1,3,-1
 10 70 l 1,4,-1
 10 70 l 1,0,-1
EndSplineSet
EndChar

StartChar: uni25AF
Encoding: 9647 9647 154
Width: 60
VWidth: 73
GlyphClass: 1
Flags: W
LayerCount: 2
Fore
SplineSet
10 70 m 1,0,-1
 60 70 l 1,1,-1
 60 0 l 1,2,-1
 10 0 l 1,3,-1
 10 70 l 1,4,-1
 10 70 l 1,0,-1
30 60 m 1,5,-1
 20 60 l 1,6,-1
 20 10 l 1,7,-1
 50 10 l 1,8,-1
 50 60 l 1,9,-1
 30 60 l 1,10,-1
 30 60 l 1,5,-1
EndSplineSet
EndChar

StartChar: triagup
Encoding: 9650 9650 155
Width: 60
VWidth: 73
GlyphClass: 1
Flags: W
LayerCount: 2
Fore
SplineSet
30 70 m 1,0,-1
 40 70 l 1,1,-1
 40 50 l 1,2,-1
 50 50 l 1,3,-1
 50 30 l 1,4,-1
 60 30 l 1,5,-1
 60 10 l 1,6,-1
 10 10 l 1,7,-1
 10 30 l 1,8,-1
 20 30 l 1,9,-1
 20 50 l 1,10,-1
 30 50 l 1,11,-1
 30 70 l 1,12,-1
 30 70 l 1,0,-1
EndSplineSet
EndChar

StartChar: uni25B6
Encoding: 9654 9654 156
Width: 60
VWidth: 73
GlyphClass: 1
Flags: W
LayerCount: 2
Fore
SplineSet
20 70 m 1,0,-1
 30 70 l 1,1,-1
 30 60 l 1,2,-1
 40 60 l 1,3,-1
 40 50 l 1,4,-1
 50 50 l 1,5,-1
 50 40 l 1,6,-1
 60 40 l 1,7,-1
 60 30 l 1,8,-1
 50 30 l 1,9,-1
 50 20 l 1,10,-1
 40 20 l 1,11,-1
 40 10 l 1,12,-1
 30 10 l 1,13,-1
 30 0 l 1,14,-1
 20 0 l 1,15,-1
 20 70 l 1,16,-1
 20 70 l 1,0,-1
EndSplineSet
EndChar

StartChar: uni25B7
Encoding: 9655 9655 157
Width: 60
VWidth: 73
GlyphClass: 1
Flags: W
LayerCount: 2
Fore
SplineSet
20 70 m 1,0,-1
 30 70 l 1,1,-1
 30 60 l 1,2,-1
 40 60 l 1,3,-1
 40 50 l 1,4,-1
 30 50 l 1,5,-1
 30 20 l 1,6,-1
 40 20 l 1,7,-1
 40 30 l 1,8,-1
 50 30 l 1,9,-1
 50 40 l 1,10,-1
 40 40 l 1,11,-1
 40 50 l 1,12,-1
 50 50 l 1,13,-1
 50 40 l 1,14,-1
 60 40 l 1,15,-1
 60 30 l 1,16,-1
 50 30 l 1,17,-1
 50 20 l 1,18,-1
 40 20 l 1,19,-1
 40 10 l 1,20,-1
 30 10 l 1,21,-1
 30 0 l 1,22,-1
 20 0 l 1,23,-1
 20 70 l 1,24,-1
 20 70 l 1,0,-1
EndSplineSet
EndChar

StartChar: uni25B8
Encoding: 9656 9656 158
Width: 60
VWidth: 73
GlyphClass: 1
Flags: W
LayerCount: 2
Fore
SplineSet
20 60 m 1,0,-1
 30 60 l 1,1,-1
 30 50 l 1,2,-1
 40 50 l 1,3,-1
 40 40 l 1,4,-1
 50 40 l 1,5,-1
 50 30 l 1,6,-1
 40 30 l 1,7,-1
 40 20 l 1,8,-1
 30 20 l 1,9,-1
 30 10 l 1,10,-1
 20 10 l 1,11,-1
 20 60 l 1,12,-1
 20 60 l 1,0,-1
EndSplineSet
EndChar

StartChar: triagdn
Encoding: 9660 9660 159
Width: 60
VWidth: 73
GlyphClass: 1
Flags: W
LayerCount: 2
Fore
SplineSet
10 60 m 1,0,-1
 60 60 l 1,1,-1
 60 40 l 1,2,-1
 50 40 l 1,3,-1
 50 20 l 1,4,-1
 40 20 l 1,5,-1
 40 0 l 1,6,-1
 30 0 l 1,7,-1
 30 20 l 1,8,-1
 20 20 l 1,9,-1
 20 40 l 1,10,-1
 10 40 l 1,11,-1
 10 60 l 1,12,-1
 10 60 l 1,0,-1
EndSplineSet
EndChar

StartChar: uni25C0
Encoding: 9664 9664 160
Width: 60
VWidth: 73
GlyphClass: 1
Flags: W
LayerCount: 2
Fore
SplineSet
40 70 m 1,0,-1
 50 70 l 1,1,-1
 50 0 l 1,2,-1
 40 0 l 1,3,-1
 40 10 l 1,4,-1
 30 10 l 1,5,-1
 30 20 l 1,6,-1
 20 20 l 1,7,-1
 20 30 l 1,8,-1
 10 30 l 1,9,-1
 10 40 l 1,10,-1
 20 40 l 1,11,-1
 20 50 l 1,12,-1
 30 50 l 1,13,-1
 30 60 l 1,14,-1
 40 60 l 1,15,-1
 40 70 l 1,16,-1
 40 70 l 1,0,-1
EndSplineSet
EndChar

StartChar: uni25C1
Encoding: 9665 9665 161
Width: 60
VWidth: 73
GlyphClass: 1
Flags: W
LayerCount: 2
Fore
SplineSet
40 70 m 1,0,-1
 50 70 l 1,1,-1
 50 0 l 1,2,-1
 40 0 l 1,3,-1
 40 10 l 1,4,-1
 30 10 l 1,5,-1
 30 20 l 1,6,-1
 20 20 l 1,7,-1
 20 30 l 1,8,-1
 10 30 l 1,9,-1
 10 40 l 1,10,-1
 20 40 l 1,11,-1
 20 50 l 1,12,-1
 30 50 l 1,13,-1
 30 60 l 1,14,-1
 40 60 l 1,15,-1
 40 70 l 1,16,-1
 40 70 l 1,0,-1
40 50 m 1,17,-1
 30 50 l 1,18,-1
 30 40 l 1,19,-1
 20 40 l 1,20,-1
 20 30 l 1,21,-1
 30 30 l 1,22,-1
 30 20 l 1,23,-1
 40 20 l 1,24,-1
 40 50 l 1,25,-1
 40 50 l 1,17,-1
EndSplineSet
EndChar

StartChar: uniA730
Encoding: 42800 42800 162
Width: 60
VWidth: 73
GlyphClass: 1
Flags: W
LayerCount: 2
Fore
SplineSet
10 50 m 1,0,-1
 60 50 l 1,1,-1
 60 40 l 1,2,-1
 20 40 l 1,3,-1
 20 30 l 1,4,-1
 50 30 l 1,5,-1
 50 20 l 1,6,-1
 20 20 l 1,7,-1
 20 0 l 1,8,-1
 10 0 l 1,9,-1
 10 50 l 1,10,-1
 10 50 l 1,0,-1
EndSplineSet
EndChar

StartChar: uniE010
Encoding: 57360 57360 163
Width: 60
VWidth: 73
GlyphClass: 1
Flags: W
LayerCount: 2
Fore
SplineSet
20 50 m 1,0,-1
 30 50 l 1,1,-1
 30 40 l 1,2,-1
 20 40 l 1,3,-1
 20 50 l 1,0,-1
50 50 m 1,4,-1
 60 50 l 1,5,-1
 60 40 l 1,6,-1
 50 40 l 1,7,-1
 50 50 l 1,8,-1
 50 50 l 1,4,-1
10 40 m 1,9,-1
 20 40 l 1,10,-1
 20 30 l 1,11,-1
 10 30 l 1,12,-1
 10 40 l 1,9,-1
30 40 m 1,13,-1
 50 40 l 1,14,-1
 50 30 l 1,15,-1
 40 30 l 1,16,-1
 40 10 l 1,17,-1
 20 10 l 1,18,-1
 20 20 l 1,19,-1
 30 20 l 1,20,-1
 30 40 l 1,21,-1
 30 40 l 1,13,-1
50 20 m 1,22,-1
 60 20 l 1,23,-1
 60 10 l 1,24,-1
 50 10 l 1,25,-1
 50 20 l 1,26,-1
 50 20 l 1,22,-1
10 10 m 1,27,-1
 20 10 l 1,28,-1
 20 0 l 1,29,-1
 10 0 l 1,30,-1
 10 10 l 1,31,-1
 10 10 l 1,27,-1
40 10 m 1,32,-1
 50 10 l 1,33,-1
 50 0 l 1,34,-1
 40 0 l 1,35,-1
 40 10 l 1,36,-1
 40 10 l 1,32,-1
EndSplineSet
EndChar

StartChar: uniE011
Encoding: 57361 57361 164
Width: 60
VWidth: 73
GlyphClass: 1
Flags: W
LayerCount: 2
Fore
SplineSet
20 50 m 1,0,-1
 40 50 l 1,1,-1
 40 30 l 1,2,-1
 50 30 l 1,3,-1
 50 50 l 1,4,-1
 60 50 l 1,5,-1
 60 30 l 1,6,-1
 50 30 l 1,7,-1
 50 20 l 1,8,-1
 40 20 l 1,9,-1
 40 10 l 1,10,-1
 30 10 l 1,11,-1
 30 40 l 1,12,-1
 20 40 l 1,13,-1
 20 50 l 1,14,-1
 20 50 l 1,0,-1
10 20 m 1,15,-1
 20 20 l 1,16,-1
 20 10 l 1,17,-1
 10 10 l 1,18,-1
 10 20 l 1,19,-1
 10 20 l 1,15,-1
20 10 m 1,20,-1
 30 10 l 1,21,-1
 30 0 l 1,22,-1
 20 0 l 1,23,-1
 20 10 l 1,24,-1
 20 10 l 1,20,-1
EndSplineSet
EndChar

StartChar: uniE012
Encoding: 57362 57362 165
Width: 60
VWidth: 73
GlyphClass: 1
Flags: W
LayerCount: 2
Fore
SplineSet
20 50 m 1,0,-1
 60 50 l 1,1,-1
 60 40 l 1,2,-1
 50 40 l 1,3,-1
 50 30 l 1,4,-1
 40 30 l 1,5,-1
 40 40 l 1,6,-1
 20 40 l 1,7,-1
 20 50 l 1,0,-1
10 40 m 1,8,-1
 20 40 l 1,9,-1
 20 30 l 1,10,-1
 10 30 l 1,11,-1
 10 40 l 1,8,-1
30 30 m 1,12,-1
 40 30 l 1,13,-1
 40 20 l 1,14,-1
 30 20 l 1,15,-1
 30 30 l 1,12,-1
20 20 m 1,16,-1
 30 20 l 1,17,-1
 30 10 l 1,18,-1
 50 10 l 1,19,-1
 50 20 l 1,20,-1
 60 20 l 1,21,-1
 60 10 l 1,22,-1
 50 10 l 1,23,-1
 50 0 l 1,24,-1
 10 0 l 1,25,-1
 10 10 l 1,26,-1
 20 10 l 1,27,-1
 20 20 l 1,28,-1
 20 20 l 1,16,-1
EndSplineSet
EndChar

StartChar: uniE013
Encoding: 57363 57363 166
Width: 60
VWidth: 73
GlyphClass: 1
Flags: W
LayerCount: 2
Fore
SplineSet
10 40 m 1,0,-1
 20 40 l 1,1,-1
 20 30 l 1,2,-1
 10 30 l 1,3,-1
 10 40 l 1,0,-1
30 40 m 1,4,-1
 40 40 l 1,5,-1
 40 30 l 1,6,-1
 30 30 l 1,7,-1
 30 40 l 1,4,-1
50 40 m 1,8,-1
 60 40 l 1,9,-1
 60 30 l 1,10,-1
 50 30 l 1,11,-1
 50 40 l 1,12,-1
 50 40 l 1,8,-1
EndSplineSet
EndChar

StartChar: uniE014
Encoding: 57364 57364 167
Width: 60
VWidth: 73
GlyphClass: 1
Flags: W
LayerCount: 2
Fore
SplineSet
30 70 m 1,0,-1
 40 70 l 1,1,-1
 40 50 l 1,2,-1
 50 50 l 1,3,-1
 50 30 l 1,4,-1
 60 30 l 1,5,-1
 60 10 l 1,6,-1
 10 10 l 1,7,-1
 10 30 l 1,8,-1
 20 30 l 1,9,-1
 20 50 l 1,10,-1
 30 50 l 1,11,-1
 30 70 l 1,12,-1
 30 70 l 1,0,-1
EndSplineSet
EndChar

StartChar: uniE015
Encoding: 57365 57365 168
Width: 60
VWidth: 73
GlyphClass: 1
Flags: W
LayerCount: 2
Fore
SplineSet
10 60 m 1,0,-1
 60 60 l 1,1,-1
 60 40 l 1,2,-1
 50 40 l 1,3,-1
 50 20 l 1,4,-1
 40 20 l 1,5,-1
 40 0 l 1,6,-1
 30 0 l 1,7,-1
 30 20 l 1,8,-1
 20 20 l 1,9,-1
 20 40 l 1,10,-1
 10 40 l 1,11,-1
 10 60 l 1,12,-1
 10 60 l 1,0,-1
EndSplineSet
EndChar

StartChar: uniE016
Encoding: 57366 57366 169
Width: 60
VWidth: 73
GlyphClass: 1
Flags: W
LayerCount: 2
Fore
SplineSet
20 60 m 1,0,-1
 30 60 l 1,1,-1
 30 50 l 1,2,-1
 40 50 l 1,3,-1
 40 40 l 1,4,-1
 50 40 l 1,5,-1
 50 30 l 1,6,-1
 40 30 l 1,7,-1
 40 20 l 1,8,-1
 30 20 l 1,9,-1
 30 10 l 1,10,-1
 20 10 l 1,11,-1
 20 60 l 1,12,-1
 20 60 l 1,0,-1
EndSplineSet
EndChar

StartChar: uniE017
Encoding: 57367 57367 170
Width: 60
VWidth: 73
GlyphClass: 1
Flags: W
LayerCount: 2
Fore
SplineSet
10 30 m 1,0,-1
 50 30 l 1,1,-1
 50 20 l 1,2,-1
 10 20 l 1,3,-1
 10 30 l 1,4,-1
 10 30 l 1,0,-1
EndSplineSet
EndChar

StartChar: uniE018
Encoding: 57368 57368 171
Width: 60
VWidth: 73
GlyphClass: 1
Flags: W
LayerCount: 2
Fore
SplineSet
30 70 m 1,0,-1
 40 70 l 1,1,-1
 40 60 l 1,2,-1
 60 60 l 1,3,-1
 60 50 l 1,4,-1
 40 50 l 1,5,-1
 40 40 l 1,6,-1
 50 40 l 1,7,-1
 50 30 l 1,8,-1
 40 30 l 1,9,-1
 40 20 l 1,10,-1
 50 20 l 1,11,-1
 50 30 l 1,12,-1
 60 30 l 1,13,-1
 60 20 l 1,14,-1
 50 20 l 1,15,-1
 50 10 l 1,16,-1
 40 10 l 1,17,-1
 40 0 l 1,18,-1
 30 0 l 1,19,-1
 30 10 l 1,20,-1
 10 10 l 1,21,-1
 10 20 l 1,22,-1
 30 20 l 1,23,-1
 30 30 l 1,24,-1
 20 30 l 1,25,-1
 20 40 l 1,26,-1
 10 40 l 1,27,-1
 10 50 l 1,28,-1
 20 50 l 1,29,-1
 20 60 l 1,30,-1
 30 60 l 1,31,-1
 30 70 l 1,0,-1
30 50 m 1,32,-1
 20 50 l 1,33,-1
 20 40 l 1,34,-1
 30 40 l 1,35,-1
 30 50 l 1,32,-1
EndSplineSet
EndChar

StartChar: uniE019
Encoding: 57369 57369 172
Width: 60
VWidth: 73
GlyphClass: 1
Flags: W
LayerCount: 2
Fore
SplineSet
40 70 m 1,0,-1
 50 70 l 1,1,-1
 50 0 l 1,2,-1
 40 0 l 1,3,-1
 40 10 l 1,4,-1
 30 10 l 1,5,-1
 30 20 l 1,6,-1
 20 20 l 1,7,-1
 20 30 l 1,8,-1
 10 30 l 1,9,-1
 10 40 l 1,10,-1
 20 40 l 1,11,-1
 20 50 l 1,12,-1
 30 50 l 1,13,-1
 30 60 l 1,14,-1
 40 60 l 1,15,-1
 40 70 l 1,16,-1
 40 70 l 1,0,-1
40 50 m 1,17,-1
 30 50 l 1,18,-1
 30 40 l 1,19,-1
 20 40 l 1,20,-1
 20 30 l 1,21,-1
 30 30 l 1,22,-1
 30 20 l 1,23,-1
 40 20 l 1,24,-1
 40 50 l 1,25,-1
 40 50 l 1,17,-1
EndSplineSet
EndChar

StartChar: uniE01A
Encoding: 57370 57370 173
Width: 60
VWidth: 73
GlyphClass: 1
Flags: W
LayerCount: 2
Fore
SplineSet
30 70 m 1,0,-1
 40 70 l 1,1,-1
 40 60 l 1,2,-1
 30 60 l 1,3,-1
 30 70 l 1,0,-1
20 60 m 1,4,-1
 30 60 l 1,5,-1
 30 40 l 1,6,-1
 40 40 l 1,7,-1
 40 60 l 1,8,-1
 50 60 l 1,9,-1
 50 40 l 1,10,-1
 40 40 l 1,11,-1
 40 20 l 1,12,-1
 30 20 l 1,13,-1
 30 30 l 1,14,-1
 20 30 l 1,15,-1
 20 60 l 1,16,-1
 20 60 l 1,4,-1
10 30 m 1,17,-1
 20 30 l 1,18,-1
 20 10 l 1,19,-1
 10 10 l 1,20,-1
 10 30 l 1,17,-1
50 30 m 1,21,-1
 60 30 l 1,22,-1
 60 20 l 1,23,-1
 50 20 l 1,24,-1
 50 30 l 1,25,-1
 50 30 l 1,21,-1
40 20 m 1,26,-1
 50 20 l 1,27,-1
 50 10 l 1,28,-1
 40 10 l 1,29,-1
 40 20 l 1,30,-1
 40 20 l 1,26,-1
20 10 m 1,31,-1
 40 10 l 1,32,-1
 40 0 l 1,33,-1
 20 0 l 1,34,-1
 20 10 l 1,35,-1
 20 10 l 1,31,-1
50 10 m 1,36,-1
 60 10 l 1,37,-1
 60 0 l 1,38,-1
 50 0 l 1,39,-1
 50 10 l 1,40,-1
 50 10 l 1,36,-1
EndSplineSet
EndChar

StartChar: uniE01B
Encoding: 57371 57371 174
Width: 60
VWidth: 73
GlyphClass: 1
Flags: W
LayerCount: 2
Fore
SplineSet
30 70 m 1,0,-1
 40 70 l 1,1,-1
 40 60 l 1,2,-1
 30 60 l 1,3,-1
 30 70 l 1,0,-1
20 60 m 1,4,-1
 30 60 l 1,5,-1
 30 50 l 1,6,-1
 50 50 l 1,7,-1
 50 40 l 1,8,-1
 30 40 l 1,9,-1
 30 30 l 1,10,-1
 20 30 l 1,11,-1
 20 40 l 1,12,-1
 10 40 l 1,13,-1
 10 50 l 1,14,-1
 20 50 l 1,15,-1
 20 60 l 1,16,-1
 20 60 l 1,4,-1
10 30 m 1,17,-1
 20 30 l 1,18,-1
 20 10 l 1,19,-1
 10 10 l 1,20,-1
 10 30 l 1,17,-1
40 20 m 1,21,-1
 50 20 l 1,22,-1
 50 10 l 1,23,-1
 40 10 l 1,24,-1
 40 20 l 1,25,-1
 40 20 l 1,21,-1
20 10 m 1,26,-1
 40 10 l 1,27,-1
 40 0 l 1,28,-1
 20 0 l 1,29,-1
 20 10 l 1,30,-1
 20 10 l 1,26,-1
EndSplineSet
EndChar

StartChar: uniE01C
Encoding: 57372 57372 175
Width: 60
VWidth: 73
GlyphClass: 1
Flags: W
LayerCount: 2
Fore
SplineSet
10 50 m 1,0,-1
 60 50 l 1,1,-1
 60 40 l 1,2,-1
 40 40 l 1,3,-1
 40 0 l 1,4,-1
 30 0 l 1,5,-1
 30 40 l 1,6,-1
 10 40 l 1,7,-1
 10 50 l 1,8,-1
 10 50 l 1,0,-1
EndSplineSet
EndChar

StartChar: uniE01D
Encoding: 57373 57373 176
Width: 60
VWidth: 73
GlyphClass: 1
Flags: W
LayerCount: 2
Fore
SplineSet
20 50 m 1,0,-1
 30 50 l 1,1,-1
 30 40 l 1,2,-1
 50 40 l 1,3,-1
 50 30 l 1,4,-1
 30 30 l 1,5,-1
 30 10 l 1,6,-1
 20 10 l 1,7,-1
 20 30 l 1,8,-1
 10 30 l 1,9,-1
 10 40 l 1,10,-1
 20 40 l 1,11,-1
 20 50 l 1,12,-1
 20 50 l 1,0,-1
30 10 m 1,13,-1
 50 10 l 1,14,-1
 50 0 l 1,15,-1
 30 0 l 1,16,-1
 30 10 l 1,17,-1
 30 10 l 1,13,-1
EndSplineSet
EndChar

StartChar: uniE01E
Encoding: 57374 57374 177
Width: 60
VWidth: 73
GlyphClass: 1
Flags: W
LayerCount: 2
Fore
SplineSet
10 60 m 1,0,-1
 20 60 l 1,1,-1
 20 40 l 1,2,-1
 40 40 l 1,3,-1
 40 30 l 1,4,-1
 20 30 l 1,5,-1
 20 0 l 1,6,-1
 10 0 l 1,7,-1
 10 60 l 1,8,-1
 10 60 l 1,0,-1
40 30 m 1,9,-1
 50 30 l 1,10,-1
 50 0 l 1,11,-1
 40 0 l 1,12,-1
 40 30 l 1,9,-1
EndSplineSet
EndChar

StartChar: uniE01F
Encoding: 57375 57375 178
Width: 60
VWidth: 73
GlyphClass: 1
Flags: W
LayerCount: 2
Fore
SplineSet
10 50 m 1,0,-1
 50 50 l 1,1,-1
 50 40 l 1,2,-1
 20 40 l 1,3,-1
 20 30 l 1,4,-1
 40 30 l 1,5,-1
 40 20 l 1,6,-1
 10 20 l 1,7,-1
 10 50 l 1,8,-1
 10 50 l 1,0,-1
40 20 m 1,9,-1
 50 20 l 1,10,-1
 50 10 l 1,11,-1
 40 10 l 1,12,-1
 40 20 l 1,13,-1
 40 20 l 1,9,-1
10 10 m 1,14,-1
 40 10 l 1,15,-1
 40 0 l 1,16,-1
 10 0 l 1,17,-1
 10 10 l 1,18,-1
 10 10 l 1,14,-1
EndSplineSet
EndChar

StartChar: uniE020
Encoding: 57376 57376 179
Width: 60
VWidth: 73
GlyphClass: 1
Flags: W
LayerCount: 2
Fore
SplineSet
0 0 m 1,0,-1
 0 0 l 1,1,-1
 0 0 l 1,2,-1
 0 0 l 1,0,-1
EndSplineSet
EndChar

StartChar: uniE021
Encoding: 57377 57377 180
Width: 60
VWidth: 73
GlyphClass: 1
Flags: W
LayerCount: 2
Fore
SplineSet
30 70 m 1,0,-1
 40 70 l 1,1,-1
 40 20 l 1,2,-1
 30 20 l 1,3,-1
 30 70 l 1,0,-1
30 10 m 1,4,-1
 40 10 l 1,5,-1
 40 0 l 1,6,-1
 30 0 l 1,7,-1
 30 10 l 1,8,-1
 30 10 l 1,4,-1
EndSplineSet
EndChar

StartChar: uniE022
Encoding: 57378 57378 181
Width: 60
VWidth: 73
GlyphClass: 1
Flags: W
LayerCount: 2
Fore
SplineSet
10 70 m 1,0,-1
 30 70 l 1,1,-1
 30 50 l 1,2,-1
 20 50 l 1,3,-1
 20 60 l 1,4,-1
 10 60 l 1,5,-1
 10 70 l 1,6,-1
 10 70 l 1,0,-1
40 70 m 1,7,-1
 60 70 l 1,8,-1
 60 50 l 1,9,-1
 50 50 l 1,10,-1
 50 60 l 1,11,-1
 40 60 l 1,12,-1
 40 70 l 1,13,-1
 40 70 l 1,7,-1
10 50 m 1,14,-1
 20 50 l 1,15,-1
 20 40 l 1,16,-1
 10 40 l 1,17,-1
 10 50 l 1,14,-1
40 50 m 1,18,-1
 50 50 l 1,19,-1
 50 40 l 1,20,-1
 40 40 l 1,21,-1
 40 50 l 1,18,-1
EndSplineSet
EndChar

StartChar: uniE023
Encoding: 57379 57379 182
Width: 60
VWidth: 73
GlyphClass: 1
Flags: W
LayerCount: 2
Fore
SplineSet
20 70 m 1,0,-1
 30 70 l 1,1,-1
 30 60 l 1,2,-1
 40 60 l 1,3,-1
 40 70 l 1,4,-1
 50 70 l 1,5,-1
 50 60 l 1,6,-1
 60 60 l 1,7,-1
 60 50 l 1,8,-1
 50 50 l 1,9,-1
 50 20 l 1,10,-1
 60 20 l 1,11,-1
 60 10 l 1,12,-1
 50 10 l 1,13,-1
 50 0 l 1,14,-1
 40 0 l 1,15,-1
 40 10 l 1,16,-1
 30 10 l 1,17,-1
 30 0 l 1,18,-1
 20 0 l 1,19,-1
 20 10 l 1,20,-1
 10 10 l 1,21,-1
 10 20 l 1,22,-1
 20 20 l 1,23,-1
 20 50 l 1,24,-1
 10 50 l 1,25,-1
 10 60 l 1,26,-1
 20 60 l 1,27,-1
 20 70 l 1,0,-1
40 50 m 1,28,-1
 30 50 l 1,29,-1
 30 20 l 1,30,-1
 40 20 l 1,31,-1
 40 50 l 1,32,-1
 40 50 l 1,28,-1
EndSplineSet
EndChar

StartChar: uniE024
Encoding: 57380 57380 183
Width: 60
VWidth: 73
GlyphClass: 1
Flags: W
LayerCount: 2
Fore
SplineSet
10 60 m 1,0,-1
 20 60 l 1,1,-1
 20 50 l 1,2,-1
 10 50 l 1,3,-1
 10 60 l 1,0,-1
50 60 m 1,4,-1
 60 60 l 1,5,-1
 60 50 l 1,6,-1
 50 50 l 1,7,-1
 50 60 l 1,8,-1
 50 60 l 1,4,-1
20 50 m 1,9,-1
 30 50 l 1,10,-1
 30 40 l 1,11,-1
 20 40 l 1,12,-1
 20 50 l 1,9,-1
40 50 m 1,13,-1
 50 50 l 1,14,-1
 50 40 l 1,15,-1
 40 40 l 1,16,-1
 40 50 l 1,13,-1
30 40 m 1,17,-1
 40 40 l 1,18,-1
 40 30 l 1,19,-1
 30 30 l 1,20,-1
 30 40 l 1,17,-1
20 30 m 1,21,-1
 30 30 l 1,22,-1
 30 20 l 1,23,-1
 20 20 l 1,24,-1
 20 30 l 1,21,-1
40 30 m 1,25,-1
 50 30 l 1,26,-1
 50 20 l 1,27,-1
 40 20 l 1,28,-1
 40 30 l 1,25,-1
10 20 m 1,29,-1
 20 20 l 1,30,-1
 20 10 l 1,31,-1
 10 10 l 1,32,-1
 10 20 l 1,33,-1
 10 20 l 1,29,-1
50 20 m 1,34,-1
 60 20 l 1,35,-1
 60 10 l 1,36,-1
 50 10 l 1,37,-1
 50 20 l 1,38,-1
 50 20 l 1,34,-1
EndSplineSet
EndChar

StartChar: uniE025
Encoding: 57381 57381 184
Width: 60
VWidth: 73
GlyphClass: 1
Flags: W
LayerCount: 2
Fore
SplineSet
10 70 m 1,0,-1
 30 70 l 1,1,-1
 30 50 l 1,2,-1
 10 50 l 1,3,-1
 10 70 l 1,0,-1
50 60 m 1,4,-1
 60 60 l 1,5,-1
 60 50 l 1,6,-1
 50 50 l 1,7,-1
 50 60 l 1,8,-1
 50 60 l 1,4,-1
40 50 m 1,9,-1
 50 50 l 1,10,-1
 50 40 l 1,11,-1
 40 40 l 1,12,-1
 40 50 l 1,9,-1
30 40 m 1,13,-1
 40 40 l 1,14,-1
 40 30 l 1,15,-1
 30 30 l 1,16,-1
 30 40 l 1,13,-1
20 30 m 1,17,-1
 30 30 l 1,18,-1
 30 20 l 1,19,-1
 20 20 l 1,20,-1
 20 30 l 1,17,-1
10 20 m 1,21,-1
 20 20 l 1,22,-1
 20 10 l 1,23,-1
 10 10 l 1,24,-1
 10 20 l 1,25,-1
 10 20 l 1,21,-1
40 20 m 1,26,-1
 60 20 l 1,27,-1
 60 0 l 1,28,-1
 40 0 l 1,29,-1
 40 20 l 1,26,-1
EndSplineSet
EndChar

StartChar: uniE026
Encoding: 57382 57382 185
Width: 60
VWidth: 73
GlyphClass: 1
Flags: W
LayerCount: 2
Fore
SplineSet
30 60 m 1,0,-1
 40 60 l 1,1,-1
 40 50 l 1,2,-1
 30 50 l 1,3,-1
 30 60 l 1,0,-1
10 40 m 1,4,-1
 60 40 l 1,5,-1
 60 30 l 1,6,-1
 10 30 l 1,7,-1
 10 40 l 1,8,-1
 10 40 l 1,4,-1
30 20 m 1,9,-1
 40 20 l 1,10,-1
 40 10 l 1,11,-1
 30 10 l 1,12,-1
 30 20 l 1,13,-1
 30 20 l 1,9,-1
EndSplineSet
EndChar

StartChar: uniE027
Encoding: 57383 57383 186
Width: 60
VWidth: 73
GlyphClass: 1
Flags: W
LayerCount: 2
Fore
SplineSet
20 70 m 1,0,-1
 40 70 l 1,1,-1
 40 50 l 1,2,-1
 30 50 l 1,3,-1
 30 60 l 1,4,-1
 20 60 l 1,5,-1
 20 70 l 1,6,-1
 20 70 l 1,0,-1
20 50 m 1,7,-1
 30 50 l 1,8,-1
 30 40 l 1,9,-1
 20 40 l 1,10,-1
 20 50 l 1,7,-1
EndSplineSet
EndChar

StartChar: uniE028
Encoding: 57384 57384 187
Width: 60
VWidth: 73
GlyphClass: 1
Flags: W
LayerCount: 2
Fore
SplineSet
40 70 m 1,0,-1
 50 70 l 1,1,-1
 50 60 l 1,2,-1
 40 60 l 1,3,-1
 40 70 l 1,0,-1
30 60 m 1,4,-1
 40 60 l 1,5,-1
 40 50 l 1,6,-1
 30 50 l 1,7,-1
 30 60 l 1,4,-1
20 50 m 1,8,-1
 30 50 l 1,9,-1
 30 20 l 1,10,-1
 20 20 l 1,11,-1
 20 50 l 1,12,-1
 20 50 l 1,8,-1
30 20 m 1,13,-1
 40 20 l 1,14,-1
 40 10 l 1,15,-1
 30 10 l 1,16,-1
 30 20 l 1,17,-1
 30 20 l 1,13,-1
40 10 m 1,18,-1
 50 10 l 1,19,-1
 50 0 l 1,20,-1
 40 0 l 1,21,-1
 40 10 l 1,22,-1
 40 10 l 1,18,-1
EndSplineSet
EndChar

StartChar: uniE029
Encoding: 57385 57385 188
Width: 60
VWidth: 73
GlyphClass: 1
Flags: W
LayerCount: 2
Fore
SplineSet
20 70 m 1,0,-1
 30 70 l 1,1,-1
 30 60 l 1,2,-1
 20 60 l 1,3,-1
 20 70 l 1,0,-1
30 60 m 1,4,-1
 40 60 l 1,5,-1
 40 50 l 1,6,-1
 30 50 l 1,7,-1
 30 60 l 1,4,-1
40 50 m 1,8,-1
 50 50 l 1,9,-1
 50 20 l 1,10,-1
 40 20 l 1,11,-1
 40 50 l 1,12,-1
 40 50 l 1,8,-1
30 20 m 1,13,-1
 40 20 l 1,14,-1
 40 10 l 1,15,-1
 30 10 l 1,16,-1
 30 20 l 1,17,-1
 30 20 l 1,13,-1
20 10 m 1,18,-1
 30 10 l 1,19,-1
 30 0 l 1,20,-1
 20 0 l 1,21,-1
 20 10 l 1,22,-1
 20 10 l 1,18,-1
EndSplineSet
EndChar

StartChar: uniE02A
Encoding: 57386 57386 189
Width: 60
VWidth: 73
GlyphClass: 1
Flags: W
LayerCount: 2
Fore
SplineSet
30 40 m 1,0,-1
 50 40 l 1,1,-1
 50 20 l 1,2,-1
 30 20 l 1,3,-1
 30 40 l 1,4,-1
 30 40 l 1,0,-1
EndSplineSet
EndChar

StartChar: uniE02B
Encoding: 57387 57387 190
Width: 60
VWidth: 73
GlyphClass: 1
Flags: W
LayerCount: 2
Fore
SplineSet
30 60 m 1,0,-1
 40 60 l 1,1,-1
 40 40 l 1,2,-1
 60 40 l 1,3,-1
 60 30 l 1,4,-1
 40 30 l 1,5,-1
 40 10 l 1,6,-1
 30 10 l 1,7,-1
 30 30 l 1,8,-1
 10 30 l 1,9,-1
 10 40 l 1,10,-1
 30 40 l 1,11,-1
 30 60 l 1,0,-1
EndSplineSet
EndChar

StartChar: uniE02C
Encoding: 57388 57388 191
Width: 60
VWidth: 73
GlyphClass: 1
Flags: W
LayerCount: 2
Fore
SplineSet
20 30 m 1,0,-1
 40 30 l 1,1,-1
 40 10 l 1,2,-1
 30 10 l 1,3,-1
 30 20 l 1,4,-1
 20 20 l 1,5,-1
 20 30 l 1,6,-1
 20 30 l 1,0,-1
20 10 m 1,7,-1
 30 10 l 1,8,-1
 30 0 l 1,9,-1
 20 0 l 1,10,-1
 20 10 l 1,11,-1
 20 10 l 1,7,-1
EndSplineSet
EndChar

StartChar: uniE02D
Encoding: 57389 57389 192
Width: 60
VWidth: 73
GlyphClass: 1
Flags: W
LayerCount: 2
Fore
SplineSet
10 40 m 1,0,-1
 60 40 l 1,1,-1
 60 30 l 1,2,-1
 10 30 l 1,3,-1
 10 40 l 1,4,-1
 10 40 l 1,0,-1
EndSplineSet
EndChar

StartChar: uniE02E
Encoding: 57390 57390 193
Width: 60
VWidth: 73
GlyphClass: 1
Flags: W
LayerCount: 2
Fore
SplineSet
20 20 m 1,0,-1
 40 20 l 1,1,-1
 40 0 l 1,2,-1
 20 0 l 1,3,-1
 20 20 l 1,0,-1
EndSplineSet
EndChar

StartChar: uniE02F
Encoding: 57391 57391 194
Width: 60
VWidth: 73
GlyphClass: 1
Flags: W
LayerCount: 2
Fore
SplineSet
50 60 m 1,0,-1
 60 60 l 1,1,-1
 60 50 l 1,2,-1
 50 50 l 1,3,-1
 50 60 l 1,4,-1
 50 60 l 1,0,-1
40 50 m 1,5,-1
 50 50 l 1,6,-1
 50 40 l 1,7,-1
 40 40 l 1,8,-1
 40 50 l 1,5,-1
30 40 m 1,9,-1
 40 40 l 1,10,-1
 40 30 l 1,11,-1
 30 30 l 1,12,-1
 30 40 l 1,9,-1
20 30 m 1,13,-1
 30 30 l 1,14,-1
 30 20 l 1,15,-1
 20 20 l 1,16,-1
 20 30 l 1,13,-1
10 20 m 1,17,-1
 20 20 l 1,18,-1
 20 10 l 1,19,-1
 10 10 l 1,20,-1
 10 20 l 1,21,-1
 10 20 l 1,17,-1
EndSplineSet
EndChar

StartChar: uniE030
Encoding: 57392 57392 195
Width: 60
VWidth: 73
GlyphClass: 1
Flags: W
LayerCount: 2
Fore
SplineSet
20 70 m 1,0,-1
 50 70 l 1,1,-1
 50 60 l 1,2,-1
 20 60 l 1,3,-1
 20 70 l 1,4,-1
 20 70 l 1,0,-1
10 60 m 1,5,-1
 20 60 l 1,6,-1
 20 10 l 1,7,-1
 10 10 l 1,8,-1
 10 60 l 1,9,-1
 10 60 l 1,5,-1
50 60 m 1,10,-1
 60 60 l 1,11,-1
 60 10 l 1,12,-1
 50 10 l 1,13,-1
 50 60 l 1,14,-1
 50 60 l 1,10,-1
20 10 m 1,15,-1
 50 10 l 1,16,-1
 50 0 l 1,17,-1
 20 0 l 1,18,-1
 20 10 l 1,19,-1
 20 10 l 1,15,-1
EndSplineSet
EndChar

StartChar: uniE031
Encoding: 57393 57393 196
Width: 60
VWidth: 73
GlyphClass: 1
Flags: W
LayerCount: 2
Fore
SplineSet
30 70 m 1,0,-1
 40 70 l 1,1,-1
 40 10 l 1,2,-1
 50 10 l 1,3,-1
 50 0 l 1,4,-1
 20 0 l 1,5,-1
 20 10 l 1,6,-1
 30 10 l 1,7,-1
 30 50 l 1,8,-1
 20 50 l 1,9,-1
 20 60 l 1,10,-1
 30 60 l 1,11,-1
 30 70 l 1,12,-1
 30 70 l 1,0,-1
EndSplineSet
EndChar

StartChar: uniE032
Encoding: 57394 57394 197
Width: 60
VWidth: 73
GlyphClass: 1
Flags: W
LayerCount: 2
Fore
SplineSet
20 70 m 1,0,-1
 50 70 l 1,1,-1
 50 60 l 1,2,-1
 20 60 l 1,3,-1
 20 70 l 1,4,-1
 20 70 l 1,0,-1
10 60 m 1,5,-1
 20 60 l 1,6,-1
 20 50 l 1,7,-1
 10 50 l 1,8,-1
 10 60 l 1,5,-1
50 60 m 1,9,-1
 60 60 l 1,10,-1
 60 40 l 1,11,-1
 50 40 l 1,12,-1
 50 60 l 1,13,-1
 50 60 l 1,9,-1
40 40 m 1,14,-1
 50 40 l 1,15,-1
 50 30 l 1,16,-1
 40 30 l 1,17,-1
 40 40 l 1,14,-1
30 30 m 1,18,-1
 40 30 l 1,19,-1
 40 20 l 1,20,-1
 30 20 l 1,21,-1
 30 30 l 1,18,-1
20 20 m 1,22,-1
 30 20 l 1,23,-1
 30 10 l 1,24,-1
 60 10 l 1,25,-1
 60 0 l 1,26,-1
 10 0 l 1,27,-1
 10 10 l 1,28,-1
 20 10 l 1,29,-1
 20 20 l 1,30,-1
 20 20 l 1,22,-1
EndSplineSet
EndChar

StartChar: uniE033
Encoding: 57395 57395 198
Width: 60
VWidth: 73
GlyphClass: 1
Flags: W
LayerCount: 2
Fore
SplineSet
20 70 m 1,0,-1
 50 70 l 1,1,-1
 50 60 l 1,2,-1
 20 60 l 1,3,-1
 20 70 l 1,4,-1
 20 70 l 1,0,-1
10 60 m 1,5,-1
 20 60 l 1,6,-1
 20 50 l 1,7,-1
 10 50 l 1,8,-1
 10 60 l 1,5,-1
50 60 m 1,9,-1
 60 60 l 1,10,-1
 60 40 l 1,11,-1
 50 40 l 1,12,-1
 50 60 l 1,13,-1
 50 60 l 1,9,-1
30 40 m 1,14,-1
 50 40 l 1,15,-1
 50 30 l 1,16,-1
 30 30 l 1,17,-1
 30 40 l 1,18,-1
 30 40 l 1,14,-1
50 30 m 1,19,-1
 60 30 l 1,20,-1
 60 10 l 1,21,-1
 50 10 l 1,22,-1
 50 30 l 1,23,-1
 50 30 l 1,19,-1
10 20 m 1,24,-1
 20 20 l 1,25,-1
 20 10 l 1,26,-1
 10 10 l 1,27,-1
 10 20 l 1,28,-1
 10 20 l 1,24,-1
20 10 m 1,29,-1
 50 10 l 1,30,-1
 50 0 l 1,31,-1
 20 0 l 1,32,-1
 20 10 l 1,33,-1
 20 10 l 1,29,-1
EndSplineSet
EndChar

StartChar: uniE034
Encoding: 57396 57396 199
Width: 60
VWidth: 73
GlyphClass: 1
Flags: W
LayerCount: 2
Fore
SplineSet
40 70 m 1,0,-1
 50 70 l 1,1,-1
 50 20 l 1,2,-1
 60 20 l 1,3,-1
 60 10 l 1,4,-1
 50 10 l 1,5,-1
 50 0 l 1,6,-1
 40 0 l 1,7,-1
 40 10 l 1,8,-1
 10 10 l 1,9,-1
 10 30 l 1,10,-1
 20 30 l 1,11,-1
 20 50 l 1,12,-1
 30 50 l 1,13,-1
 30 60 l 1,14,-1
 40 60 l 1,15,-1
 40 70 l 1,16,-1
 40 70 l 1,0,-1
40 50 m 1,17,-1
 30 50 l 1,18,-1
 30 30 l 1,19,-1
 20 30 l 1,20,-1
 20 20 l 1,21,-1
 40 20 l 1,22,-1
 40 50 l 1,23,-1
 40 50 l 1,17,-1
EndSplineSet
EndChar

StartChar: uniE035
Encoding: 57397 57397 200
Width: 60
VWidth: 73
GlyphClass: 1
Flags: W
LayerCount: 2
Fore
SplineSet
10 70 m 1,0,-1
 60 70 l 1,1,-1
 60 60 l 1,2,-1
 20 60 l 1,3,-1
 20 50 l 1,4,-1
 50 50 l 1,5,-1
 50 40 l 1,6,-1
 10 40 l 1,7,-1
 10 70 l 1,8,-1
 10 70 l 1,0,-1
50 40 m 1,9,-1
 60 40 l 1,10,-1
 60 10 l 1,11,-1
 50 10 l 1,12,-1
 50 40 l 1,13,-1
 50 40 l 1,9,-1
10 20 m 1,14,-1
 20 20 l 1,15,-1
 20 10 l 1,16,-1
 10 10 l 1,17,-1
 10 20 l 1,18,-1
 10 20 l 1,14,-1
20 10 m 1,19,-1
 50 10 l 1,20,-1
 50 0 l 1,21,-1
 20 0 l 1,22,-1
 20 10 l 1,23,-1
 20 10 l 1,19,-1
EndSplineSet
EndChar

StartChar: uniE036
Encoding: 57398 57398 201
Width: 60
VWidth: 73
GlyphClass: 1
Flags: W
LayerCount: 2
Fore
SplineSet
30 70 m 1,0,-1
 50 70 l 1,1,-1
 50 60 l 1,2,-1
 30 60 l 1,3,-1
 30 70 l 1,4,-1
 30 70 l 1,0,-1
20 60 m 1,5,-1
 30 60 l 1,6,-1
 30 50 l 1,7,-1
 20 50 l 1,8,-1
 20 60 l 1,5,-1
10 50 m 1,9,-1
 20 50 l 1,10,-1
 20 40 l 1,11,-1
 50 40 l 1,12,-1
 50 30 l 1,13,-1
 20 30 l 1,14,-1
 20 10 l 1,15,-1
 10 10 l 1,16,-1
 10 50 l 1,17,-1
 10 50 l 1,9,-1
50 30 m 1,18,-1
 60 30 l 1,19,-1
 60 10 l 1,20,-1
 50 10 l 1,21,-1
 50 30 l 1,22,-1
 50 30 l 1,18,-1
20 10 m 1,23,-1
 50 10 l 1,24,-1
 50 0 l 1,25,-1
 20 0 l 1,26,-1
 20 10 l 1,27,-1
 20 10 l 1,23,-1
EndSplineSet
EndChar

StartChar: uniE037
Encoding: 57399 57399 202
Width: 60
VWidth: 73
GlyphClass: 1
Flags: W
LayerCount: 2
Fore
SplineSet
10 70 m 1,0,-1
 60 70 l 1,1,-1
 60 50 l 1,2,-1
 50 50 l 1,3,-1
 50 60 l 1,4,-1
 20 60 l 1,5,-1
 20 50 l 1,6,-1
 10 50 l 1,7,-1
 10 70 l 1,8,-1
 10 70 l 1,0,-1
40 50 m 1,9,-1
 50 50 l 1,10,-1
 50 30 l 1,11,-1
 40 30 l 1,12,-1
 40 50 l 1,9,-1
30 30 m 1,13,-1
 40 30 l 1,14,-1
 40 0 l 1,15,-1
 30 0 l 1,16,-1
 30 30 l 1,13,-1
EndSplineSet
EndChar

StartChar: uniE038
Encoding: 57400 57400 203
Width: 60
VWidth: 73
GlyphClass: 1
Flags: W
LayerCount: 2
Fore
SplineSet
20 70 m 1,0,-1
 50 70 l 1,1,-1
 50 60 l 1,2,-1
 20 60 l 1,3,-1
 20 70 l 1,4,-1
 20 70 l 1,0,-1
10 60 m 1,5,-1
 20 60 l 1,6,-1
 20 40 l 1,7,-1
 10 40 l 1,8,-1
 10 60 l 1,5,-1
50 60 m 1,9,-1
 60 60 l 1,10,-1
 60 40 l 1,11,-1
 50 40 l 1,12,-1
 50 60 l 1,13,-1
 50 60 l 1,9,-1
20 40 m 1,14,-1
 50 40 l 1,15,-1
 50 30 l 1,16,-1
 20 30 l 1,17,-1
 20 40 l 1,18,-1
 20 40 l 1,14,-1
10 30 m 1,19,-1
 20 30 l 1,20,-1
 20 10 l 1,21,-1
 10 10 l 1,22,-1
 10 30 l 1,19,-1
50 30 m 1,23,-1
 60 30 l 1,24,-1
 60 10 l 1,25,-1
 50 10 l 1,26,-1
 50 30 l 1,27,-1
 50 30 l 1,23,-1
20 10 m 1,28,-1
 50 10 l 1,29,-1
 50 0 l 1,30,-1
 20 0 l 1,31,-1
 20 10 l 1,32,-1
 20 10 l 1,28,-1
EndSplineSet
EndChar

StartChar: uniE039
Encoding: 57401 57401 204
Width: 60
VWidth: 73
GlyphClass: 1
Flags: W
LayerCount: 2
Fore
SplineSet
20 70 m 1,0,-1
 50 70 l 1,1,-1
 50 60 l 1,2,-1
 20 60 l 1,3,-1
 20 70 l 1,4,-1
 20 70 l 1,0,-1
10 60 m 1,5,-1
 20 60 l 1,6,-1
 20 40 l 1,7,-1
 10 40 l 1,8,-1
 10 60 l 1,5,-1
50 60 m 1,9,-1
 60 60 l 1,10,-1
 60 20 l 1,11,-1
 50 20 l 1,12,-1
 50 30 l 1,13,-1
 20 30 l 1,14,-1
 20 40 l 1,15,-1
 50 40 l 1,16,-1
 50 60 l 1,17,-1
 50 60 l 1,9,-1
40 20 m 1,18,-1
 50 20 l 1,19,-1
 50 10 l 1,20,-1
 40 10 l 1,21,-1
 40 20 l 1,22,-1
 40 20 l 1,18,-1
20 10 m 1,23,-1
 40 10 l 1,24,-1
 40 0 l 1,25,-1
 20 0 l 1,26,-1
 20 10 l 1,27,-1
 20 10 l 1,23,-1
EndSplineSet
EndChar

StartChar: uniE03A
Encoding: 57402 57402 205
Width: 60
VWidth: 73
GlyphClass: 1
Flags: W
LayerCount: 2
Fore
SplineSet
20 60 m 1,0,-1
 40 60 l 1,1,-1
 40 40 l 1,2,-1
 20 40 l 1,3,-1
 20 60 l 1,0,-1
20 30 m 1,4,-1
 40 30 l 1,5,-1
 40 10 l 1,6,-1
 20 10 l 1,7,-1
 20 30 l 1,4,-1
EndSplineSet
EndChar

StartChar: uniE03B
Encoding: 57403 57403 206
Width: 60
VWidth: 73
GlyphClass: 1
Flags: W
LayerCount: 2
Fore
SplineSet
20 60 m 1,0,-1
 40 60 l 1,1,-1
 40 40 l 1,2,-1
 20 40 l 1,3,-1
 20 60 l 1,0,-1
20 30 m 1,4,-1
 40 30 l 1,5,-1
 40 10 l 1,6,-1
 30 10 l 1,7,-1
 30 20 l 1,8,-1
 20 20 l 1,9,-1
 20 30 l 1,10,-1
 20 30 l 1,4,-1
20 10 m 1,11,-1
 30 10 l 1,12,-1
 30 0 l 1,13,-1
 20 0 l 1,14,-1
 20 10 l 1,15,-1
 20 10 l 1,11,-1
EndSplineSet
EndChar

StartChar: uniE03C
Encoding: 57404 57404 207
Width: 60
VWidth: 73
GlyphClass: 1
Flags: W
LayerCount: 2
Fore
SplineSet
40 70 m 1,0,-1
 50 70 l 1,1,-1
 50 60 l 1,2,-1
 40 60 l 1,3,-1
 40 70 l 1,0,-1
30 60 m 1,4,-1
 40 60 l 1,5,-1
 40 50 l 1,6,-1
 30 50 l 1,7,-1
 30 60 l 1,4,-1
20 50 m 1,8,-1
 30 50 l 1,9,-1
 30 40 l 1,10,-1
 20 40 l 1,11,-1
 20 50 l 1,8,-1
10 40 m 1,12,-1
 20 40 l 1,13,-1
 20 30 l 1,14,-1
 10 30 l 1,15,-1
 10 40 l 1,12,-1
20 30 m 1,16,-1
 30 30 l 1,17,-1
 30 20 l 1,18,-1
 20 20 l 1,19,-1
 20 30 l 1,16,-1
30 20 m 1,20,-1
 40 20 l 1,21,-1
 40 10 l 1,22,-1
 30 10 l 1,23,-1
 30 20 l 1,24,-1
 30 20 l 1,20,-1
40 10 m 1,25,-1
 50 10 l 1,26,-1
 50 0 l 1,27,-1
 40 0 l 1,28,-1
 40 10 l 1,29,-1
 40 10 l 1,25,-1
EndSplineSet
EndChar

StartChar: uniE03D
Encoding: 57405 57405 208
Width: 60
VWidth: 73
GlyphClass: 1
Flags: W
LayerCount: 2
Fore
SplineSet
10 50 m 1,0,-1
 60 50 l 1,1,-1
 60 40 l 1,2,-1
 10 40 l 1,3,-1
 10 50 l 1,4,-1
 10 50 l 1,0,-1
10 30 m 1,5,-1
 60 30 l 1,6,-1
 60 20 l 1,7,-1
 10 20 l 1,8,-1
 10 30 l 1,9,-1
 10 30 l 1,5,-1
EndSplineSet
EndChar

StartChar: uniE03E
Encoding: 57406 57406 209
Width: 60
VWidth: 73
GlyphClass: 1
Flags: W
LayerCount: 2
Fore
SplineSet
10 70 m 1,0,-1
 20 70 l 1,1,-1
 20 60 l 1,2,-1
 10 60 l 1,3,-1
 10 70 l 1,0,-1
20 60 m 1,4,-1
 30 60 l 1,5,-1
 30 50 l 1,6,-1
 20 50 l 1,7,-1
 20 60 l 1,4,-1
30 50 m 1,8,-1
 40 50 l 1,9,-1
 40 40 l 1,10,-1
 30 40 l 1,11,-1
 30 50 l 1,8,-1
40 40 m 1,12,-1
 50 40 l 1,13,-1
 50 30 l 1,14,-1
 40 30 l 1,15,-1
 40 40 l 1,12,-1
30 30 m 1,16,-1
 40 30 l 1,17,-1
 40 20 l 1,18,-1
 30 20 l 1,19,-1
 30 30 l 1,16,-1
20 20 m 1,20,-1
 30 20 l 1,21,-1
 30 10 l 1,22,-1
 20 10 l 1,23,-1
 20 20 l 1,24,-1
 20 20 l 1,20,-1
10 10 m 1,25,-1
 20 10 l 1,26,-1
 20 0 l 1,27,-1
 10 0 l 1,28,-1
 10 10 l 1,29,-1
 10 10 l 1,25,-1
EndSplineSet
EndChar

StartChar: uniE03F
Encoding: 57407 57407 210
Width: 60
VWidth: 73
GlyphClass: 1
Flags: W
LayerCount: 2
Fore
SplineSet
20 70 m 1,0,-1
 50 70 l 1,1,-1
 50 60 l 1,2,-1
 20 60 l 1,3,-1
 20 70 l 1,4,-1
 20 70 l 1,0,-1
10 60 m 1,5,-1
 20 60 l 1,6,-1
 20 50 l 1,7,-1
 10 50 l 1,8,-1
 10 60 l 1,5,-1
50 60 m 1,9,-1
 60 60 l 1,10,-1
 60 40 l 1,11,-1
 50 40 l 1,12,-1
 50 60 l 1,13,-1
 50 60 l 1,9,-1
40 40 m 1,14,-1
 50 40 l 1,15,-1
 50 30 l 1,16,-1
 40 30 l 1,17,-1
 40 40 l 1,14,-1
30 30 m 1,18,-1
 40 30 l 1,19,-1
 40 20 l 1,20,-1
 30 20 l 1,21,-1
 30 30 l 1,18,-1
30 10 m 1,22,-1
 40 10 l 1,23,-1
 40 0 l 1,24,-1
 30 0 l 1,25,-1
 30 10 l 1,26,-1
 30 10 l 1,22,-1
EndSplineSet
EndChar

StartChar: uniE040
Encoding: 57408 57408 211
Width: 60
VWidth: 73
GlyphClass: 1
Flags: W
LayerCount: 2
Fore
SplineSet
20 70 m 1,0,-1
 50 70 l 1,1,-1
 50 60 l 1,2,-1
 20 60 l 1,3,-1
 20 70 l 1,4,-1
 20 70 l 1,0,-1
10 60 m 1,5,-1
 20 60 l 1,6,-1
 20 50 l 1,7,-1
 10 50 l 1,8,-1
 10 60 l 1,5,-1
50 60 m 1,9,-1
 60 60 l 1,10,-1
 60 10 l 1,11,-1
 50 10 l 1,12,-1
 50 60 l 1,13,-1
 50 60 l 1,9,-1
20 50 m 1,14,-1
 40 50 l 1,15,-1
 40 10 l 1,16,-1
 30 10 l 1,17,-1
 30 40 l 1,18,-1
 20 40 l 1,19,-1
 20 50 l 1,20,-1
 20 50 l 1,14,-1
10 40 m 1,21,-1
 20 40 l 1,22,-1
 20 10 l 1,23,-1
 10 10 l 1,24,-1
 10 40 l 1,21,-1
20 10 m 1,25,-1
 30 10 l 1,26,-1
 30 0 l 1,27,-1
 20 0 l 1,28,-1
 20 10 l 1,29,-1
 20 10 l 1,25,-1
40 10 m 1,30,-1
 50 10 l 1,31,-1
 50 0 l 1,32,-1
 40 0 l 1,33,-1
 40 10 l 1,34,-1
 40 10 l 1,30,-1
EndSplineSet
EndChar

StartChar: uniE041
Encoding: 57409 57409 212
Width: 60
VWidth: 73
GlyphClass: 1
Flags: W
LayerCount: 2
Fore
SplineSet
30 70 m 1,0,-1
 40 70 l 1,1,-1
 40 60 l 1,2,-1
 30 60 l 1,3,-1
 30 70 l 1,0,-1
20 60 m 1,4,-1
 30 60 l 1,5,-1
 30 50 l 1,6,-1
 20 50 l 1,7,-1
 20 60 l 1,4,-1
40 60 m 1,8,-1
 50 60 l 1,9,-1
 50 50 l 1,10,-1
 40 50 l 1,11,-1
 40 60 l 1,8,-1
10 50 m 1,12,-1
 20 50 l 1,13,-1
 20 30 l 1,14,-1
 50 30 l 1,15,-1
 50 50 l 1,16,-1
 60 50 l 1,17,-1
 60 0 l 1,18,-1
 50 0 l 1,19,-1
 50 20 l 1,20,-1
 20 20 l 1,21,-1
 20 0 l 1,22,-1
 10 0 l 1,23,-1
 10 50 l 1,24,-1
 10 50 l 1,12,-1
EndSplineSet
EndChar

StartChar: uniE042
Encoding: 57410 57410 213
Width: 60
VWidth: 73
GlyphClass: 1
Flags: W
LayerCount: 2
Fore
SplineSet
10 70 m 1,0,-1
 50 70 l 1,1,-1
 50 60 l 1,2,-1
 20 60 l 1,3,-1
 20 40 l 1,4,-1
 50 40 l 1,5,-1
 50 60 l 1,6,-1
 60 60 l 1,7,-1
 60 40 l 1,8,-1
 50 40 l 1,9,-1
 50 30 l 1,10,-1
 20 30 l 1,11,-1
 20 10 l 1,12,-1
 50 10 l 1,13,-1
 50 30 l 1,14,-1
 60 30 l 1,15,-1
 60 10 l 1,16,-1
 50 10 l 1,17,-1
 50 0 l 1,18,-1
 10 0 l 1,19,-1
 10 70 l 1,20,-1
 10 70 l 1,0,-1
EndSplineSet
EndChar

StartChar: uniE043
Encoding: 57411 57411 214
Width: 60
VWidth: 73
GlyphClass: 1
Flags: W
LayerCount: 2
Fore
SplineSet
20 70 m 1,0,-1
 50 70 l 1,1,-1
 50 60 l 1,2,-1
 20 60 l 1,3,-1
 20 70 l 1,4,-1
 20 70 l 1,0,-1
10 60 m 1,5,-1
 20 60 l 1,6,-1
 20 10 l 1,7,-1
 10 10 l 1,8,-1
 10 60 l 1,9,-1
 10 60 l 1,5,-1
50 60 m 1,10,-1
 60 60 l 1,11,-1
 60 50 l 1,12,-1
 50 50 l 1,13,-1
 50 60 l 1,14,-1
 50 60 l 1,10,-1
50 20 m 1,15,-1
 60 20 l 1,16,-1
 60 10 l 1,17,-1
 50 10 l 1,18,-1
 50 20 l 1,19,-1
 50 20 l 1,15,-1
20 10 m 1,20,-1
 50 10 l 1,21,-1
 50 0 l 1,22,-1
 20 0 l 1,23,-1
 20 10 l 1,24,-1
 20 10 l 1,20,-1
EndSplineSet
EndChar

StartChar: uniE044
Encoding: 57412 57412 215
Width: 60
VWidth: 73
GlyphClass: 1
Flags: W
LayerCount: 2
Fore
SplineSet
10 70 m 1,0,-1
 40 70 l 1,1,-1
 40 60 l 1,2,-1
 20 60 l 1,3,-1
 20 10 l 1,4,-1
 40 10 l 1,5,-1
 40 20 l 1,6,-1
 50 20 l 1,7,-1
 50 50 l 1,8,-1
 40 50 l 1,9,-1
 40 60 l 1,10,-1
 50 60 l 1,11,-1
 50 50 l 1,12,-1
 60 50 l 1,13,-1
 60 20 l 1,14,-1
 50 20 l 1,15,-1
 50 10 l 1,16,-1
 40 10 l 1,17,-1
 40 0 l 1,18,-1
 10 0 l 1,19,-1
 10 70 l 1,20,-1
 10 70 l 1,0,-1
EndSplineSet
EndChar

StartChar: uniE045
Encoding: 57413 57413 216
Width: 60
VWidth: 73
GlyphClass: 1
Flags: W
LayerCount: 2
Fore
SplineSet
10 70 m 1,0,-1
 60 70 l 1,1,-1
 60 60 l 1,2,-1
 20 60 l 1,3,-1
 20 40 l 1,4,-1
 50 40 l 1,5,-1
 50 30 l 1,6,-1
 20 30 l 1,7,-1
 20 10 l 1,8,-1
 60 10 l 1,9,-1
 60 0 l 1,10,-1
 10 0 l 1,11,-1
 10 70 l 1,12,-1
 10 70 l 1,0,-1
EndSplineSet
EndChar

StartChar: uniE046
Encoding: 57414 57414 217
Width: 60
VWidth: 73
GlyphClass: 1
Flags: W
LayerCount: 2
Fore
SplineSet
10 70 m 1,0,-1
 60 70 l 1,1,-1
 60 60 l 1,2,-1
 20 60 l 1,3,-1
 20 40 l 1,4,-1
 50 40 l 1,5,-1
 50 30 l 1,6,-1
 20 30 l 1,7,-1
 20 0 l 1,8,-1
 10 0 l 1,9,-1
 10 70 l 1,10,-1
 10 70 l 1,0,-1
EndSplineSet
EndChar

StartChar: uniE047
Encoding: 57415 57415 218
Width: 60
VWidth: 73
GlyphClass: 1
Flags: W
LayerCount: 2
Fore
SplineSet
20 70 m 1,0,-1
 50 70 l 1,1,-1
 50 60 l 1,2,-1
 20 60 l 1,3,-1
 20 70 l 1,4,-1
 20 70 l 1,0,-1
10 60 m 1,5,-1
 20 60 l 1,6,-1
 20 10 l 1,7,-1
 10 10 l 1,8,-1
 10 60 l 1,9,-1
 10 60 l 1,5,-1
50 60 m 1,10,-1
 60 60 l 1,11,-1
 60 50 l 1,12,-1
 50 50 l 1,13,-1
 50 60 l 1,14,-1
 50 60 l 1,10,-1
30 40 m 1,15,-1
 60 40 l 1,16,-1
 60 0 l 1,17,-1
 20 0 l 1,18,-1
 20 10 l 1,19,-1
 50 10 l 1,20,-1
 50 30 l 1,21,-1
 30 30 l 1,22,-1
 30 40 l 1,23,-1
 30 40 l 1,15,-1
EndSplineSet
EndChar

StartChar: uniE048
Encoding: 57416 57416 219
Width: 60
VWidth: 73
GlyphClass: 1
Flags: W
LayerCount: 2
Fore
SplineSet
10 70 m 1,0,-1
 20 70 l 1,1,-1
 20 40 l 1,2,-1
 50 40 l 1,3,-1
 50 70 l 1,4,-1
 60 70 l 1,5,-1
 60 0 l 1,6,-1
 50 0 l 1,7,-1
 50 30 l 1,8,-1
 20 30 l 1,9,-1
 20 0 l 1,10,-1
 10 0 l 1,11,-1
 10 70 l 1,12,-1
 10 70 l 1,0,-1
EndSplineSet
EndChar

StartChar: uniE049
Encoding: 57417 57417 220
Width: 60
VWidth: 73
GlyphClass: 1
Flags: W
LayerCount: 2
Fore
SplineSet
20 70 m 1,0,-1
 50 70 l 1,1,-1
 50 60 l 1,2,-1
 40 60 l 1,3,-1
 40 10 l 1,4,-1
 50 10 l 1,5,-1
 50 0 l 1,6,-1
 20 0 l 1,7,-1
 20 10 l 1,8,-1
 30 10 l 1,9,-1
 30 60 l 1,10,-1
 20 60 l 1,11,-1
 20 70 l 1,12,-1
 20 70 l 1,0,-1
EndSplineSet
EndChar

StartChar: uniE04A
Encoding: 57418 57418 221
Width: 60
VWidth: 73
GlyphClass: 1
Flags: W
LayerCount: 2
Fore
SplineSet
30 70 m 1,0,-1
 60 70 l 1,1,-1
 60 60 l 1,2,-1
 50 60 l 1,3,-1
 50 10 l 1,4,-1
 40 10 l 1,5,-1
 40 60 l 1,6,-1
 30 60 l 1,7,-1
 30 70 l 1,8,-1
 30 70 l 1,0,-1
10 20 m 1,9,-1
 20 20 l 1,10,-1
 20 10 l 1,11,-1
 10 10 l 1,12,-1
 10 20 l 1,13,-1
 10 20 l 1,9,-1
20 10 m 1,14,-1
 40 10 l 1,15,-1
 40 0 l 1,16,-1
 20 0 l 1,17,-1
 20 10 l 1,18,-1
 20 10 l 1,14,-1
EndSplineSet
EndChar

StartChar: uniE04B
Encoding: 57419 57419 222
Width: 60
VWidth: 73
GlyphClass: 1
Flags: W
LayerCount: 2
Fore
SplineSet
10 70 m 1,0,-1
 20 70 l 1,1,-1
 20 40 l 1,2,-1
 30 40 l 1,3,-1
 30 50 l 1,4,-1
 40 50 l 1,5,-1
 40 60 l 1,6,-1
 50 60 l 1,7,-1
 50 70 l 1,8,-1
 60 70 l 1,9,-1
 60 60 l 1,10,-1
 50 60 l 1,11,-1
 50 50 l 1,12,-1
 40 50 l 1,13,-1
 40 40 l 1,14,-1
 30 40 l 1,15,-1
 30 30 l 1,16,-1
 20 30 l 1,17,-1
 20 0 l 1,18,-1
 10 0 l 1,19,-1
 10 70 l 1,0,-1
30 30 m 1,20,-1
 40 30 l 1,21,-1
 40 20 l 1,22,-1
 30 20 l 1,23,-1
 30 30 l 1,20,-1
40 20 m 1,24,-1
 50 20 l 1,25,-1
 50 10 l 1,26,-1
 40 10 l 1,27,-1
 40 20 l 1,28,-1
 40 20 l 1,24,-1
50 10 m 1,29,-1
 60 10 l 1,30,-1
 60 0 l 1,31,-1
 50 0 l 1,32,-1
 50 10 l 1,33,-1
 50 10 l 1,29,-1
EndSplineSet
EndChar

StartChar: uniE04C
Encoding: 57420 57420 223
Width: 60
VWidth: 73
GlyphClass: 1
Flags: W
LayerCount: 2
Fore
SplineSet
10 70 m 1,0,-1
 20 70 l 1,1,-1
 20 10 l 1,2,-1
 60 10 l 1,3,-1
 60 0 l 1,4,-1
 10 0 l 1,5,-1
 10 70 l 1,6,-1
 10 70 l 1,0,-1
EndSplineSet
EndChar

StartChar: uniE04D
Encoding: 57421 57421 224
Width: 60
VWidth: 73
GlyphClass: 1
Flags: W
LayerCount: 2
Fore
SplineSet
10 70 m 1,0,-1
 20 70 l 1,1,-1
 20 60 l 1,2,-1
 30 60 l 1,3,-1
 30 40 l 1,4,-1
 20 40 l 1,5,-1
 20 0 l 1,6,-1
 10 0 l 1,7,-1
 10 70 l 1,0,-1
50 70 m 1,8,-1
 60 70 l 1,9,-1
 60 0 l 1,10,-1
 50 0 l 1,11,-1
 50 40 l 1,12,-1
 40 40 l 1,13,-1
 40 60 l 1,14,-1
 50 60 l 1,15,-1
 50 70 l 1,16,-1
 50 70 l 1,8,-1
30 40 m 1,17,-1
 40 40 l 1,18,-1
 40 20 l 1,19,-1
 30 20 l 1,20,-1
 30 40 l 1,21,-1
 30 40 l 1,17,-1
EndSplineSet
EndChar

StartChar: uniE04E
Encoding: 57422 57422 225
Width: 60
VWidth: 73
GlyphClass: 1
Flags: W
LayerCount: 2
Fore
SplineSet
10 70 m 1,0,-1
 20 70 l 1,1,-1
 20 60 l 1,2,-1
 30 60 l 1,3,-1
 30 50 l 1,4,-1
 20 50 l 1,5,-1
 20 0 l 1,6,-1
 10 0 l 1,7,-1
 10 70 l 1,8,-1
 10 70 l 1,0,-1
50 70 m 1,9,-1
 60 70 l 1,10,-1
 60 0 l 1,11,-1
 50 0 l 1,12,-1
 50 30 l 1,13,-1
 40 30 l 1,14,-1
 40 40 l 1,15,-1
 30 40 l 1,16,-1
 30 50 l 1,17,-1
 40 50 l 1,18,-1
 40 40 l 1,19,-1
 50 40 l 1,20,-1
 50 70 l 1,21,-1
 50 70 l 1,9,-1
EndSplineSet
EndChar

StartChar: uniE04F
Encoding: 57423 57423 226
Width: 60
VWidth: 73
GlyphClass: 1
Flags: W
LayerCount: 2
Fore
SplineSet
20 70 m 1,0,-1
 50 70 l 1,1,-1
 50 60 l 1,2,-1
 20 60 l 1,3,-1
 20 70 l 1,4,-1
 20 70 l 1,0,-1
10 60 m 1,5,-1
 20 60 l 1,6,-1
 20 10 l 1,7,-1
 10 10 l 1,8,-1
 10 60 l 1,9,-1
 10 60 l 1,5,-1
50 60 m 1,10,-1
 60 60 l 1,11,-1
 60 10 l 1,12,-1
 50 10 l 1,13,-1
 50 60 l 1,14,-1
 50 60 l 1,10,-1
20 10 m 1,15,-1
 50 10 l 1,16,-1
 50 0 l 1,17,-1
 20 0 l 1,18,-1
 20 10 l 1,19,-1
 20 10 l 1,15,-1
EndSplineSet
EndChar

StartChar: uniE050
Encoding: 57424 57424 227
Width: 60
VWidth: 73
GlyphClass: 1
Flags: W
LayerCount: 2
Fore
SplineSet
10 70 m 1,0,-1
 50 70 l 1,1,-1
 50 60 l 1,2,-1
 20 60 l 1,3,-1
 20 40 l 1,4,-1
 50 40 l 1,5,-1
 50 60 l 1,6,-1
 60 60 l 1,7,-1
 60 40 l 1,8,-1
 50 40 l 1,9,-1
 50 30 l 1,10,-1
 20 30 l 1,11,-1
 20 0 l 1,12,-1
 10 0 l 1,13,-1
 10 70 l 1,14,-1
 10 70 l 1,0,-1
EndSplineSet
EndChar

StartChar: uniE051
Encoding: 57425 57425 228
Width: 60
VWidth: 73
GlyphClass: 1
Flags: W
LayerCount: 2
Fore
SplineSet
20 70 m 1,0,-1
 50 70 l 1,1,-1
 50 60 l 1,2,-1
 20 60 l 1,3,-1
 20 70 l 1,4,-1
 20 70 l 1,0,-1
10 60 m 1,5,-1
 20 60 l 1,6,-1
 20 10 l 1,7,-1
 10 10 l 1,8,-1
 10 60 l 1,9,-1
 10 60 l 1,5,-1
50 60 m 1,10,-1
 60 60 l 1,11,-1
 60 20 l 1,12,-1
 50 20 l 1,13,-1
 50 60 l 1,14,-1
 50 60 l 1,10,-1
30 30 m 1,15,-1
 40 30 l 1,16,-1
 40 20 l 1,17,-1
 30 20 l 1,18,-1
 30 30 l 1,15,-1
40 20 m 1,19,-1
 50 20 l 1,20,-1
 50 10 l 1,21,-1
 40 10 l 1,22,-1
 40 20 l 1,23,-1
 40 20 l 1,19,-1
20 10 m 1,24,-1
 40 10 l 1,25,-1
 40 0 l 1,26,-1
 20 0 l 1,27,-1
 20 10 l 1,28,-1
 20 10 l 1,24,-1
50 10 m 1,29,-1
 60 10 l 1,30,-1
 60 0 l 1,31,-1
 50 0 l 1,32,-1
 50 10 l 1,33,-1
 50 10 l 1,29,-1
EndSplineSet
EndChar

StartChar: uniE052
Encoding: 57426 57426 229
Width: 60
VWidth: 73
GlyphClass: 1
Flags: W
LayerCount: 2
Fore
SplineSet
10 70 m 1,0,-1
 50 70 l 1,1,-1
 50 60 l 1,2,-1
 20 60 l 1,3,-1
 20 40 l 1,4,-1
 50 40 l 1,5,-1
 50 60 l 1,6,-1
 60 60 l 1,7,-1
 60 40 l 1,8,-1
 50 40 l 1,9,-1
 50 20 l 1,10,-1
 40 20 l 1,11,-1
 40 30 l 1,12,-1
 20 30 l 1,13,-1
 20 0 l 1,14,-1
 10 0 l 1,15,-1
 10 70 l 1,16,-1
 10 70 l 1,0,-1
50 20 m 1,17,-1
 60 20 l 1,18,-1
 60 0 l 1,19,-1
 50 0 l 1,20,-1
 50 20 l 1,21,-1
 50 20 l 1,17,-1
EndSplineSet
EndChar

StartChar: uniE053
Encoding: 57427 57427 230
Width: 60
VWidth: 73
GlyphClass: 1
Flags: W
LayerCount: 2
Fore
SplineSet
20 70 m 1,0,-1
 50 70 l 1,1,-1
 50 60 l 1,2,-1
 20 60 l 1,3,-1
 20 70 l 1,4,-1
 20 70 l 1,0,-1
10 60 m 1,5,-1
 20 60 l 1,6,-1
 20 40 l 1,7,-1
 10 40 l 1,8,-1
 10 60 l 1,5,-1
50 60 m 1,9,-1
 60 60 l 1,10,-1
 60 50 l 1,11,-1
 50 50 l 1,12,-1
 50 60 l 1,13,-1
 50 60 l 1,9,-1
20 40 m 1,14,-1
 50 40 l 1,15,-1
 50 30 l 1,16,-1
 20 30 l 1,17,-1
 20 40 l 1,18,-1
 20 40 l 1,14,-1
50 30 m 1,19,-1
 60 30 l 1,20,-1
 60 10 l 1,21,-1
 50 10 l 1,22,-1
 50 30 l 1,23,-1
 50 30 l 1,19,-1
10 20 m 1,24,-1
 20 20 l 1,25,-1
 20 10 l 1,26,-1
 10 10 l 1,27,-1
 10 20 l 1,28,-1
 10 20 l 1,24,-1
20 10 m 1,29,-1
 50 10 l 1,30,-1
 50 0 l 1,31,-1
 20 0 l 1,32,-1
 20 10 l 1,33,-1
 20 10 l 1,29,-1
EndSplineSet
EndChar

StartChar: uniE054
Encoding: 57428 57428 231
Width: 60
VWidth: 73
GlyphClass: 1
Flags: W
LayerCount: 2
Fore
SplineSet
10 70 m 1,0,-1
 60 70 l 1,1,-1
 60 60 l 1,2,-1
 40 60 l 1,3,-1
 40 0 l 1,4,-1
 30 0 l 1,5,-1
 30 60 l 1,6,-1
 10 60 l 1,7,-1
 10 70 l 1,8,-1
 10 70 l 1,0,-1
EndSplineSet
EndChar

StartChar: uniE055
Encoding: 57429 57429 232
Width: 60
VWidth: 73
GlyphClass: 1
Flags: W
LayerCount: 2
Fore
SplineSet
10 70 m 1,0,-1
 20 70 l 1,1,-1
 20 10 l 1,2,-1
 10 10 l 1,3,-1
 10 70 l 1,0,-1
50 70 m 1,4,-1
 60 70 l 1,5,-1
 60 10 l 1,6,-1
 50 10 l 1,7,-1
 50 70 l 1,8,-1
 50 70 l 1,4,-1
20 10 m 1,9,-1
 50 10 l 1,10,-1
 50 0 l 1,11,-1
 20 0 l 1,12,-1
 20 10 l 1,13,-1
 20 10 l 1,9,-1
EndSplineSet
EndChar

StartChar: uniE056
Encoding: 57430 57430 233
Width: 60
VWidth: 73
GlyphClass: 1
Flags: W
LayerCount: 2
Fore
SplineSet
10 70 m 1,0,-1
 20 70 l 1,1,-1
 20 40 l 1,2,-1
 10 40 l 1,3,-1
 10 70 l 1,0,-1
50 70 m 1,4,-1
 60 70 l 1,5,-1
 60 40 l 1,6,-1
 50 40 l 1,7,-1
 50 70 l 1,8,-1
 50 70 l 1,4,-1
20 40 m 1,9,-1
 30 40 l 1,10,-1
 30 20 l 1,11,-1
 20 20 l 1,12,-1
 20 40 l 1,13,-1
 20 40 l 1,9,-1
40 40 m 1,14,-1
 50 40 l 1,15,-1
 50 20 l 1,16,-1
 40 20 l 1,17,-1
 40 40 l 1,18,-1
 40 40 l 1,14,-1
30 20 m 1,19,-1
 40 20 l 1,20,-1
 40 0 l 1,21,-1
 30 0 l 1,22,-1
 30 20 l 1,19,-1
EndSplineSet
EndChar

StartChar: uniE057
Encoding: 57431 57431 234
Width: 60
VWidth: 73
GlyphClass: 1
Flags: W
LayerCount: 2
Fore
SplineSet
10 70 m 1,0,-1
 20 70 l 1,1,-1
 20 20 l 1,2,-1
 10 20 l 1,3,-1
 10 70 l 1,0,-1
50 70 m 1,4,-1
 60 70 l 1,5,-1
 60 20 l 1,6,-1
 50 20 l 1,7,-1
 50 70 l 1,8,-1
 50 70 l 1,4,-1
30 60 m 1,9,-1
 40 60 l 1,10,-1
 40 20 l 1,11,-1
 30 20 l 1,12,-1
 30 60 l 1,9,-1
20 20 m 1,13,-1
 30 20 l 1,14,-1
 30 0 l 1,15,-1
 20 0 l 1,16,-1
 20 20 l 1,13,-1
40 20 m 1,17,-1
 50 20 l 1,18,-1
 50 0 l 1,19,-1
 40 0 l 1,20,-1
 40 20 l 1,17,-1
EndSplineSet
EndChar

StartChar: uniE058
Encoding: 57432 57432 235
Width: 60
VWidth: 73
GlyphClass: 1
Flags: W
LayerCount: 2
Fore
SplineSet
10 70 m 1,0,-1
 20 70 l 1,1,-1
 20 50 l 1,2,-1
 10 50 l 1,3,-1
 10 70 l 1,0,-1
50 70 m 1,4,-1
 60 70 l 1,5,-1
 60 50 l 1,6,-1
 50 50 l 1,7,-1
 50 70 l 1,8,-1
 50 70 l 1,4,-1
20 50 m 1,9,-1
 30 50 l 1,10,-1
 30 40 l 1,11,-1
 20 40 l 1,12,-1
 20 50 l 1,9,-1
40 50 m 1,13,-1
 50 50 l 1,14,-1
 50 40 l 1,15,-1
 40 40 l 1,16,-1
 40 50 l 1,13,-1
30 40 m 1,17,-1
 40 40 l 1,18,-1
 40 30 l 1,19,-1
 30 30 l 1,20,-1
 30 40 l 1,17,-1
20 30 m 1,21,-1
 30 30 l 1,22,-1
 30 20 l 1,23,-1
 20 20 l 1,24,-1
 20 30 l 1,21,-1
40 30 m 1,25,-1
 50 30 l 1,26,-1
 50 20 l 1,27,-1
 40 20 l 1,28,-1
 40 30 l 1,25,-1
10 20 m 1,29,-1
 20 20 l 1,30,-1
 20 0 l 1,31,-1
 10 0 l 1,32,-1
 10 20 l 1,29,-1
50 20 m 1,33,-1
 60 20 l 1,34,-1
 60 0 l 1,35,-1
 50 0 l 1,36,-1
 50 20 l 1,37,-1
 50 20 l 1,33,-1
EndSplineSet
EndChar

StartChar: uniE059
Encoding: 57433 57433 236
Width: 60
VWidth: 73
GlyphClass: 1
Flags: W
LayerCount: 2
Fore
SplineSet
10 70 m 1,0,-1
 20 70 l 1,1,-1
 20 50 l 1,2,-1
 10 50 l 1,3,-1
 10 70 l 1,0,-1
50 70 m 1,4,-1
 60 70 l 1,5,-1
 60 50 l 1,6,-1
 50 50 l 1,7,-1
 50 70 l 1,8,-1
 50 70 l 1,4,-1
20 50 m 1,9,-1
 30 50 l 1,10,-1
 30 40 l 1,11,-1
 20 40 l 1,12,-1
 20 50 l 1,9,-1
40 50 m 1,13,-1
 50 50 l 1,14,-1
 50 40 l 1,15,-1
 40 40 l 1,16,-1
 40 50 l 1,13,-1
30 40 m 1,17,-1
 40 40 l 1,18,-1
 40 0 l 1,19,-1
 30 0 l 1,20,-1
 30 40 l 1,17,-1
EndSplineSet
EndChar

StartChar: uniE05A
Encoding: 57434 57434 237
Width: 60
VWidth: 73
GlyphClass: 1
Flags: W
LayerCount: 2
Fore
SplineSet
10 70 m 1,0,-1
 60 70 l 1,1,-1
 60 50 l 1,2,-1
 50 50 l 1,3,-1
 50 60 l 1,4,-1
 10 60 l 1,5,-1
 10 70 l 1,6,-1
 10 70 l 1,0,-1
40 50 m 1,7,-1
 50 50 l 1,8,-1
 50 40 l 1,9,-1
 40 40 l 1,10,-1
 40 50 l 1,7,-1
30 40 m 1,11,-1
 40 40 l 1,12,-1
 40 30 l 1,13,-1
 30 30 l 1,14,-1
 30 40 l 1,11,-1
20 30 m 1,15,-1
 30 30 l 1,16,-1
 30 20 l 1,17,-1
 20 20 l 1,18,-1
 20 30 l 1,15,-1
10 20 m 1,19,-1
 20 20 l 1,20,-1
 20 10 l 1,21,-1
 60 10 l 1,22,-1
 60 0 l 1,23,-1
 10 0 l 1,24,-1
 10 20 l 1,25,-1
 10 20 l 1,19,-1
EndSplineSet
EndChar

StartChar: uniE05B
Encoding: 57435 57435 238
Width: 60
VWidth: 73
GlyphClass: 1
Flags: W
LayerCount: 2
Fore
SplineSet
20 70 m 1,0,-1
 50 70 l 1,1,-1
 50 60 l 1,2,-1
 30 60 l 1,3,-1
 30 10 l 1,4,-1
 50 10 l 1,5,-1
 50 0 l 1,6,-1
 20 0 l 1,7,-1
 20 70 l 1,8,-1
 20 70 l 1,0,-1
EndSplineSet
EndChar

StartChar: uniE05C
Encoding: 57436 57436 239
Width: 60
VWidth: 73
GlyphClass: 1
Flags: W
LayerCount: 2
Fore
SplineSet
20 70 m 1,0,-1
 50 70 l 1,1,-1
 50 40 l 1,2,-1
 20 40 l 1,3,-1
 20 70 l 1,4,-1
 20 70 l 1,0,-1
40 60 m 1,5,-1
 30 60 l 1,6,-1
 30 50 l 1,7,-1
 40 50 l 1,8,-1
 40 60 l 1,5,-1
EndSplineSet
EndChar

StartChar: uniE05D
Encoding: 57437 57437 240
Width: 60
VWidth: 73
GlyphClass: 1
Flags: W
LayerCount: 2
Fore
SplineSet
20 70 m 1,0,-1
 50 70 l 1,1,-1
 50 0 l 1,2,-1
 20 0 l 1,3,-1
 20 10 l 1,4,-1
 40 10 l 1,5,-1
 40 60 l 1,6,-1
 20 60 l 1,7,-1
 20 70 l 1,8,-1
 20 70 l 1,0,-1
EndSplineSet
EndChar

StartChar: uniE05E
Encoding: 57438 57438 241
Width: 60
VWidth: 73
GlyphClass: 1
Flags: W
LayerCount: 2
Fore
SplineSet
30 70 m 1,0,-1
 40 70 l 1,1,-1
 40 60 l 1,2,-1
 30 60 l 1,3,-1
 30 70 l 1,0,-1
20 60 m 1,4,-1
 30 60 l 1,5,-1
 30 50 l 1,6,-1
 20 50 l 1,7,-1
 20 60 l 1,4,-1
40 60 m 1,8,-1
 50 60 l 1,9,-1
 50 50 l 1,10,-1
 40 50 l 1,11,-1
 40 60 l 1,8,-1
10 50 m 1,12,-1
 20 50 l 1,13,-1
 20 40 l 1,14,-1
 10 40 l 1,15,-1
 10 50 l 1,12,-1
50 50 m 1,16,-1
 60 50 l 1,17,-1
 60 40 l 1,18,-1
 50 40 l 1,19,-1
 50 50 l 1,20,-1
 50 50 l 1,16,-1
EndSplineSet
EndChar

StartChar: uniE05F
Encoding: 57439 57439 242
Width: 60
VWidth: 73
GlyphClass: 1
Flags: W
LayerCount: 2
Fore
SplineSet
10 10 m 1,0,-1
 60 10 l 1,1,-1
 60 0 l 1,2,-1
 10 0 l 1,3,-1
 10 10 l 1,4,-1
 10 10 l 1,0,-1
EndSplineSet
EndChar

StartChar: uniE060
Encoding: 57440 57440 243
Width: 60
VWidth: 73
GlyphClass: 1
Flags: W
LayerCount: 2
Fore
SplineSet
20 40 m 1,0,-1
 50 40 l 1,1,-1
 50 30 l 1,2,-1
 20 30 l 1,3,-1
 20 40 l 1,4,-1
 20 40 l 1,0,-1
EndSplineSet
EndChar

StartChar: uniE061
Encoding: 57441 57441 244
Width: 60
VWidth: 73
GlyphClass: 1
Flags: W
LayerCount: 2
Fore
SplineSet
20 50 m 1,0,-1
 50 50 l 1,1,-1
 50 40 l 1,2,-1
 20 40 l 1,3,-1
 20 50 l 1,4,-1
 20 50 l 1,0,-1
50 40 m 1,5,-1
 60 40 l 1,6,-1
 60 0 l 1,7,-1
 20 0 l 1,8,-1
 20 10 l 1,9,-1
 10 10 l 1,10,-1
 10 20 l 1,11,-1
 20 20 l 1,12,-1
 20 30 l 1,13,-1
 50 30 l 1,14,-1
 50 40 l 1,15,-1
 50 40 l 1,5,-1
30 20 m 1,16,-1
 20 20 l 1,17,-1
 20 10 l 1,18,-1
 50 10 l 1,19,-1
 50 20 l 1,20,-1
 30 20 l 1,21,-1
 30 20 l 1,16,-1
EndSplineSet
EndChar

StartChar: uniE062
Encoding: 57442 57442 245
Width: 60
VWidth: 73
GlyphClass: 1
Flags: W
LayerCount: 2
Fore
SplineSet
10 70 m 1,0,-1
 20 70 l 1,1,-1
 20 40 l 1,2,-1
 30 40 l 1,3,-1
 30 50 l 1,4,-1
 50 50 l 1,5,-1
 50 40 l 1,6,-1
 30 40 l 1,7,-1
 30 30 l 1,8,-1
 20 30 l 1,9,-1
 20 10 l 1,10,-1
 50 10 l 1,11,-1
 50 40 l 1,12,-1
 60 40 l 1,13,-1
 60 10 l 1,14,-1
 50 10 l 1,15,-1
 50 0 l 1,16,-1
 10 0 l 1,17,-1
 10 70 l 1,18,-1
 10 70 l 1,0,-1
EndSplineSet
EndChar

StartChar: uniE063
Encoding: 57443 57443 246
Width: 60
VWidth: 73
GlyphClass: 1
Flags: W
LayerCount: 2
Fore
SplineSet
20 50 m 1,0,-1
 50 50 l 1,1,-1
 50 40 l 1,2,-1
 20 40 l 1,3,-1
 20 50 l 1,4,-1
 20 50 l 1,0,-1
10 40 m 1,5,-1
 20 40 l 1,6,-1
 20 10 l 1,7,-1
 10 10 l 1,8,-1
 10 40 l 1,5,-1
50 20 m 1,9,-1
 60 20 l 1,10,-1
 60 10 l 1,11,-1
 50 10 l 1,12,-1
 50 20 l 1,13,-1
 50 20 l 1,9,-1
20 10 m 1,14,-1
 50 10 l 1,15,-1
 50 0 l 1,16,-1
 20 0 l 1,17,-1
 20 10 l 1,18,-1
 20 10 l 1,14,-1
EndSplineSet
EndChar

StartChar: uniE064
Encoding: 57444 57444 247
Width: 60
VWidth: 73
GlyphClass: 1
Flags: W
LayerCount: 2
Fore
SplineSet
50 70 m 1,0,-1
 60 70 l 1,1,-1
 60 0 l 1,2,-1
 20 0 l 1,3,-1
 20 10 l 1,4,-1
 10 10 l 1,5,-1
 10 40 l 1,6,-1
 20 40 l 1,7,-1
 20 50 l 1,8,-1
 40 50 l 1,9,-1
 40 40 l 1,10,-1
 20 40 l 1,11,-1
 20 10 l 1,12,-1
 50 10 l 1,13,-1
 50 30 l 1,14,-1
 40 30 l 1,15,-1
 40 40 l 1,16,-1
 50 40 l 1,17,-1
 50 70 l 1,18,-1
 50 70 l 1,0,-1
EndSplineSet
EndChar

StartChar: uniE065
Encoding: 57445 57445 248
Width: 60
VWidth: 73
GlyphClass: 1
Flags: W
LayerCount: 2
Fore
SplineSet
20 50 m 1,0,-1
 50 50 l 1,1,-1
 50 40 l 1,2,-1
 20 40 l 1,3,-1
 20 50 l 1,4,-1
 20 50 l 1,0,-1
10 40 m 1,5,-1
 20 40 l 1,6,-1
 20 30 l 1,7,-1
 50 30 l 1,8,-1
 50 40 l 1,9,-1
 60 40 l 1,10,-1
 60 20 l 1,11,-1
 20 20 l 1,12,-1
 20 10 l 1,13,-1
 10 10 l 1,14,-1
 10 40 l 1,15,-1
 10 40 l 1,5,-1
20 10 m 1,16,-1
 50 10 l 1,17,-1
 50 0 l 1,18,-1
 20 0 l 1,19,-1
 20 10 l 1,20,-1
 20 10 l 1,16,-1
EndSplineSet
EndChar

StartChar: uniE066
Encoding: 57446 57446 249
Width: 60
VWidth: 73
GlyphClass: 1
Flags: W
LayerCount: 2
Fore
SplineSet
40 70 m 1,0,-1
 60 70 l 1,1,-1
 60 60 l 1,2,-1
 40 60 l 1,3,-1
 40 70 l 1,0,-1
30 60 m 1,4,-1
 40 60 l 1,5,-1
 40 50 l 1,6,-1
 50 50 l 1,7,-1
 50 40 l 1,8,-1
 40 40 l 1,9,-1
 40 0 l 1,10,-1
 30 0 l 1,11,-1
 30 40 l 1,12,-1
 20 40 l 1,13,-1
 20 50 l 1,14,-1
 30 50 l 1,15,-1
 30 60 l 1,16,-1
 30 60 l 1,4,-1
EndSplineSet
EndChar

StartChar: uniE067
Encoding: 57447 57447 250
Width: 60
VWidth: 73
GlyphClass: 1
Flags: W
LayerCount: 2
Fore
SplineSet
20 50 m 1,0,-1
 60 50 l 1,1,-1
 60 10 l 1,2,-1
 50 10 l 1,3,-1
 50 20 l 1,4,-1
 20 20 l 1,5,-1
 20 30 l 1,6,-1
 10 30 l 1,7,-1
 10 40 l 1,8,-1
 20 40 l 1,9,-1
 20 50 l 1,10,-1
 20 50 l 1,0,-1
30 40 m 1,11,-1
 20 40 l 1,12,-1
 20 30 l 1,13,-1
 50 30 l 1,14,-1
 50 40 l 1,15,-1
 30 40 l 1,16,-1
 30 40 l 1,11,-1
20 10 m 1,17,-1
 50 10 l 1,18,-1
 50 0 l 1,19,-1
 20 0 l 1,20,-1
 20 10 l 1,21,-1
 20 10 l 1,17,-1
EndSplineSet
EndChar

StartChar: uniE068
Encoding: 57448 57448 251
Width: 60
VWidth: 73
GlyphClass: 1
Flags: W
LayerCount: 2
Fore
SplineSet
10 70 m 1,0,-1
 20 70 l 1,1,-1
 20 40 l 1,2,-1
 30 40 l 1,3,-1
 30 50 l 1,4,-1
 50 50 l 1,5,-1
 50 40 l 1,6,-1
 30 40 l 1,7,-1
 30 30 l 1,8,-1
 20 30 l 1,9,-1
 20 0 l 1,10,-1
 10 0 l 1,11,-1
 10 70 l 1,12,-1
 10 70 l 1,0,-1
50 40 m 1,13,-1
 60 40 l 1,14,-1
 60 0 l 1,15,-1
 50 0 l 1,16,-1
 50 40 l 1,17,-1
 50 40 l 1,13,-1
EndSplineSet
EndChar

StartChar: uniE069
Encoding: 57449 57449 252
Width: 60
VWidth: 73
GlyphClass: 1
Flags: W
LayerCount: 2
Fore
SplineSet
30 70 m 1,0,-1
 40 70 l 1,1,-1
 40 60 l 1,2,-1
 30 60 l 1,3,-1
 30 70 l 1,0,-1
20 50 m 1,4,-1
 40 50 l 1,5,-1
 40 10 l 1,6,-1
 50 10 l 1,7,-1
 50 0 l 1,8,-1
 20 0 l 1,9,-1
 20 10 l 1,10,-1
 30 10 l 1,11,-1
 30 40 l 1,12,-1
 20 40 l 1,13,-1
 20 50 l 1,14,-1
 20 50 l 1,4,-1
EndSplineSet
EndChar

StartChar: uniE06A
Encoding: 57450 57450 253
Width: 60
VWidth: 73
GlyphClass: 1
Flags: W
LayerCount: 2
Fore
SplineSet
40 70 m 1,0,-1
 50 70 l 1,1,-1
 50 60 l 1,2,-1
 40 60 l 1,3,-1
 40 70 l 1,0,-1
30 50 m 1,4,-1
 50 50 l 1,5,-1
 50 10 l 1,6,-1
 40 10 l 1,7,-1
 40 40 l 1,8,-1
 30 40 l 1,9,-1
 30 50 l 1,10,-1
 30 50 l 1,4,-1
10 20 m 1,11,-1
 20 20 l 1,12,-1
 20 10 l 1,13,-1
 10 10 l 1,14,-1
 10 20 l 1,15,-1
 10 20 l 1,11,-1
20 10 m 1,16,-1
 40 10 l 1,17,-1
 40 0 l 1,18,-1
 20 0 l 1,19,-1
 20 10 l 1,20,-1
 20 10 l 1,16,-1
EndSplineSet
EndChar

StartChar: uniE06B
Encoding: 57451 57451 254
Width: 60
VWidth: 73
GlyphClass: 1
Flags: W
LayerCount: 2
Fore
SplineSet
20 70 m 1,0,-1
 30 70 l 1,1,-1
 30 30 l 1,2,-1
 40 30 l 1,3,-1
 40 40 l 1,4,-1
 50 40 l 1,5,-1
 50 50 l 1,6,-1
 60 50 l 1,7,-1
 60 40 l 1,8,-1
 50 40 l 1,9,-1
 50 30 l 1,10,-1
 40 30 l 1,11,-1
 40 20 l 1,12,-1
 30 20 l 1,13,-1
 30 0 l 1,14,-1
 20 0 l 1,15,-1
 20 70 l 1,0,-1
40 20 m 1,16,-1
 50 20 l 1,17,-1
 50 10 l 1,18,-1
 40 10 l 1,19,-1
 40 20 l 1,20,-1
 40 20 l 1,16,-1
50 10 m 1,21,-1
 60 10 l 1,22,-1
 60 0 l 1,23,-1
 50 0 l 1,24,-1
 50 10 l 1,25,-1
 50 10 l 1,21,-1
EndSplineSet
EndChar

StartChar: uniE06C
Encoding: 57452 57452 255
Width: 60
VWidth: 73
GlyphClass: 1
Flags: W
LayerCount: 2
Fore
SplineSet
20 70 m 1,0,-1
 40 70 l 1,1,-1
 40 10 l 1,2,-1
 50 10 l 1,3,-1
 50 0 l 1,4,-1
 20 0 l 1,5,-1
 20 10 l 1,6,-1
 30 10 l 1,7,-1
 30 60 l 1,8,-1
 20 60 l 1,9,-1
 20 70 l 1,10,-1
 20 70 l 1,0,-1
EndSplineSet
EndChar

StartChar: uniE06D
Encoding: 57453 57453 256
Width: 60
VWidth: 73
GlyphClass: 1
Flags: W
LayerCount: 2
Fore
SplineSet
10 50 m 1,0,-1
 30 50 l 1,1,-1
 30 40 l 1,2,-1
 20 40 l 1,3,-1
 20 0 l 1,4,-1
 10 0 l 1,5,-1
 10 50 l 1,6,-1
 10 50 l 1,0,-1
40 50 m 1,7,-1
 50 50 l 1,8,-1
 50 40 l 1,9,-1
 40 40 l 1,10,-1
 40 50 l 1,7,-1
30 40 m 1,11,-1
 40 40 l 1,12,-1
 40 0 l 1,13,-1
 30 0 l 1,14,-1
 30 40 l 1,11,-1
50 40 m 1,15,-1
 60 40 l 1,16,-1
 60 0 l 1,17,-1
 50 0 l 1,18,-1
 50 40 l 1,19,-1
 50 40 l 1,15,-1
EndSplineSet
EndChar

StartChar: uniE06E
Encoding: 57454 57454 257
Width: 60
VWidth: 73
GlyphClass: 1
Flags: W
LayerCount: 2
Fore
SplineSet
10 50 m 1,0,-1
 20 50 l 1,1,-1
 20 40 l 1,2,-1
 30 40 l 1,3,-1
 30 50 l 1,4,-1
 50 50 l 1,5,-1
 50 40 l 1,6,-1
 30 40 l 1,7,-1
 30 30 l 1,8,-1
 20 30 l 1,9,-1
 20 0 l 1,10,-1
 10 0 l 1,11,-1
 10 50 l 1,12,-1
 10 50 l 1,0,-1
50 40 m 1,13,-1
 60 40 l 1,14,-1
 60 0 l 1,15,-1
 50 0 l 1,16,-1
 50 40 l 1,17,-1
 50 40 l 1,13,-1
EndSplineSet
EndChar

StartChar: uniE06F
Encoding: 57455 57455 258
Width: 60
VWidth: 73
GlyphClass: 1
Flags: W
LayerCount: 2
Fore
SplineSet
20 50 m 1,0,-1
 50 50 l 1,1,-1
 50 40 l 1,2,-1
 20 40 l 1,3,-1
 20 50 l 1,4,-1
 20 50 l 1,0,-1
10 40 m 1,5,-1
 20 40 l 1,6,-1
 20 10 l 1,7,-1
 10 10 l 1,8,-1
 10 40 l 1,5,-1
50 40 m 1,9,-1
 60 40 l 1,10,-1
 60 10 l 1,11,-1
 50 10 l 1,12,-1
 50 40 l 1,13,-1
 50 40 l 1,9,-1
20 10 m 1,14,-1
 50 10 l 1,15,-1
 50 0 l 1,16,-1
 20 0 l 1,17,-1
 20 10 l 1,18,-1
 20 10 l 1,14,-1
EndSplineSet
EndChar

StartChar: uniE070
Encoding: 57456 57456 259
Width: 60
VWidth: 73
GlyphClass: 1
Flags: W
LayerCount: 2
Fore
SplineSet
10 50 m 1,0,-1
 50 50 l 1,1,-1
 50 40 l 1,2,-1
 20 40 l 1,3,-1
 20 30 l 1,4,-1
 30 30 l 1,5,-1
 30 20 l 1,6,-1
 20 20 l 1,7,-1
 20 0 l 1,8,-1
 10 0 l 1,9,-1
 10 50 l 1,10,-1
 10 50 l 1,0,-1
50 40 m 1,11,-1
 60 40 l 1,12,-1
 60 20 l 1,13,-1
 50 20 l 1,14,-1
 50 40 l 1,15,-1
 50 40 l 1,11,-1
30 20 m 1,16,-1
 50 20 l 1,17,-1
 50 10 l 1,18,-1
 30 10 l 1,19,-1
 30 20 l 1,20,-1
 30 20 l 1,16,-1
EndSplineSet
EndChar

StartChar: uniE071
Encoding: 57457 57457 260
Width: 60
VWidth: 73
GlyphClass: 1
Flags: W
LayerCount: 2
Fore
SplineSet
20 50 m 1,0,-1
 60 50 l 1,1,-1
 60 0 l 1,2,-1
 50 0 l 1,3,-1
 50 20 l 1,4,-1
 40 20 l 1,5,-1
 40 30 l 1,6,-1
 50 30 l 1,7,-1
 50 40 l 1,8,-1
 20 40 l 1,9,-1
 20 50 l 1,10,-1
 20 50 l 1,0,-1
10 40 m 1,11,-1
 20 40 l 1,12,-1
 20 20 l 1,13,-1
 10 20 l 1,14,-1
 10 40 l 1,15,-1
 10 40 l 1,11,-1
20 20 m 1,16,-1
 40 20 l 1,17,-1
 40 10 l 1,18,-1
 20 10 l 1,19,-1
 20 20 l 1,20,-1
 20 20 l 1,16,-1
EndSplineSet
EndChar

StartChar: uniE072
Encoding: 57458 57458 261
Width: 60
VWidth: 73
GlyphClass: 1
Flags: W
LayerCount: 2
Fore
SplineSet
10 50 m 1,0,-1
 20 50 l 1,1,-1
 20 40 l 1,2,-1
 30 40 l 1,3,-1
 30 50 l 1,4,-1
 50 50 l 1,5,-1
 50 40 l 1,6,-1
 30 40 l 1,7,-1
 30 30 l 1,8,-1
 20 30 l 1,9,-1
 20 0 l 1,10,-1
 10 0 l 1,11,-1
 10 50 l 1,12,-1
 10 50 l 1,0,-1
50 40 m 1,13,-1
 60 40 l 1,14,-1
 60 30 l 1,15,-1
 50 30 l 1,16,-1
 50 40 l 1,17,-1
 50 40 l 1,13,-1
EndSplineSet
EndChar

StartChar: uniE073
Encoding: 57459 57459 262
Width: 60
VWidth: 73
GlyphClass: 1
Flags: W
LayerCount: 2
Fore
SplineSet
20 50 m 1,0,-1
 60 50 l 1,1,-1
 60 40 l 1,2,-1
 20 40 l 1,3,-1
 20 50 l 1,0,-1
10 40 m 1,4,-1
 20 40 l 1,5,-1
 20 30 l 1,6,-1
 10 30 l 1,7,-1
 10 40 l 1,4,-1
20 30 m 1,8,-1
 50 30 l 1,9,-1
 50 20 l 1,10,-1
 20 20 l 1,11,-1
 20 30 l 1,12,-1
 20 30 l 1,8,-1
50 20 m 1,13,-1
 60 20 l 1,14,-1
 60 10 l 1,15,-1
 50 10 l 1,16,-1
 50 20 l 1,17,-1
 50 20 l 1,13,-1
10 10 m 1,18,-1
 50 10 l 1,19,-1
 50 0 l 1,20,-1
 10 0 l 1,21,-1
 10 10 l 1,22,-1
 10 10 l 1,18,-1
EndSplineSet
EndChar

StartChar: uniE074
Encoding: 57460 57460 263
Width: 60
VWidth: 73
GlyphClass: 1
Flags: W
LayerCount: 2
Fore
SplineSet
20 70 m 1,0,-1
 30 70 l 1,1,-1
 30 50 l 1,2,-1
 50 50 l 1,3,-1
 50 40 l 1,4,-1
 30 40 l 1,5,-1
 30 10 l 1,6,-1
 20 10 l 1,7,-1
 20 40 l 1,8,-1
 10 40 l 1,9,-1
 10 50 l 1,10,-1
 20 50 l 1,11,-1
 20 70 l 1,12,-1
 20 70 l 1,0,-1
50 20 m 1,13,-1
 60 20 l 1,14,-1
 60 10 l 1,15,-1
 50 10 l 1,16,-1
 50 20 l 1,17,-1
 50 20 l 1,13,-1
30 10 m 1,18,-1
 50 10 l 1,19,-1
 50 0 l 1,20,-1
 30 0 l 1,21,-1
 30 10 l 1,22,-1
 30 10 l 1,18,-1
EndSplineSet
EndChar

StartChar: uniE075
Encoding: 57461 57461 264
Width: 60
VWidth: 73
GlyphClass: 1
Flags: W
LayerCount: 2
Fore
SplineSet
10 50 m 1,0,-1
 20 50 l 1,1,-1
 20 10 l 1,2,-1
 10 10 l 1,3,-1
 10 50 l 1,0,-1
50 50 m 1,4,-1
 60 50 l 1,5,-1
 60 0 l 1,6,-1
 50 0 l 1,7,-1
 50 10 l 1,8,-1
 40 10 l 1,9,-1
 40 20 l 1,10,-1
 50 20 l 1,11,-1
 50 50 l 1,12,-1
 50 50 l 1,4,-1
20 10 m 1,13,-1
 40 10 l 1,14,-1
 40 0 l 1,15,-1
 20 0 l 1,16,-1
 20 10 l 1,17,-1
 20 10 l 1,13,-1
EndSplineSet
EndChar

StartChar: uniE076
Encoding: 57462 57462 265
Width: 60
VWidth: 73
GlyphClass: 1
Flags: W
LayerCount: 2
Fore
SplineSet
10 50 m 1,0,-1
 20 50 l 1,1,-1
 20 30 l 1,2,-1
 10 30 l 1,3,-1
 10 50 l 1,0,-1
50 50 m 1,4,-1
 60 50 l 1,5,-1
 60 30 l 1,6,-1
 50 30 l 1,7,-1
 50 50 l 1,8,-1
 50 50 l 1,4,-1
20 30 m 1,9,-1
 30 30 l 1,10,-1
 30 10 l 1,11,-1
 20 10 l 1,12,-1
 20 30 l 1,9,-1
40 30 m 1,13,-1
 50 30 l 1,14,-1
 50 10 l 1,15,-1
 40 10 l 1,16,-1
 40 30 l 1,13,-1
30 10 m 1,17,-1
 40 10 l 1,18,-1
 40 0 l 1,19,-1
 30 0 l 1,20,-1
 30 10 l 1,21,-1
 30 10 l 1,17,-1
EndSplineSet
EndChar

StartChar: uniE077
Encoding: 57463 57463 266
Width: 60
VWidth: 73
GlyphClass: 1
Flags: W
LayerCount: 2
Fore
SplineSet
10 50 m 1,0,-1
 20 50 l 1,1,-1
 20 10 l 1,2,-1
 10 10 l 1,3,-1
 10 50 l 1,0,-1
50 50 m 1,4,-1
 60 50 l 1,5,-1
 60 10 l 1,6,-1
 50 10 l 1,7,-1
 50 50 l 1,8,-1
 50 50 l 1,4,-1
30 40 m 1,9,-1
 40 40 l 1,10,-1
 40 10 l 1,11,-1
 30 10 l 1,12,-1
 30 40 l 1,9,-1
20 10 m 1,13,-1
 30 10 l 1,14,-1
 30 0 l 1,15,-1
 20 0 l 1,16,-1
 20 10 l 1,17,-1
 20 10 l 1,13,-1
40 10 m 1,18,-1
 50 10 l 1,19,-1
 50 0 l 1,20,-1
 40 0 l 1,21,-1
 40 10 l 1,22,-1
 40 10 l 1,18,-1
EndSplineSet
EndChar

StartChar: uniE078
Encoding: 57464 57464 267
Width: 60
VWidth: 73
GlyphClass: 1
Flags: W
LayerCount: 2
Fore
SplineSet
10 50 m 1,0,-1
 20 50 l 1,1,-1
 20 40 l 1,2,-1
 10 40 l 1,3,-1
 10 50 l 1,0,-1
50 50 m 1,4,-1
 60 50 l 1,5,-1
 60 40 l 1,6,-1
 50 40 l 1,7,-1
 50 50 l 1,8,-1
 50 50 l 1,4,-1
20 40 m 1,9,-1
 30 40 l 1,10,-1
 30 30 l 1,11,-1
 20 30 l 1,12,-1
 20 40 l 1,9,-1
40 40 m 1,13,-1
 50 40 l 1,14,-1
 50 30 l 1,15,-1
 40 30 l 1,16,-1
 40 40 l 1,13,-1
30 30 m 1,17,-1
 40 30 l 1,18,-1
 40 20 l 1,19,-1
 30 20 l 1,20,-1
 30 30 l 1,17,-1
20 20 m 1,21,-1
 30 20 l 1,22,-1
 30 10 l 1,23,-1
 20 10 l 1,24,-1
 20 20 l 1,25,-1
 20 20 l 1,21,-1
40 20 m 1,26,-1
 50 20 l 1,27,-1
 50 10 l 1,28,-1
 40 10 l 1,29,-1
 40 20 l 1,30,-1
 40 20 l 1,26,-1
10 10 m 1,31,-1
 20 10 l 1,32,-1
 20 0 l 1,33,-1
 10 0 l 1,34,-1
 10 10 l 1,35,-1
 10 10 l 1,31,-1
50 10 m 1,36,-1
 60 10 l 1,37,-1
 60 0 l 1,38,-1
 50 0 l 1,39,-1
 50 10 l 1,40,-1
 50 10 l 1,36,-1
EndSplineSet
EndChar

StartChar: uniE079
Encoding: 57465 57465 268
Width: 60
VWidth: 73
GlyphClass: 1
Flags: W
LayerCount: 2
Fore
SplineSet
10 50 m 1,0,-1
 20 50 l 1,1,-1
 20 30 l 1,2,-1
 10 30 l 1,3,-1
 10 50 l 1,0,-1
50 50 m 1,4,-1
 60 50 l 1,5,-1
 60 30 l 1,6,-1
 50 30 l 1,7,-1
 50 50 l 1,8,-1
 50 50 l 1,4,-1
20 30 m 1,9,-1
 30 30 l 1,10,-1
 30 20 l 1,11,-1
 20 20 l 1,12,-1
 20 30 l 1,9,-1
40 30 m 1,13,-1
 50 30 l 1,14,-1
 50 20 l 1,15,-1
 40 20 l 1,16,-1
 40 30 l 1,13,-1
30 20 m 1,17,-1
 40 20 l 1,18,-1
 40 10 l 1,19,-1
 30 10 l 1,20,-1
 30 20 l 1,21,-1
 30 20 l 1,17,-1
10 10 m 1,22,-1
 30 10 l 1,23,-1
 30 0 l 1,24,-1
 10 0 l 1,25,-1
 10 10 l 1,26,-1
 10 10 l 1,22,-1
EndSplineSet
EndChar

StartChar: uniE07A
Encoding: 57466 57466 269
Width: 60
VWidth: 73
GlyphClass: 1
Flags: W
LayerCount: 2
Fore
SplineSet
10 50 m 1,0,-1
 60 50 l 1,1,-1
 60 40 l 1,2,-1
 50 40 l 1,3,-1
 50 30 l 1,4,-1
 40 30 l 1,5,-1
 40 40 l 1,6,-1
 10 40 l 1,7,-1
 10 50 l 1,8,-1
 10 50 l 1,0,-1
30 30 m 1,9,-1
 40 30 l 1,10,-1
 40 20 l 1,11,-1
 30 20 l 1,12,-1
 30 30 l 1,9,-1
20 20 m 1,13,-1
 30 20 l 1,14,-1
 30 10 l 1,15,-1
 60 10 l 1,16,-1
 60 0 l 1,17,-1
 10 0 l 1,18,-1
 10 10 l 1,19,-1
 20 10 l 1,20,-1
 20 20 l 1,21,-1
 20 20 l 1,13,-1
EndSplineSet
EndChar

StartChar: uniE07B
Encoding: 57467 57467 270
Width: 60
VWidth: 73
GlyphClass: 1
Flags: W
LayerCount: 2
Fore
SplineSet
40 70 m 1,0,-1
 60 70 l 1,1,-1
 60 60 l 1,2,-1
 40 60 l 1,3,-1
 40 70 l 1,0,-1
30 60 m 1,4,-1
 40 60 l 1,5,-1
 40 40 l 1,6,-1
 30 40 l 1,7,-1
 30 60 l 1,4,-1
20 40 m 1,8,-1
 30 40 l 1,9,-1
 30 30 l 1,10,-1
 20 30 l 1,11,-1
 20 40 l 1,8,-1
30 30 m 1,12,-1
 40 30 l 1,13,-1
 40 10 l 1,14,-1
 30 10 l 1,15,-1
 30 30 l 1,12,-1
40 10 m 1,16,-1
 60 10 l 1,17,-1
 60 0 l 1,18,-1
 40 0 l 1,19,-1
 40 10 l 1,20,-1
 40 10 l 1,16,-1
EndSplineSet
EndChar

StartChar: uniE07C
Encoding: 57468 57468 271
Width: 60
VWidth: 73
GlyphClass: 1
Flags: W
LayerCount: 2
Fore
SplineSet
0 70 m 1,0,-1
 30 70 l 1,1,-1
 30 0 l 1,2,-1
 0 0 l 1,3,-1
 0 70 l 1,0,-1
EndSplineSet
EndChar

StartChar: uniE07D
Encoding: 57469 57469 272
Width: 60
VWidth: 73
GlyphClass: 1
Flags: W
LayerCount: 2
Fore
SplineSet
10 70 m 1,0,-1
 30 70 l 1,1,-1
 30 60 l 1,2,-1
 10 60 l 1,3,-1
 10 70 l 1,0,-1
30 60 m 1,4,-1
 40 60 l 1,5,-1
 40 40 l 1,6,-1
 30 40 l 1,7,-1
 30 60 l 1,4,-1
40 40 m 1,8,-1
 50 40 l 1,9,-1
 50 30 l 1,10,-1
 40 30 l 1,11,-1
 40 40 l 1,8,-1
30 30 m 1,12,-1
 40 30 l 1,13,-1
 40 10 l 1,14,-1
 30 10 l 1,15,-1
 30 30 l 1,12,-1
10 10 m 1,16,-1
 30 10 l 1,17,-1
 30 0 l 1,18,-1
 10 0 l 1,19,-1
 10 10 l 1,20,-1
 10 10 l 1,16,-1
EndSplineSet
EndChar

StartChar: uniE07E
Encoding: 57470 57470 273
Width: 60
VWidth: 73
GlyphClass: 1
Flags: W
LayerCount: 2
Fore
SplineSet
20 50 m 1,0,-1
 30 50 l 1,1,-1
 30 40 l 1,2,-1
 20 40 l 1,3,-1
 20 50 l 1,0,-1
10 40 m 1,4,-1
 20 40 l 1,5,-1
 20 30 l 1,6,-1
 10 30 l 1,7,-1
 10 40 l 1,4,-1
30 40 m 1,8,-1
 40 40 l 1,9,-1
 40 30 l 1,10,-1
 30 30 l 1,11,-1
 30 40 l 1,8,-1
50 40 m 1,12,-1
 60 40 l 1,13,-1
 60 30 l 1,14,-1
 50 30 l 1,15,-1
 50 40 l 1,16,-1
 50 40 l 1,12,-1
40 30 m 1,17,-1
 50 30 l 1,18,-1
 50 20 l 1,19,-1
 40 20 l 1,20,-1
 40 30 l 1,17,-1
EndSplineSet
EndChar

StartChar: uniE07F
Encoding: 57471 57471 274
Width: 60
VWidth: 73
GlyphClass: 1
Flags: W
LayerCount: 2
Fore
SplineSet
30 70 m 1,0,-1
 40 70 l 1,1,-1
 40 40 l 1,2,-1
 60 40 l 1,3,-1
 60 30 l 1,4,-1
 40 30 l 1,5,-1
 40 0 l 1,6,-1
 30 0 l 1,7,-1
 30 70 l 1,0,-1
EndSplineSet
EndChar

StartChar: uniE080
Encoding: 57472 57472 275
Width: 60
VWidth: 73
GlyphClass: 1
Flags: W
LayerCount: 2
Fore
SplineSet
30 70 m 1,0,-1
 50 70 l 1,1,-1
 50 60 l 1,2,-1
 30 60 l 1,3,-1
 30 70 l 1,4,-1
 30 70 l 1,0,-1
20 50 m 1,5,-1
 50 50 l 1,6,-1
 50 30 l 1,7,-1
 40 30 l 1,8,-1
 40 10 l 1,9,-1
 50 10 l 1,10,-1
 50 20 l 1,11,-1
 60 20 l 1,12,-1
 60 10 l 1,13,-1
 50 10 l 1,14,-1
 50 0 l 1,15,-1
 30 0 l 1,16,-1
 30 10 l 1,17,-1
 20 10 l 1,18,-1
 20 30 l 1,19,-1
 30 30 l 1,20,-1
 30 40 l 1,21,-1
 20 40 l 1,22,-1
 20 50 l 1,23,-1
 20 50 l 1,5,-1
EndSplineSet
EndChar

StartChar: uniE081
Encoding: 57473 57473 276
Width: 60
VWidth: 73
GlyphClass: 1
Flags: W
LayerCount: 2
Fore
SplineSet
30 60 m 1,0,-1
 50 60 l 1,1,-1
 50 50 l 1,2,-1
 30 50 l 1,3,-1
 30 60 l 1,4,-1
 30 60 l 1,0,-1
20 50 m 1,5,-1
 30 50 l 1,6,-1
 30 40 l 1,7,-1
 50 40 l 1,8,-1
 50 50 l 1,9,-1
 60 50 l 1,10,-1
 60 40 l 1,11,-1
 50 40 l 1,12,-1
 50 30 l 1,13,-1
 30 30 l 1,14,-1
 30 10 l 1,15,-1
 50 10 l 1,16,-1
 50 20 l 1,17,-1
 60 20 l 1,18,-1
 60 10 l 1,19,-1
 50 10 l 1,20,-1
 50 0 l 1,21,-1
 20 0 l 1,22,-1
 20 10 l 1,23,-1
 10 10 l 1,24,-1
 10 40 l 1,25,-1
 20 40 l 1,26,-1
 20 50 l 1,27,-1
 20 50 l 1,5,-1
EndSplineSet
EndChar

StartChar: uniE082
Encoding: 57474 57474 277
Width: 60
VWidth: 73
GlyphClass: 1
Flags: W
LayerCount: 2
Fore
SplineSet
10 50 m 1,0,-1
 20 50 l 1,1,-1
 20 40 l 1,2,-1
 10 40 l 1,3,-1
 10 50 l 1,0,-1
50 50 m 1,4,-1
 60 50 l 1,5,-1
 60 40 l 1,6,-1
 50 40 l 1,7,-1
 50 50 l 1,8,-1
 50 50 l 1,4,-1
20 40 m 1,9,-1
 30 40 l 1,10,-1
 30 30 l 1,11,-1
 20 30 l 1,12,-1
 20 40 l 1,9,-1
40 40 m 1,13,-1
 50 40 l 1,14,-1
 50 30 l 1,15,-1
 40 30 l 1,16,-1
 40 40 l 1,13,-1
30 30 m 1,17,-1
 40 30 l 1,18,-1
 40 20 l 1,19,-1
 30 20 l 1,20,-1
 30 30 l 1,17,-1
20 20 m 1,21,-1
 30 20 l 1,22,-1
 30 10 l 1,23,-1
 20 10 l 1,24,-1
 20 20 l 1,25,-1
 20 20 l 1,21,-1
40 20 m 1,26,-1
 50 20 l 1,27,-1
 50 10 l 1,28,-1
 40 10 l 1,29,-1
 40 20 l 1,30,-1
 40 20 l 1,26,-1
10 10 m 1,31,-1
 20 10 l 1,32,-1
 20 0 l 1,33,-1
 10 0 l 1,34,-1
 10 10 l 1,35,-1
 10 10 l 1,31,-1
50 10 m 1,36,-1
 60 10 l 1,37,-1
 60 0 l 1,38,-1
 50 0 l 1,39,-1
 50 10 l 1,40,-1
 50 10 l 1,36,-1
EndSplineSet
EndChar

StartChar: uniE083
Encoding: 57475 57475 278
Width: 60
VWidth: 73
GlyphClass: 1
Flags: W
LayerCount: 2
Fore
SplineSet
10 50 m 1,0,-1
 20 50 l 1,1,-1
 20 0 l 1,2,-1
 10 0 l 1,3,-1
 10 50 l 1,0,-1
30 50 m 1,4,-1
 60 50 l 1,5,-1
 60 0 l 1,6,-1
 30 0 l 1,7,-1
 30 50 l 1,4,-1
50 40 m 1,8,-1
 40 40 l 1,9,-1
 40 10 l 1,10,-1
 50 10 l 1,11,-1
 50 40 l 1,12,-1
 50 40 l 1,8,-1
EndSplineSet
EndChar

StartChar: uniE084
Encoding: 57476 57476 279
Width: 60
VWidth: 73
GlyphClass: 1
Flags: W
LayerCount: 2
Fore
SplineSet
20 40 m 1,0,-1
 30 40 l 1,1,-1
 30 30 l 1,2,-1
 20 30 l 1,3,-1
 20 40 l 1,0,-1
40 40 m 1,4,-1
 50 40 l 1,5,-1
 50 30 l 1,6,-1
 40 30 l 1,7,-1
 40 40 l 1,4,-1
10 30 m 1,8,-1
 20 30 l 1,9,-1
 20 10 l 1,10,-1
 10 10 l 1,11,-1
 10 30 l 1,8,-1
30 30 m 1,12,-1
 40 30 l 1,13,-1
 40 10 l 1,14,-1
 30 10 l 1,15,-1
 30 30 l 1,12,-1
50 30 m 1,16,-1
 60 30 l 1,17,-1
 60 10 l 1,18,-1
 50 10 l 1,19,-1
 50 30 l 1,20,-1
 50 30 l 1,16,-1
20 10 m 1,21,-1
 30 10 l 1,22,-1
 30 0 l 1,23,-1
 20 0 l 1,24,-1
 20 10 l 1,25,-1
 20 10 l 1,21,-1
40 10 m 1,26,-1
 50 10 l 1,27,-1
 50 0 l 1,28,-1
 40 0 l 1,29,-1
 40 10 l 1,30,-1
 40 10 l 1,26,-1
EndSplineSet
EndChar

StartChar: uniE085
Encoding: 57477 57477 280
Width: 60
VWidth: 73
GlyphClass: 1
Flags: W
LayerCount: 2
Fore
SplineSet
20 70 m 1,0,-1
 40 70 l 1,1,-1
 40 60 l 1,2,-1
 20 60 l 1,3,-1
 20 70 l 1,0,-1
10 60 m 1,4,-1
 20 60 l 1,5,-1
 20 40 l 1,6,-1
 10 40 l 1,7,-1
 10 60 l 1,4,-1
40 60 m 1,8,-1
 50 60 l 1,9,-1
 50 40 l 1,10,-1
 40 40 l 1,11,-1
 40 60 l 1,8,-1
20 40 m 1,12,-1
 40 40 l 1,13,-1
 40 30 l 1,14,-1
 20 30 l 1,15,-1
 20 40 l 1,12,-1
EndSplineSet
EndChar

StartChar: uniE086
Encoding: 57478 57478 281
Width: 60
VWidth: 73
GlyphClass: 1
Flags: W
LayerCount: 2
Fore
SplineSet
10 70 m 1,0,-1
 20 70 l 1,1,-1
 20 60 l 1,2,-1
 30 60 l 1,3,-1
 30 70 l 1,4,-1
 40 70 l 1,5,-1
 40 60 l 1,6,-1
 30 60 l 1,7,-1
 30 50 l 1,8,-1
 20 50 l 1,9,-1
 20 30 l 1,10,-1
 10 30 l 1,11,-1
 10 70 l 1,0,-1
EndSplineSet
EndChar

StartChar: uniE087
Encoding: 57479 57479 282
Width: 60
VWidth: 73
GlyphClass: 1
Flags: W
LayerCount: 2
Fore
SplineSet
20 70 m 1,0,-1
 50 70 l 1,1,-1
 50 30 l 1,2,-1
 40 30 l 1,3,-1
 40 40 l 1,4,-1
 20 40 l 1,5,-1
 20 50 l 1,6,-1
 10 50 l 1,7,-1
 10 60 l 1,8,-1
 20 60 l 1,9,-1
 20 70 l 1,10,-1
 20 70 l 1,0,-1
30 60 m 1,11,-1
 20 60 l 1,12,-1
 20 50 l 1,13,-1
 40 50 l 1,14,-1
 40 60 l 1,15,-1
 30 60 l 1,16,-1
 30 60 l 1,11,-1
20 30 m 1,17,-1
 40 30 l 1,18,-1
 40 20 l 1,19,-1
 20 20 l 1,20,-1
 20 30 l 1,17,-1
EndSplineSet
EndChar

StartChar: uniE088
Encoding: 57480 57480 283
Width: 60
VWidth: 73
GlyphClass: 1
Flags: W
LayerCount: 2
Fore
SplineSet
40 70 m 1,0,-1
 50 70 l 1,1,-1
 50 60 l 1,2,-1
 40 60 l 1,3,-1
 40 70 l 1,0,-1
30 60 m 1,4,-1
 40 60 l 1,5,-1
 40 40 l 1,6,-1
 30 40 l 1,7,-1
 30 60 l 1,4,-1
20 40 m 1,8,-1
 30 40 l 1,9,-1
 30 20 l 1,10,-1
 20 20 l 1,11,-1
 20 40 l 1,12,-1
 20 40 l 1,8,-1
10 20 m 1,13,-1
 20 20 l 1,14,-1
 20 10 l 1,15,-1
 60 10 l 1,16,-1
 60 0 l 1,17,-1
 10 0 l 1,18,-1
 10 20 l 1,19,-1
 10 20 l 1,13,-1
EndSplineSet
EndChar

StartChar: uniE089
Encoding: 57481 57481 284
Width: 60
VWidth: 73
GlyphClass: 1
Flags: W
LayerCount: 2
Fore
SplineSet
10 70 m 1,0,-1
 60 70 l 1,1,-1
 60 60 l 1,2,-1
 10 60 l 1,3,-1
 10 70 l 1,4,-1
 10 70 l 1,0,-1
10 50 m 1,5,-1
 20 50 l 1,6,-1
 20 40 l 1,7,-1
 10 40 l 1,8,-1
 10 50 l 1,5,-1
50 50 m 1,9,-1
 60 50 l 1,10,-1
 60 40 l 1,11,-1
 50 40 l 1,12,-1
 50 50 l 1,13,-1
 50 50 l 1,9,-1
20 40 m 1,14,-1
 30 40 l 1,15,-1
 30 30 l 1,16,-1
 20 30 l 1,17,-1
 20 40 l 1,14,-1
40 40 m 1,18,-1
 50 40 l 1,19,-1
 50 30 l 1,20,-1
 40 30 l 1,21,-1
 40 40 l 1,18,-1
30 30 m 1,22,-1
 40 30 l 1,23,-1
 40 20 l 1,24,-1
 30 20 l 1,25,-1
 30 30 l 1,22,-1
20 20 m 1,26,-1
 30 20 l 1,27,-1
 30 10 l 1,28,-1
 20 10 l 1,29,-1
 20 20 l 1,30,-1
 20 20 l 1,26,-1
40 20 m 1,31,-1
 50 20 l 1,32,-1
 50 10 l 1,33,-1
 40 10 l 1,34,-1
 40 20 l 1,35,-1
 40 20 l 1,31,-1
10 10 m 1,36,-1
 20 10 l 1,37,-1
 20 0 l 1,38,-1
 10 0 l 1,39,-1
 10 10 l 1,40,-1
 10 10 l 1,36,-1
50 10 m 1,41,-1
 60 10 l 1,42,-1
 60 0 l 1,43,-1
 50 0 l 1,44,-1
 50 10 l 1,45,-1
 50 10 l 1,41,-1
EndSplineSet
EndChar

StartChar: uniE08A
Encoding: 57482 57482 285
Width: 60
VWidth: 73
GlyphClass: 1
Flags: W
LayerCount: 2
Fore
SplineSet
10 70 m 1,0,-1
 60 70 l 1,1,-1
 60 60 l 1,2,-1
 10 60 l 1,3,-1
 10 70 l 1,4,-1
 10 70 l 1,0,-1
10 50 m 1,5,-1
 20 50 l 1,6,-1
 20 30 l 1,7,-1
 10 30 l 1,8,-1
 10 50 l 1,5,-1
50 50 m 1,9,-1
 60 50 l 1,10,-1
 60 30 l 1,11,-1
 50 30 l 1,12,-1
 50 50 l 1,13,-1
 50 50 l 1,9,-1
20 30 m 1,14,-1
 30 30 l 1,15,-1
 30 20 l 1,16,-1
 20 20 l 1,17,-1
 20 30 l 1,14,-1
40 30 m 1,18,-1
 50 30 l 1,19,-1
 50 20 l 1,20,-1
 40 20 l 1,21,-1
 40 30 l 1,18,-1
30 20 m 1,22,-1
 40 20 l 1,23,-1
 40 10 l 1,24,-1
 30 10 l 1,25,-1
 30 20 l 1,26,-1
 30 20 l 1,22,-1
10 10 m 1,27,-1
 30 10 l 1,28,-1
 30 0 l 1,29,-1
 10 0 l 1,30,-1
 10 10 l 1,31,-1
 10 10 l 1,27,-1
EndSplineSet
EndChar

StartChar: uniE08B
Encoding: 57483 57483 286
Width: 60
VWidth: 73
GlyphClass: 1
Flags: W
LayerCount: 2
Fore
SplineSet
30 70 m 1,0,-1
 40 70 l 1,1,-1
 40 60 l 1,2,-1
 30 60 l 1,3,-1
 30 70 l 1,0,-1
20 60 m 1,4,-1
 30 60 l 1,5,-1
 30 50 l 1,6,-1
 20 50 l 1,7,-1
 20 60 l 1,4,-1
40 60 m 1,8,-1
 50 60 l 1,9,-1
 50 50 l 1,10,-1
 40 50 l 1,11,-1
 40 60 l 1,8,-1
10 40 m 1,12,-1
 30 40 l 1,13,-1
 30 30 l 1,14,-1
 10 30 l 1,15,-1
 10 40 l 1,12,-1
40 40 m 1,16,-1
 60 40 l 1,17,-1
 60 30 l 1,18,-1
 40 30 l 1,19,-1
 40 40 l 1,16,-1
30 30 m 1,20,-1
 40 30 l 1,21,-1
 40 10 l 1,22,-1
 30 10 l 1,23,-1
 30 30 l 1,20,-1
10 10 m 1,24,-1
 30 10 l 1,25,-1
 30 0 l 1,26,-1
 10 0 l 1,27,-1
 10 10 l 1,28,-1
 10 10 l 1,24,-1
40 10 m 1,29,-1
 60 10 l 1,30,-1
 60 0 l 1,31,-1
 40 0 l 1,32,-1
 40 10 l 1,33,-1
 40 10 l 1,29,-1
EndSplineSet
EndChar

StartChar: uniE08C
Encoding: 57484 57484 287
Width: 60
VWidth: 73
GlyphClass: 1
Flags: W
LayerCount: 2
Fore
SplineSet
30 70 m 1,0,-1
 40 70 l 1,1,-1
 40 60 l 1,2,-1
 30 60 l 1,3,-1
 30 70 l 1,0,-1
20 60 m 1,4,-1
 30 60 l 1,5,-1
 30 50 l 1,6,-1
 20 50 l 1,7,-1
 20 60 l 1,4,-1
40 60 m 1,8,-1
 50 60 l 1,9,-1
 50 50 l 1,10,-1
 40 50 l 1,11,-1
 40 60 l 1,8,-1
10 40 m 1,12,-1
 20 40 l 1,13,-1
 20 30 l 1,14,-1
 10 30 l 1,15,-1
 10 40 l 1,12,-1
50 40 m 1,16,-1
 60 40 l 1,17,-1
 60 30 l 1,18,-1
 50 30 l 1,19,-1
 50 40 l 1,20,-1
 50 40 l 1,16,-1
20 30 m 1,21,-1
 30 30 l 1,22,-1
 30 20 l 1,23,-1
 20 20 l 1,24,-1
 20 30 l 1,21,-1
40 30 m 1,25,-1
 50 30 l 1,26,-1
 50 20 l 1,27,-1
 40 20 l 1,28,-1
 40 30 l 1,25,-1
30 20 m 1,29,-1
 40 20 l 1,30,-1
 40 10 l 1,31,-1
 30 10 l 1,32,-1
 30 20 l 1,33,-1
 30 20 l 1,29,-1
10 10 m 1,34,-1
 30 10 l 1,35,-1
 30 0 l 1,36,-1
 10 0 l 1,37,-1
 10 10 l 1,38,-1
 10 10 l 1,34,-1
EndSplineSet
EndChar

StartChar: uniE08D
Encoding: 57485 57485 288
Width: 60
VWidth: 73
GlyphClass: 1
Flags: W
LayerCount: 2
Fore
SplineSet
30 60 m 1,0,-1
 40 60 l 1,1,-1
 40 50 l 1,2,-1
 30 50 l 1,3,-1
 30 60 l 1,0,-1
40 50 m 1,4,-1
 50 50 l 1,5,-1
 50 40 l 1,6,-1
 60 40 l 1,7,-1
 60 30 l 1,8,-1
 50 30 l 1,9,-1
 50 20 l 1,10,-1
 40 20 l 1,11,-1
 40 30 l 1,12,-1
 10 30 l 1,13,-1
 10 40 l 1,14,-1
 40 40 l 1,15,-1
 40 50 l 1,4,-1
30 20 m 1,16,-1
 40 20 l 1,17,-1
 40 10 l 1,18,-1
 30 10 l 1,19,-1
 30 20 l 1,20,-1
 30 20 l 1,16,-1
EndSplineSet
EndChar

StartChar: uniE08E
Encoding: 57486 57486 289
Width: 60
VWidth: 73
GlyphClass: 1
Flags: W
LayerCount: 2
Fore
SplineSet
10 70 m 1,0,-1
 60 70 l 1,1,-1
 60 60 l 1,2,-1
 50 60 l 1,3,-1
 50 0 l 1,4,-1
 40 0 l 1,5,-1
 40 60 l 1,6,-1
 30 60 l 1,7,-1
 30 0 l 1,8,-1
 20 0 l 1,9,-1
 20 60 l 1,10,-1
 10 60 l 1,11,-1
 10 70 l 1,12,-1
 10 70 l 1,0,-1
EndSplineSet
EndChar

StartChar: uniE08F
Encoding: 57487 57487 290
Width: 60
VWidth: 73
GlyphClass: 1
Flags: W
LayerCount: 2
Fore
SplineSet
20 70 m 1,0,-1
 30 70 l 1,1,-1
 30 60 l 1,2,-1
 20 60 l 1,3,-1
 20 70 l 1,0,-1
30 60 m 1,4,-1
 40 60 l 1,5,-1
 40 50 l 1,6,-1
 50 50 l 1,7,-1
 50 40 l 1,8,-1
 10 40 l 1,9,-1
 10 50 l 1,10,-1
 30 50 l 1,11,-1
 30 60 l 1,12,-1
 30 60 l 1,4,-1
50 40 m 1,13,-1
 60 40 l 1,14,-1
 60 30 l 1,15,-1
 50 30 l 1,16,-1
 50 40 l 1,17,-1
 50 40 l 1,13,-1
10 30 m 1,18,-1
 50 30 l 1,19,-1
 50 20 l 1,20,-1
 40 20 l 1,21,-1
 40 10 l 1,22,-1
 30 10 l 1,23,-1
 30 20 l 1,24,-1
 10 20 l 1,25,-1
 10 30 l 1,18,-1
20 10 m 1,26,-1
 30 10 l 1,27,-1
 30 0 l 1,28,-1
 20 0 l 1,29,-1
 20 10 l 1,30,-1
 20 10 l 1,26,-1
EndSplineSet
EndChar

StartChar: uniE090
Encoding: 57488 57488 291
Width: 60
VWidth: 73
GlyphClass: 1
Flags: W
LayerCount: 2
Fore
SplineSet
20 30 m 1,0,-1
 30 30 l 1,1,-1
 30 20 l 1,2,-1
 20 20 l 1,3,-1
 20 30 l 1,0,-1
40 30 m 1,4,-1
 50 30 l 1,5,-1
 50 20 l 1,6,-1
 40 20 l 1,7,-1
 40 30 l 1,4,-1
30 20 m 1,8,-1
 40 20 l 1,9,-1
 40 10 l 1,10,-1
 30 10 l 1,11,-1
 30 20 l 1,12,-1
 30 20 l 1,8,-1
20 10 m 1,13,-1
 30 10 l 1,14,-1
 30 0 l 1,15,-1
 20 0 l 1,16,-1
 20 10 l 1,17,-1
 20 10 l 1,13,-1
40 10 m 1,18,-1
 50 10 l 1,19,-1
 50 0 l 1,20,-1
 40 0 l 1,21,-1
 40 10 l 1,22,-1
 40 10 l 1,18,-1
EndSplineSet
EndChar

StartChar: uniE091
Encoding: 57489 57489 292
Width: 60
VWidth: 73
GlyphClass: 1
Flags: W
LayerCount: 2
Fore
SplineSet
10 30 m 1,0,-1
 20 30 l 1,1,-1
 20 0 l 1,2,-1
 10 0 l 1,3,-1
 10 30 l 1,0,-1
30 30 m 1,4,-1
 60 30 l 1,5,-1
 60 0 l 1,6,-1
 30 0 l 1,7,-1
 30 30 l 1,4,-1
50 20 m 1,8,-1
 40 20 l 1,9,-1
 40 10 l 1,10,-1
 50 10 l 1,11,-1
 50 20 l 1,12,-1
 50 20 l 1,8,-1
EndSplineSet
EndChar

StartChar: uniE092
Encoding: 57490 57490 293
Width: 60
VWidth: 73
GlyphClass: 1
Flags: W
LayerCount: 2
Fore
SplineSet
30 50 m 1,0,-1
 60 50 l 1,1,-1
 60 40 l 1,2,-1
 30 40 l 1,3,-1
 30 50 l 1,0,-1
10 30 m 1,4,-1
 20 30 l 1,5,-1
 20 0 l 1,6,-1
 10 0 l 1,7,-1
 10 30 l 1,4,-1
30 30 m 1,8,-1
 60 30 l 1,9,-1
 60 0 l 1,10,-1
 30 0 l 1,11,-1
 30 30 l 1,8,-1
50 20 m 1,12,-1
 40 20 l 1,13,-1
 40 10 l 1,14,-1
 50 10 l 1,15,-1
 50 20 l 1,16,-1
 50 20 l 1,12,-1
EndSplineSet
EndChar

StartChar: uniE093
Encoding: 57491 57491 294
Width: 60
VWidth: 73
GlyphClass: 1
Flags: W
LayerCount: 2
Fore
SplineSet
50 50 m 1,0,-1
 60 50 l 1,1,-1
 60 0 l 1,2,-1
 20 0 l 1,3,-1
 20 10 l 1,4,-1
 50 10 l 1,5,-1
 50 50 l 1,6,-1
 50 50 l 1,0,-1
EndSplineSet
EndChar

StartChar: uniE094
Encoding: 57492 57492 295
Width: 60
VWidth: 73
GlyphClass: 1
Flags: W
LayerCount: 2
Fore
SplineSet
40 70 m 1,0,-1
 60 70 l 1,1,-1
 60 60 l 1,2,-1
 40 60 l 1,3,-1
 40 70 l 1,0,-1
20 60 m 1,4,-1
 40 60 l 1,5,-1
 40 50 l 1,6,-1
 20 50 l 1,7,-1
 20 60 l 1,4,-1
10 50 m 1,8,-1
 20 50 l 1,9,-1
 20 40 l 1,10,-1
 10 40 l 1,11,-1
 10 50 l 1,8,-1
20 40 m 1,12,-1
 40 40 l 1,13,-1
 40 30 l 1,14,-1
 20 30 l 1,15,-1
 20 40 l 1,12,-1
40 30 m 1,16,-1
 60 30 l 1,17,-1
 60 20 l 1,18,-1
 40 20 l 1,19,-1
 40 30 l 1,16,-1
10 10 m 1,20,-1
 60 10 l 1,21,-1
 60 0 l 1,22,-1
 10 0 l 1,23,-1
 10 10 l 1,24,-1
 10 10 l 1,20,-1
EndSplineSet
EndChar

StartChar: uniE095
Encoding: 57493 57493 296
Width: 60
VWidth: 73
GlyphClass: 1
Flags: W
LayerCount: 2
Fore
SplineSet
40 70 m 1,0,-1
 50 70 l 1,1,-1
 50 50 l 1,2,-1
 60 50 l 1,3,-1
 60 40 l 1,4,-1
 40 40 l 1,5,-1
 40 30 l 1,6,-1
 60 30 l 1,7,-1
 60 20 l 1,8,-1
 30 20 l 1,9,-1
 30 0 l 1,10,-1
 20 0 l 1,11,-1
 20 20 l 1,12,-1
 10 20 l 1,13,-1
 10 30 l 1,14,-1
 30 30 l 1,15,-1
 30 40 l 1,16,-1
 10 40 l 1,17,-1
 10 50 l 1,18,-1
 40 50 l 1,19,-1
 40 70 l 1,20,-1
 40 70 l 1,0,-1
EndSplineSet
EndChar

StartChar: uniE096
Encoding: 57494 57494 297
Width: 60
VWidth: 73
GlyphClass: 1
Flags: W
LayerCount: 2
Fore
SplineSet
10 70 m 1,0,-1
 30 70 l 1,1,-1
 30 60 l 1,2,-1
 10 60 l 1,3,-1
 10 70 l 1,0,-1
30 60 m 1,4,-1
 50 60 l 1,5,-1
 50 50 l 1,6,-1
 30 50 l 1,7,-1
 30 60 l 1,8,-1
 30 60 l 1,4,-1
50 50 m 1,9,-1
 60 50 l 1,10,-1
 60 40 l 1,11,-1
 50 40 l 1,12,-1
 50 50 l 1,13,-1
 50 50 l 1,9,-1
30 40 m 1,14,-1
 50 40 l 1,15,-1
 50 30 l 1,16,-1
 30 30 l 1,17,-1
 30 40 l 1,18,-1
 30 40 l 1,14,-1
10 30 m 1,19,-1
 30 30 l 1,20,-1
 30 20 l 1,21,-1
 10 20 l 1,22,-1
 10 30 l 1,19,-1
10 10 m 1,23,-1
 60 10 l 1,24,-1
 60 0 l 1,25,-1
 10 0 l 1,26,-1
 10 10 l 1,27,-1
 10 10 l 1,23,-1
EndSplineSet
EndChar

StartChar: uniE097
Encoding: 57495 57495 298
Width: 60
VWidth: 73
GlyphClass: 1
Flags: W
LayerCount: 2
Fore
SplineSet
20 60 m 1,0,-1
 50 60 l 1,1,-1
 50 30 l 1,2,-1
 60 30 l 1,3,-1
 60 20 l 1,4,-1
 50 20 l 1,5,-1
 50 10 l 1,6,-1
 40 10 l 1,7,-1
 40 50 l 1,8,-1
 30 50 l 1,9,-1
 30 10 l 1,10,-1
 20 10 l 1,11,-1
 20 20 l 1,12,-1
 10 20 l 1,13,-1
 10 30 l 1,14,-1
 20 30 l 1,15,-1
 20 60 l 1,16,-1
 20 60 l 1,0,-1
30 10 m 1,17,-1
 40 10 l 1,18,-1
 40 0 l 1,19,-1
 30 0 l 1,20,-1
 30 10 l 1,21,-1
 30 10 l 1,17,-1
EndSplineSet
EndChar

StartChar: uniE098
Encoding: 57496 57496 299
Width: 60
VWidth: 73
GlyphClass: 1
Flags: W
LayerCount: 2
Fore
SplineSet
30 70 m 1,0,-1
 60 70 l 1,1,-1
 60 60 l 1,2,-1
 40 60 l 1,3,-1
 40 0 l 1,4,-1
 30 0 l 1,5,-1
 30 10 l 1,6,-1
 20 10 l 1,7,-1
 20 20 l 1,8,-1
 10 20 l 1,9,-1
 10 30 l 1,10,-1
 20 30 l 1,11,-1
 20 20 l 1,12,-1
 30 20 l 1,13,-1
 30 70 l 1,14,-1
 30 70 l 1,0,-1
EndSplineSet
EndChar

StartChar: uniE099
Encoding: 57497 57497 300
Width: 60
VWidth: 73
GlyphClass: 1
Flags: W
LayerCount: 2
Fore
SplineSet
40 70 m 1,0,-1
 50 70 l 1,1,-1
 50 60 l 1,2,-1
 40 60 l 1,3,-1
 40 70 l 1,0,-1
30 60 m 1,4,-1
 40 60 l 1,5,-1
 40 10 l 1,6,-1
 30 10 l 1,7,-1
 30 60 l 1,8,-1
 30 60 l 1,4,-1
50 60 m 1,9,-1
 60 60 l 1,10,-1
 60 50 l 1,11,-1
 50 50 l 1,12,-1
 50 60 l 1,13,-1
 50 60 l 1,9,-1
10 20 m 1,14,-1
 20 20 l 1,15,-1
 20 10 l 1,16,-1
 10 10 l 1,17,-1
 10 20 l 1,18,-1
 10 20 l 1,14,-1
20 10 m 1,19,-1
 30 10 l 1,20,-1
 30 0 l 1,21,-1
 20 0 l 1,22,-1
 20 10 l 1,23,-1
 20 10 l 1,19,-1
EndSplineSet
EndChar

StartChar: uniE09A
Encoding: 57498 57498 301
Width: 60
VWidth: 73
GlyphClass: 1
Flags: W
LayerCount: 2
Fore
SplineSet
20 50 m 1,0,-1
 40 50 l 1,1,-1
 40 40 l 1,2,-1
 20 40 l 1,3,-1
 20 50 l 1,0,-1
10 40 m 1,4,-1
 20 40 l 1,5,-1
 20 20 l 1,6,-1
 40 20 l 1,7,-1
 40 40 l 1,8,-1
 50 40 l 1,9,-1
 50 0 l 1,10,-1
 40 0 l 1,11,-1
 40 10 l 1,12,-1
 20 10 l 1,13,-1
 20 0 l 1,14,-1
 10 0 l 1,15,-1
 10 40 l 1,4,-1
EndSplineSet
EndChar

StartChar: uniE09B
Encoding: 57499 57499 302
Width: 60
VWidth: 73
GlyphClass: 1
Flags: W
LayerCount: 2
Fore
SplineSet
10 50 m 1,0,-1
 40 50 l 1,1,-1
 40 40 l 1,2,-1
 20 40 l 1,3,-1
 20 30 l 1,4,-1
 40 30 l 1,5,-1
 40 40 l 1,6,-1
 50 40 l 1,7,-1
 50 30 l 1,8,-1
 40 30 l 1,9,-1
 40 20 l 1,10,-1
 20 20 l 1,11,-1
 20 10 l 1,12,-1
 40 10 l 1,13,-1
 40 20 l 1,14,-1
 50 20 l 1,15,-1
 50 10 l 1,16,-1
 40 10 l 1,17,-1
 40 0 l 1,18,-1
 10 0 l 1,19,-1
 10 50 l 1,20,-1
 10 50 l 1,0,-1
EndSplineSet
EndChar

StartChar: uniE09C
Encoding: 57500 57500 303
Width: 60
VWidth: 73
GlyphClass: 1
Flags: W
LayerCount: 2
Fore
SplineSet
20 50 m 1,0,-1
 40 50 l 1,1,-1
 40 40 l 1,2,-1
 20 40 l 1,3,-1
 20 50 l 1,0,-1
10 40 m 1,4,-1
 20 40 l 1,5,-1
 20 10 l 1,6,-1
 10 10 l 1,7,-1
 10 40 l 1,4,-1
40 40 m 1,8,-1
 50 40 l 1,9,-1
 50 30 l 1,10,-1
 40 30 l 1,11,-1
 40 40 l 1,8,-1
40 20 m 1,12,-1
 50 20 l 1,13,-1
 50 10 l 1,14,-1
 40 10 l 1,15,-1
 40 20 l 1,16,-1
 40 20 l 1,12,-1
20 10 m 1,17,-1
 40 10 l 1,18,-1
 40 0 l 1,19,-1
 20 0 l 1,20,-1
 20 10 l 1,21,-1
 20 10 l 1,17,-1
EndSplineSet
EndChar

StartChar: uniE09D
Encoding: 57501 57501 304
Width: 60
VWidth: 73
GlyphClass: 1
Flags: W
LayerCount: 2
Fore
SplineSet
10 40 m 1,0,-1
 20 40 l 1,1,-1
 20 30 l 1,2,-1
 30 30 l 1,3,-1
 30 40 l 1,4,-1
 40 40 l 1,5,-1
 40 30 l 1,6,-1
 30 30 l 1,7,-1
 30 20 l 1,8,-1
 20 20 l 1,9,-1
 20 0 l 1,10,-1
 10 0 l 1,11,-1
 10 40 l 1,0,-1
40 30 m 1,12,-1
 50 30 l 1,13,-1
 50 0 l 1,14,-1
 40 0 l 1,15,-1
 40 30 l 1,12,-1
EndSplineSet
EndChar

StartChar: uniE09E
Encoding: 57502 57502 305
Width: 60
VWidth: 73
GlyphClass: 1
Flags: W
LayerCount: 2
Fore
SplineSet
20 70 m 1,0,-1
 30 70 l 1,1,-1
 30 60 l 1,2,-1
 40 60 l 1,3,-1
 40 50 l 1,4,-1
 50 50 l 1,5,-1
 50 40 l 1,6,-1
 60 40 l 1,7,-1
 60 30 l 1,8,-1
 50 30 l 1,9,-1
 50 20 l 1,10,-1
 40 20 l 1,11,-1
 40 10 l 1,12,-1
 30 10 l 1,13,-1
 30 0 l 1,14,-1
 20 0 l 1,15,-1
 20 70 l 1,16,-1
 20 70 l 1,0,-1
EndSplineSet
EndChar

StartChar: uniE09F
Encoding: 57503 57503 306
Width: 60
VWidth: 73
GlyphClass: 1
Flags: W
LayerCount: 2
Fore
SplineSet
40 70 m 1,0,-1
 50 70 l 1,1,-1
 50 0 l 1,2,-1
 40 0 l 1,3,-1
 40 10 l 1,4,-1
 30 10 l 1,5,-1
 30 20 l 1,6,-1
 20 20 l 1,7,-1
 20 30 l 1,8,-1
 10 30 l 1,9,-1
 10 40 l 1,10,-1
 20 40 l 1,11,-1
 20 50 l 1,12,-1
 30 50 l 1,13,-1
 30 60 l 1,14,-1
 40 60 l 1,15,-1
 40 70 l 1,16,-1
 40 70 l 1,0,-1
EndSplineSet
EndChar

StartChar: uniE0A0
Encoding: 57504 57504 307
Width: 60
VWidth: 73
GlyphClass: 1
Flags: W
LayerCount: 2
Fore
SplineSet
20 70 m 1,0,-1
 40 70 l 1,1,-1
 40 60 l 1,2,-1
 20 60 l 1,3,-1
 20 70 l 1,0,-1
10 60 m 1,4,-1
 20 60 l 1,5,-1
 20 30 l 1,6,-1
 10 30 l 1,7,-1
 10 60 l 1,4,-1
40 60 m 1,8,-1
 50 60 l 1,9,-1
 50 30 l 1,10,-1
 40 30 l 1,11,-1
 40 60 l 1,8,-1
20 30 m 1,12,-1
 40 30 l 1,13,-1
 40 20 l 1,14,-1
 20 20 l 1,15,-1
 20 30 l 1,12,-1
EndSplineSet
EndChar

StartChar: uniE0A1
Encoding: 57505 57505 308
Width: 60
VWidth: 73
GlyphClass: 1
Flags: W
LayerCount: 2
Fore
SplineSet
20 70 m 1,0,-1
 30 70 l 1,1,-1
 30 30 l 1,2,-1
 40 30 l 1,3,-1
 40 20 l 1,4,-1
 10 20 l 1,5,-1
 10 30 l 1,6,-1
 20 30 l 1,7,-1
 20 50 l 1,8,-1
 10 50 l 1,9,-1
 10 60 l 1,10,-1
 20 60 l 1,11,-1
 20 70 l 1,12,-1
 20 70 l 1,0,-1
EndSplineSet
EndChar

StartChar: uniE0A2
Encoding: 57506 57506 309
Width: 60
VWidth: 73
GlyphClass: 1
Flags: W
LayerCount: 2
Fore
SplineSet
20 70 m 1,0,-1
 40 70 l 1,1,-1
 40 60 l 1,2,-1
 20 60 l 1,3,-1
 20 70 l 1,0,-1
10 60 m 1,4,-1
 20 60 l 1,5,-1
 20 50 l 1,6,-1
 10 50 l 1,7,-1
 10 60 l 1,4,-1
40 60 m 1,8,-1
 50 60 l 1,9,-1
 50 50 l 1,10,-1
 40 50 l 1,11,-1
 40 60 l 1,8,-1
30 50 m 1,12,-1
 40 50 l 1,13,-1
 40 40 l 1,14,-1
 30 40 l 1,15,-1
 30 50 l 1,12,-1
20 40 m 1,16,-1
 30 40 l 1,17,-1
 30 30 l 1,18,-1
 50 30 l 1,19,-1
 50 20 l 1,20,-1
 10 20 l 1,21,-1
 10 30 l 1,22,-1
 20 30 l 1,23,-1
 20 40 l 1,24,-1
 20 40 l 1,16,-1
EndSplineSet
EndChar

StartChar: uniE0A3
Encoding: 57507 57507 310
Width: 60
VWidth: 73
GlyphClass: 1
Flags: W
LayerCount: 2
Fore
SplineSet
20 70 m 1,0,-1
 40 70 l 1,1,-1
 40 60 l 1,2,-1
 20 60 l 1,3,-1
 20 70 l 1,0,-1
10 60 m 1,4,-1
 20 60 l 1,5,-1
 20 50 l 1,6,-1
 10 50 l 1,7,-1
 10 60 l 1,4,-1
40 60 m 1,8,-1
 50 60 l 1,9,-1
 50 50 l 1,10,-1
 40 50 l 1,11,-1
 40 60 l 1,8,-1
30 50 m 1,12,-1
 40 50 l 1,13,-1
 40 40 l 1,14,-1
 30 40 l 1,15,-1
 30 50 l 1,12,-1
10 40 m 1,16,-1
 20 40 l 1,17,-1
 20 30 l 1,18,-1
 10 30 l 1,19,-1
 10 40 l 1,16,-1
40 40 m 1,20,-1
 50 40 l 1,21,-1
 50 30 l 1,22,-1
 40 30 l 1,23,-1
 40 40 l 1,20,-1
20 30 m 1,24,-1
 40 30 l 1,25,-1
 40 20 l 1,26,-1
 20 20 l 1,27,-1
 20 30 l 1,24,-1
EndSplineSet
EndChar

StartChar: uniE0A4
Encoding: 57508 57508 311
Width: 60
VWidth: 73
GlyphClass: 1
Flags: W
LayerCount: 2
Fore
SplineSet
30 70 m 1,0,-1
 40 70 l 1,1,-1
 40 40 l 1,2,-1
 50 40 l 1,3,-1
 50 30 l 1,4,-1
 40 30 l 1,5,-1
 40 20 l 1,6,-1
 30 20 l 1,7,-1
 30 30 l 1,8,-1
 10 30 l 1,9,-1
 10 50 l 1,10,-1
 20 50 l 1,11,-1
 20 60 l 1,12,-1
 30 60 l 1,13,-1
 30 70 l 1,14,-1
 30 70 l 1,0,-1
30 50 m 1,15,-1
 20 50 l 1,16,-1
 20 40 l 1,17,-1
 30 40 l 1,18,-1
 30 50 l 1,15,-1
EndSplineSet
EndChar

StartChar: uniE0A5
Encoding: 57509 57509 312
Width: 60
VWidth: 73
GlyphClass: 1
Flags: W
LayerCount: 2
Fore
SplineSet
10 70 m 1,0,-1
 50 70 l 1,1,-1
 50 60 l 1,2,-1
 20 60 l 1,3,-1
 20 50 l 1,4,-1
 40 50 l 1,5,-1
 40 40 l 1,6,-1
 10 40 l 1,7,-1
 10 70 l 1,8,-1
 10 70 l 1,0,-1
40 40 m 1,9,-1
 50 40 l 1,10,-1
 50 30 l 1,11,-1
 40 30 l 1,12,-1
 40 40 l 1,9,-1
10 30 m 1,13,-1
 40 30 l 1,14,-1
 40 20 l 1,15,-1
 10 20 l 1,16,-1
 10 30 l 1,13,-1
EndSplineSet
EndChar

StartChar: uniE0A6
Encoding: 57510 57510 313
Width: 60
VWidth: 73
GlyphClass: 1
Flags: W
LayerCount: 2
Fore
SplineSet
20 70 m 1,0,-1
 40 70 l 1,1,-1
 40 60 l 1,2,-1
 20 60 l 1,3,-1
 20 70 l 1,0,-1
10 60 m 1,4,-1
 20 60 l 1,5,-1
 20 50 l 1,6,-1
 40 50 l 1,7,-1
 40 40 l 1,8,-1
 20 40 l 1,9,-1
 20 30 l 1,10,-1
 10 30 l 1,11,-1
 10 60 l 1,12,-1
 10 60 l 1,4,-1
40 40 m 1,13,-1
 50 40 l 1,14,-1
 50 30 l 1,15,-1
 40 30 l 1,16,-1
 40 40 l 1,13,-1
20 30 m 1,17,-1
 40 30 l 1,18,-1
 40 20 l 1,19,-1
 20 20 l 1,20,-1
 20 30 l 1,17,-1
EndSplineSet
EndChar

StartChar: uniE0A7
Encoding: 57511 57511 314
Width: 60
VWidth: 73
GlyphClass: 1
Flags: W
LayerCount: 2
Fore
SplineSet
10 70 m 1,0,-1
 50 70 l 1,1,-1
 50 50 l 1,2,-1
 40 50 l 1,3,-1
 40 60 l 1,4,-1
 20 60 l 1,5,-1
 20 50 l 1,6,-1
 10 50 l 1,7,-1
 10 70 l 1,0,-1
30 50 m 1,8,-1
 40 50 l 1,9,-1
 40 30 l 1,10,-1
 30 30 l 1,11,-1
 30 50 l 1,8,-1
20 30 m 1,12,-1
 30 30 l 1,13,-1
 30 20 l 1,14,-1
 20 20 l 1,15,-1
 20 30 l 1,12,-1
EndSplineSet
EndChar

StartChar: uniE0A8
Encoding: 57512 57512 315
Width: 60
VWidth: 73
GlyphClass: 1
Flags: W
LayerCount: 2
Fore
SplineSet
20 70 m 1,0,-1
 40 70 l 1,1,-1
 40 60 l 1,2,-1
 20 60 l 1,3,-1
 20 70 l 1,0,-1
10 60 m 1,4,-1
 20 60 l 1,5,-1
 20 50 l 1,6,-1
 10 50 l 1,7,-1
 10 60 l 1,4,-1
40 60 m 1,8,-1
 50 60 l 1,9,-1
 50 50 l 1,10,-1
 40 50 l 1,11,-1
 40 60 l 1,8,-1
20 50 m 1,12,-1
 40 50 l 1,13,-1
 40 40 l 1,14,-1
 20 40 l 1,15,-1
 20 50 l 1,12,-1
10 40 m 1,16,-1
 20 40 l 1,17,-1
 20 30 l 1,18,-1
 10 30 l 1,19,-1
 10 40 l 1,16,-1
40 40 m 1,20,-1
 50 40 l 1,21,-1
 50 30 l 1,22,-1
 40 30 l 1,23,-1
 40 40 l 1,20,-1
20 30 m 1,24,-1
 40 30 l 1,25,-1
 40 20 l 1,26,-1
 20 20 l 1,27,-1
 20 30 l 1,24,-1
EndSplineSet
EndChar

StartChar: uniE0A9
Encoding: 57513 57513 316
Width: 60
VWidth: 73
GlyphClass: 1
Flags: W
LayerCount: 2
Fore
SplineSet
20 70 m 1,0,-1
 40 70 l 1,1,-1
 40 60 l 1,2,-1
 20 60 l 1,3,-1
 20 70 l 1,0,-1
10 60 m 1,4,-1
 20 60 l 1,5,-1
 20 50 l 1,6,-1
 10 50 l 1,7,-1
 10 60 l 1,4,-1
40 60 m 1,8,-1
 50 60 l 1,9,-1
 50 30 l 1,10,-1
 40 30 l 1,11,-1
 40 40 l 1,12,-1
 20 40 l 1,13,-1
 20 50 l 1,14,-1
 40 50 l 1,15,-1
 40 60 l 1,16,-1
 40 60 l 1,8,-1
20 30 m 1,17,-1
 40 30 l 1,18,-1
 40 20 l 1,19,-1
 20 20 l 1,20,-1
 20 30 l 1,17,-1
EndSplineSet
EndChar

StartChar: uniE0AA
Encoding: 57514 57514 317
Width: 60
VWidth: 73
GlyphClass: 1
Flags: W
LayerCount: 2
Fore
SplineSet
40 70 m 1,0,-1
 60 70 l 1,1,-1
 60 20 l 1,2,-1
 50 20 l 1,3,-1
 50 60 l 1,4,-1
 40 60 l 1,5,-1
 40 70 l 1,6,-1
 40 70 l 1,0,-1
10 50 m 1,7,-1
 40 50 l 1,8,-1
 40 40 l 1,9,-1
 10 40 l 1,10,-1
 10 50 l 1,7,-1
EndSplineSet
EndChar

StartChar: uniE0AB
Encoding: 57515 57515 318
Width: 60
VWidth: 73
GlyphClass: 1
Flags: W
LayerCount: 2
Fore
SplineSet
20 70 m 1,0,-1
 30 70 l 1,1,-1
 30 60 l 1,2,-1
 20 60 l 1,3,-1
 20 70 l 1,0,-1
40 70 m 1,4,-1
 60 70 l 1,5,-1
 60 60 l 1,6,-1
 40 60 l 1,7,-1
 40 70 l 1,4,-1
10 60 m 1,8,-1
 20 60 l 1,9,-1
 20 50 l 1,10,-1
 10 50 l 1,11,-1
 10 60 l 1,8,-1
30 60 m 1,12,-1
 40 60 l 1,13,-1
 40 40 l 1,14,-1
 30 40 l 1,15,-1
 30 60 l 1,12,-1
50 50 m 1,16,-1
 60 50 l 1,17,-1
 60 40 l 1,18,-1
 50 40 l 1,19,-1
 50 50 l 1,20,-1
 50 50 l 1,16,-1
10 40 m 1,21,-1
 30 40 l 1,22,-1
 30 30 l 1,23,-1
 10 30 l 1,24,-1
 10 40 l 1,21,-1
40 40 m 1,25,-1
 50 40 l 1,26,-1
 50 30 l 1,27,-1
 40 30 l 1,28,-1
 40 40 l 1,25,-1
EndSplineSet
EndChar

StartChar: uniE0AC
Encoding: 57516 57516 319
Width: 60
VWidth: 73
GlyphClass: 1
Flags: W
LayerCount: 2
Fore
SplineSet
10 70 m 1,0,-1
 20 70 l 1,1,-1
 20 20 l 1,2,-1
 10 20 l 1,3,-1
 10 70 l 1,0,-1
30 70 m 1,4,-1
 60 70 l 1,5,-1
 60 20 l 1,6,-1
 30 20 l 1,7,-1
 30 70 l 1,4,-1
50 60 m 1,8,-1
 40 60 l 1,9,-1
 40 30 l 1,10,-1
 50 30 l 1,11,-1
 50 60 l 1,12,-1
 50 60 l 1,8,-1
EndSplineSet
EndChar

StartChar: uniE0AD
Encoding: 57517 57517 320
Width: 60
VWidth: 73
GlyphClass: 1
Flags: W
LayerCount: 2
Fore
SplineSet
40 50 m 1,0,-1
 50 50 l 1,1,-1
 50 40 l 1,2,-1
 40 40 l 1,3,-1
 40 50 l 1,0,-1
30 40 m 1,4,-1
 40 40 l 1,5,-1
 40 10 l 1,6,-1
 30 10 l 1,7,-1
 30 40 l 1,4,-1
40 10 m 1,8,-1
 50 10 l 1,9,-1
 50 0 l 1,10,-1
 40 0 l 1,11,-1
 40 10 l 1,12,-1
 40 10 l 1,8,-1
EndSplineSet
EndChar

StartChar: uniE0AE
Encoding: 57518 57518 321
Width: 60
VWidth: 73
GlyphClass: 1
Flags: W
LayerCount: 2
Fore
SplineSet
20 50 m 1,0,-1
 30 50 l 1,1,-1
 30 40 l 1,2,-1
 20 40 l 1,3,-1
 20 50 l 1,0,-1
30 40 m 1,4,-1
 40 40 l 1,5,-1
 40 10 l 1,6,-1
 30 10 l 1,7,-1
 30 40 l 1,4,-1
20 10 m 1,8,-1
 30 10 l 1,9,-1
 30 0 l 1,10,-1
 20 0 l 1,11,-1
 20 10 l 1,12,-1
 20 10 l 1,8,-1
EndSplineSet
EndChar

StartChar: uniE0AF
Encoding: 57519 57519 322
Width: 60
VWidth: 73
GlyphClass: 1
Flags: W
LayerCount: 2
Fore
SplineSet
30 60 m 1,0,-1
 40 60 l 1,1,-1
 40 40 l 1,2,-1
 60 40 l 1,3,-1
 60 30 l 1,4,-1
 40 30 l 1,5,-1
 40 10 l 1,6,-1
 60 10 l 1,7,-1
 60 0 l 1,8,-1
 10 0 l 1,9,-1
 10 10 l 1,10,-1
 30 10 l 1,11,-1
 30 30 l 1,12,-1
 10 30 l 1,13,-1
 10 40 l 1,14,-1
 30 40 l 1,15,-1
 30 60 l 1,16,-1
 30 60 l 1,0,-1
EndSplineSet
EndChar

StartChar: uniE0B0
Encoding: 57520 57520 323
Width: 60
VWidth: 73
GlyphClass: 1
Flags: W
LayerCount: 2
Fore
SplineSet
20 50 m 1,0,-1
 40 50 l 1,1,-1
 40 40 l 1,2,-1
 20 40 l 1,3,-1
 20 50 l 1,0,-1
10 40 m 1,4,-1
 20 40 l 1,5,-1
 20 10 l 1,6,-1
 10 10 l 1,7,-1
 10 40 l 1,4,-1
40 40 m 1,8,-1
 50 40 l 1,9,-1
 50 10 l 1,10,-1
 40 10 l 1,11,-1
 40 40 l 1,8,-1
20 10 m 1,12,-1
 40 10 l 1,13,-1
 40 0 l 1,14,-1
 20 0 l 1,15,-1
 20 10 l 1,16,-1
 20 10 l 1,12,-1
EndSplineSet
EndChar

StartChar: uniE0B1
Encoding: 57521 57521 324
Width: 60
VWidth: 73
GlyphClass: 1
Flags: W
LayerCount: 2
Fore
SplineSet
20 50 m 1,0,-1
 30 50 l 1,1,-1
 30 10 l 1,2,-1
 40 10 l 1,3,-1
 40 0 l 1,4,-1
 10 0 l 1,5,-1
 10 10 l 1,6,-1
 20 10 l 1,7,-1
 20 30 l 1,8,-1
 10 30 l 1,9,-1
 10 40 l 1,10,-1
 20 40 l 1,11,-1
 20 50 l 1,12,-1
 20 50 l 1,0,-1
EndSplineSet
EndChar

StartChar: uniE0B2
Encoding: 57522 57522 325
Width: 60
VWidth: 73
GlyphClass: 1
Flags: W
LayerCount: 2
Fore
SplineSet
20 50 m 1,0,-1
 40 50 l 1,1,-1
 40 40 l 1,2,-1
 20 40 l 1,3,-1
 20 50 l 1,0,-1
10 40 m 1,4,-1
 20 40 l 1,5,-1
 20 30 l 1,6,-1
 10 30 l 1,7,-1
 10 40 l 1,4,-1
40 40 m 1,8,-1
 50 40 l 1,9,-1
 50 30 l 1,10,-1
 40 30 l 1,11,-1
 40 40 l 1,8,-1
30 30 m 1,12,-1
 40 30 l 1,13,-1
 40 20 l 1,14,-1
 30 20 l 1,15,-1
 30 30 l 1,12,-1
20 20 m 1,16,-1
 30 20 l 1,17,-1
 30 10 l 1,18,-1
 50 10 l 1,19,-1
 50 0 l 1,20,-1
 10 0 l 1,21,-1
 10 10 l 1,22,-1
 20 10 l 1,23,-1
 20 20 l 1,24,-1
 20 20 l 1,16,-1
EndSplineSet
EndChar

StartChar: uniE0B3
Encoding: 57523 57523 326
Width: 60
VWidth: 73
GlyphClass: 1
Flags: W
LayerCount: 2
Fore
SplineSet
40 50 m 1,0,-1
 60 50 l 1,1,-1
 60 0 l 1,2,-1
 50 0 l 1,3,-1
 50 40 l 1,4,-1
 40 40 l 1,5,-1
 40 50 l 1,6,-1
 40 50 l 1,0,-1
10 30 m 1,7,-1
 40 30 l 1,8,-1
 40 20 l 1,9,-1
 10 20 l 1,10,-1
 10 30 l 1,7,-1
EndSplineSet
EndChar

StartChar: uniE0B4
Encoding: 57524 57524 327
Width: 60
VWidth: 73
GlyphClass: 1
Flags: W
LayerCount: 2
Fore
SplineSet
10 50 m 1,0,-1
 60 50 l 1,1,-1
 60 40 l 1,2,-1
 20 40 l 1,3,-1
 20 30 l 1,4,-1
 50 30 l 1,5,-1
 50 20 l 1,6,-1
 20 20 l 1,7,-1
 20 0 l 1,8,-1
 10 0 l 1,9,-1
 10 50 l 1,10,-1
 10 50 l 1,0,-1
EndSplineSet
EndChar

StartChar: uniE0B5
Encoding: 57525 57525 328
Width: 60
VWidth: 73
GlyphClass: 1
Flags: W
LayerCount: 2
Fore
SplineSet
10 50 m 1,0,-1
 20 50 l 1,1,-1
 20 40 l 1,2,-1
 30 40 l 1,3,-1
 30 30 l 1,4,-1
 20 30 l 1,5,-1
 20 0 l 1,6,-1
 10 0 l 1,7,-1
 10 50 l 1,0,-1
50 50 m 1,8,-1
 60 50 l 1,9,-1
 60 0 l 1,10,-1
 50 0 l 1,11,-1
 50 10 l 1,12,-1
 40 10 l 1,13,-1
 40 20 l 1,14,-1
 30 20 l 1,15,-1
 30 30 l 1,16,-1
 40 30 l 1,17,-1
 40 20 l 1,18,-1
 50 20 l 1,19,-1
 50 50 l 1,20,-1
 50 50 l 1,8,-1
EndSplineSet
EndChar

StartChar: uniE0B6
Encoding: 57526 57526 329
Width: 60
VWidth: 73
GlyphClass: 1
Flags: W
LayerCount: 2
Fore
SplineSet
10 50 m 1,0,-1
 50 50 l 1,1,-1
 50 40 l 1,2,-1
 20 40 l 1,3,-1
 20 20 l 1,4,-1
 50 20 l 1,5,-1
 50 40 l 1,6,-1
 60 40 l 1,7,-1
 60 20 l 1,8,-1
 50 20 l 1,9,-1
 50 10 l 1,10,-1
 20 10 l 1,11,-1
 20 0 l 1,12,-1
 10 0 l 1,13,-1
 10 50 l 1,14,-1
 10 50 l 1,0,-1
EndSplineSet
EndChar

StartChar: uniE0B7
Encoding: 57527 57527 330
Width: 60
VWidth: 73
GlyphClass: 1
Flags: W
LayerCount: 2
Fore
SplineSet
20 50 m 1,0,-1
 30 50 l 1,1,-1
 30 20 l 1,2,-1
 20 20 l 1,3,-1
 20 50 l 1,4,-1
 20 50 l 1,0,-1
40 50 m 1,5,-1
 50 50 l 1,6,-1
 50 20 l 1,7,-1
 40 20 l 1,8,-1
 40 50 l 1,9,-1
 40 50 l 1,5,-1
10 20 m 1,10,-1
 20 20 l 1,11,-1
 20 0 l 1,12,-1
 10 0 l 1,13,-1
 10 20 l 1,10,-1
30 20 m 1,14,-1
 40 20 l 1,15,-1
 40 10 l 1,16,-1
 30 10 l 1,17,-1
 30 20 l 1,18,-1
 30 20 l 1,14,-1
50 20 m 1,19,-1
 60 20 l 1,20,-1
 60 10 l 1,21,-1
 50 10 l 1,22,-1
 50 20 l 1,23,-1
 50 20 l 1,19,-1
EndSplineSet
EndChar

StartChar: uniE0B8
Encoding: 57528 57528 331
Width: 60
VWidth: 73
GlyphClass: 1
Flags: W
LayerCount: 2
Fore
SplineSet
30 70 m 1,0,-1
 40 70 l 1,1,-1
 40 60 l 1,2,-1
 50 60 l 1,3,-1
 50 50 l 1,4,-1
 60 50 l 1,5,-1
 60 0 l 1,6,-1
 40 0 l 1,7,-1
 40 20 l 1,8,-1
 20 20 l 1,9,-1
 20 0 l 1,10,-1
 10 0 l 1,11,-1
 10 50 l 1,12,-1
 20 50 l 1,13,-1
 20 60 l 1,14,-1
 30 60 l 1,15,-1
 30 70 l 1,16,-1
 30 70 l 1,0,-1
30 50 m 1,17,-1
 20 50 l 1,18,-1
 20 30 l 1,19,-1
 40 30 l 1,20,-1
 40 50 l 1,21,-1
 30 50 l 1,22,-1
 30 50 l 1,17,-1
EndSplineSet
EndChar

StartChar: uniE0B9
Encoding: 57529 57529 332
Width: 60
VWidth: 73
GlyphClass: 1
Flags: W
LayerCount: 2
Fore
SplineSet
10 70 m 1,0,-1
 50 70 l 1,1,-1
 50 60 l 1,2,-1
 30 60 l 1,3,-1
 30 40 l 1,4,-1
 50 40 l 1,5,-1
 50 60 l 1,6,-1
 60 60 l 1,7,-1
 60 40 l 1,8,-1
 50 40 l 1,9,-1
 50 30 l 1,10,-1
 30 30 l 1,11,-1
 30 10 l 1,12,-1
 50 10 l 1,13,-1
 50 30 l 1,14,-1
 60 30 l 1,15,-1
 60 10 l 1,16,-1
 50 10 l 1,17,-1
 50 0 l 1,18,-1
 10 0 l 1,19,-1
 10 70 l 1,20,-1
 10 70 l 1,0,-1
EndSplineSet
EndChar

StartChar: uniE0BA
Encoding: 57530 57530 333
Width: 60
VWidth: 73
GlyphClass: 1
Flags: W
LayerCount: 2
Fore
SplineSet
20 70 m 1,0,-1
 50 70 l 1,1,-1
 50 60 l 1,2,-1
 30 60 l 1,3,-1
 30 10 l 1,4,-1
 50 10 l 1,5,-1
 50 20 l 1,6,-1
 60 20 l 1,7,-1
 60 10 l 1,8,-1
 50 10 l 1,9,-1
 50 0 l 1,10,-1
 20 0 l 1,11,-1
 20 10 l 1,12,-1
 10 10 l 1,13,-1
 10 60 l 1,14,-1
 20 60 l 1,15,-1
 20 70 l 1,16,-1
 20 70 l 1,0,-1
50 60 m 1,17,-1
 60 60 l 1,18,-1
 60 50 l 1,19,-1
 50 50 l 1,20,-1
 50 60 l 1,21,-1
 50 60 l 1,17,-1
EndSplineSet
EndChar

StartChar: uniE0BB
Encoding: 57531 57531 334
Width: 60
VWidth: 73
GlyphClass: 1
Flags: W
LayerCount: 2
Fore
SplineSet
10 70 m 1,0,-1
 40 70 l 1,1,-1
 40 60 l 1,2,-1
 30 60 l 1,3,-1
 30 10 l 1,4,-1
 40 10 l 1,5,-1
 40 20 l 1,6,-1
 50 20 l 1,7,-1
 50 50 l 1,8,-1
 40 50 l 1,9,-1
 40 60 l 1,10,-1
 50 60 l 1,11,-1
 50 50 l 1,12,-1
 60 50 l 1,13,-1
 60 20 l 1,14,-1
 50 20 l 1,15,-1
 50 10 l 1,16,-1
 40 10 l 1,17,-1
 40 0 l 1,18,-1
 10 0 l 1,19,-1
 10 70 l 1,20,-1
 10 70 l 1,0,-1
EndSplineSet
EndChar

StartChar: uniE0BC
Encoding: 57532 57532 335
Width: 60
VWidth: 73
GlyphClass: 1
Flags: W
LayerCount: 2
Fore
SplineSet
10 70 m 1,0,-1
 60 70 l 1,1,-1
 60 60 l 1,2,-1
 30 60 l 1,3,-1
 30 40 l 1,4,-1
 50 40 l 1,5,-1
 50 30 l 1,6,-1
 30 30 l 1,7,-1
 30 10 l 1,8,-1
 60 10 l 1,9,-1
 60 0 l 1,10,-1
 10 0 l 1,11,-1
 10 70 l 1,12,-1
 10 70 l 1,0,-1
EndSplineSet
EndChar

StartChar: uniE0BD
Encoding: 57533 57533 336
Width: 60
VWidth: 73
GlyphClass: 1
Flags: W
LayerCount: 2
Fore
SplineSet
10 70 m 1,0,-1
 60 70 l 1,1,-1
 60 60 l 1,2,-1
 30 60 l 1,3,-1
 30 40 l 1,4,-1
 50 40 l 1,5,-1
 50 30 l 1,6,-1
 30 30 l 1,7,-1
 30 0 l 1,8,-1
 10 0 l 1,9,-1
 10 70 l 1,10,-1
 10 70 l 1,0,-1
EndSplineSet
EndChar

StartChar: uniE0BE
Encoding: 57534 57534 337
Width: 60
VWidth: 73
GlyphClass: 1
Flags: W
LayerCount: 2
Fore
SplineSet
10 70 m 1,0,-1
 50 70 l 1,1,-1
 50 60 l 1,2,-1
 30 60 l 1,3,-1
 30 40 l 1,4,-1
 50 40 l 1,5,-1
 50 60 l 1,6,-1
 60 60 l 1,7,-1
 60 40 l 1,8,-1
 50 40 l 1,9,-1
 50 30 l 1,10,-1
 30 30 l 1,11,-1
 30 0 l 1,12,-1
 10 0 l 1,13,-1
 10 70 l 1,14,-1
 10 70 l 1,0,-1
EndSplineSet
EndChar

StartChar: uniE0BF
Encoding: 57535 57535 338
Width: 60
VWidth: 73
GlyphClass: 1
Flags: W
LayerCount: 2
Fore
SplineSet
20 70 m 1,0,-1
 30 70 l 1,1,-1
 30 60 l 1,2,-1
 40 60 l 1,3,-1
 40 50 l 1,4,-1
 30 50 l 1,5,-1
 30 20 l 1,6,-1
 40 20 l 1,7,-1
 40 30 l 1,8,-1
 50 30 l 1,9,-1
 50 40 l 1,10,-1
 40 40 l 1,11,-1
 40 50 l 1,12,-1
 50 50 l 1,13,-1
 50 40 l 1,14,-1
 60 40 l 1,15,-1
 60 30 l 1,16,-1
 50 30 l 1,17,-1
 50 20 l 1,18,-1
 40 20 l 1,19,-1
 40 10 l 1,20,-1
 30 10 l 1,21,-1
 30 0 l 1,22,-1
 20 0 l 1,23,-1
 20 70 l 1,24,-1
 20 70 l 1,0,-1
EndSplineSet
EndChar

StartChar: uniE0C0
Encoding: 57536 57536 339
Width: 60
VWidth: 73
GlyphClass: 1
Flags: W
LayerCount: 2
Fore
SplineSet
10 70 m 1,0,-1
 60 70 l 1,1,-1
 60 50 l 1,2,-1
 50 50 l 1,3,-1
 50 60 l 1,4,-1
 20 60 l 1,5,-1
 20 50 l 1,6,-1
 10 50 l 1,7,-1
 10 70 l 1,8,-1
 10 70 l 1,0,-1
20 50 m 1,9,-1
 30 50 l 1,10,-1
 30 40 l 1,11,-1
 20 40 l 1,12,-1
 20 50 l 1,9,-1
30 40 m 1,13,-1
 40 40 l 1,14,-1
 40 30 l 1,15,-1
 30 30 l 1,16,-1
 30 40 l 1,13,-1
20 30 m 1,17,-1
 30 30 l 1,18,-1
 30 20 l 1,19,-1
 20 20 l 1,20,-1
 20 30 l 1,17,-1
10 20 m 1,21,-1
 20 20 l 1,22,-1
 20 10 l 1,23,-1
 50 10 l 1,24,-1
 50 20 l 1,25,-1
 60 20 l 1,26,-1
 60 0 l 1,27,-1
 10 0 l 1,28,-1
 10 20 l 1,29,-1
 10 20 l 1,21,-1
EndSplineSet
EndChar

StartChar: uniE0C1
Encoding: 57537 57537 340
Width: 60
VWidth: 73
GlyphClass: 1
Flags: W
LayerCount: 2
Fore
SplineSet
20 50 m 1,0,-1
 40 50 l 1,1,-1
 40 40 l 1,2,-1
 20 40 l 1,3,-1
 20 50 l 1,0,-1
50 50 m 1,4,-1
 60 50 l 1,5,-1
 60 40 l 1,6,-1
 50 40 l 1,7,-1
 50 50 l 1,8,-1
 50 50 l 1,4,-1
10 40 m 1,9,-1
 20 40 l 1,10,-1
 20 10 l 1,11,-1
 10 10 l 1,12,-1
 10 40 l 1,9,-1
40 40 m 1,13,-1
 50 40 l 1,14,-1
 50 10 l 1,15,-1
 40 10 l 1,16,-1
 40 40 l 1,13,-1
20 10 m 1,17,-1
 40 10 l 1,18,-1
 40 0 l 1,19,-1
 20 0 l 1,20,-1
 20 10 l 1,21,-1
 20 10 l 1,17,-1
50 10 m 1,22,-1
 60 10 l 1,23,-1
 60 0 l 1,24,-1
 50 0 l 1,25,-1
 50 10 l 1,26,-1
 50 10 l 1,22,-1
EndSplineSet
EndChar

StartChar: uniE0C2
Encoding: 57538 57538 341
Width: 60
VWidth: 73
GlyphClass: 1
Flags: W
LayerCount: 2
Fore
SplineSet
10 50 m 1,0,-1
 30 50 l 1,1,-1
 30 40 l 1,2,-1
 10 40 l 1,3,-1
 10 50 l 1,0,-1
50 50 m 1,4,-1
 60 50 l 1,5,-1
 60 40 l 1,6,-1
 50 40 l 1,7,-1
 50 50 l 1,8,-1
 50 50 l 1,4,-1
30 40 m 1,9,-1
 50 40 l 1,10,-1
 50 30 l 1,11,-1
 40 30 l 1,12,-1
 40 20 l 1,13,-1
 30 20 l 1,14,-1
 30 40 l 1,15,-1
 30 40 l 1,9,-1
20 20 m 1,16,-1
 30 20 l 1,17,-1
 30 0 l 1,18,-1
 20 0 l 1,19,-1
 20 20 l 1,16,-1
EndSplineSet
EndChar

StartChar: uniE0C3
Encoding: 57539 57539 342
Width: 60
VWidth: 73
GlyphClass: 1
Flags: W
LayerCount: 2
Fore
SplineSet
30 50 m 1,0,-1
 60 50 l 1,1,-1
 60 40 l 1,2,-1
 30 40 l 1,3,-1
 30 50 l 1,0,-1
20 40 m 1,4,-1
 30 40 l 1,5,-1
 30 30 l 1,6,-1
 50 30 l 1,7,-1
 50 20 l 1,8,-1
 20 20 l 1,9,-1
 20 40 l 1,10,-1
 20 40 l 1,4,-1
10 20 m 1,11,-1
 20 20 l 1,12,-1
 20 10 l 1,13,-1
 10 10 l 1,14,-1
 10 20 l 1,15,-1
 10 20 l 1,11,-1
20 10 m 1,16,-1
 50 10 l 1,17,-1
 50 0 l 1,18,-1
 20 0 l 1,19,-1
 20 10 l 1,20,-1
 20 10 l 1,16,-1
EndSplineSet
EndChar

StartChar: uniE0C4
Encoding: 57540 57540 343
Width: 60
VWidth: 73
GlyphClass: 1
Flags: W
LayerCount: 2
Fore
SplineSet
30 70 m 1,0,-1
 50 70 l 1,1,-1
 50 60 l 1,2,-1
 30 60 l 1,3,-1
 30 70 l 1,4,-1
 30 70 l 1,0,-1
20 60 m 1,5,-1
 30 60 l 1,6,-1
 30 50 l 1,7,-1
 20 50 l 1,8,-1
 20 60 l 1,5,-1
50 60 m 1,9,-1
 60 60 l 1,10,-1
 60 20 l 1,11,-1
 50 20 l 1,12,-1
 50 30 l 1,13,-1
 20 30 l 1,14,-1
 20 10 l 1,15,-1
 10 10 l 1,16,-1
 10 50 l 1,17,-1
 20 50 l 1,18,-1
 20 40 l 1,19,-1
 50 40 l 1,20,-1
 50 60 l 1,21,-1
 50 60 l 1,9,-1
40 20 m 1,22,-1
 50 20 l 1,23,-1
 50 10 l 1,24,-1
 40 10 l 1,25,-1
 40 20 l 1,26,-1
 40 20 l 1,22,-1
20 10 m 1,27,-1
 40 10 l 1,28,-1
 40 0 l 1,29,-1
 20 0 l 1,30,-1
 20 10 l 1,31,-1
 20 10 l 1,27,-1
EndSplineSet
EndChar

StartChar: uniE0C5
Encoding: 57541 57541 344
Width: 60
VWidth: 73
GlyphClass: 1
Flags: W
LayerCount: 2
Fore
SplineSet
20 60 m 1,0,-1
 30 60 l 1,1,-1
 30 50 l 1,2,-1
 20 50 l 1,3,-1
 20 60 l 1,0,-1
30 50 m 1,4,-1
 40 50 l 1,5,-1
 40 30 l 1,6,-1
 30 30 l 1,7,-1
 30 50 l 1,4,-1
20 30 m 1,8,-1
 30 30 l 1,9,-1
 30 10 l 1,10,-1
 20 10 l 1,11,-1
 20 30 l 1,8,-1
40 30 m 1,12,-1
 50 30 l 1,13,-1
 50 10 l 1,14,-1
 40 10 l 1,15,-1
 40 30 l 1,12,-1
10 10 m 1,16,-1
 20 10 l 1,17,-1
 20 0 l 1,18,-1
 10 0 l 1,19,-1
 10 10 l 1,20,-1
 10 10 l 1,16,-1
50 10 m 1,21,-1
 60 10 l 1,22,-1
 60 0 l 1,23,-1
 50 0 l 1,24,-1
 50 10 l 1,25,-1
 50 10 l 1,21,-1
EndSplineSet
EndChar

StartChar: uniE0C6
Encoding: 57542 57542 345
Width: 60
VWidth: 73
GlyphClass: 1
Flags: W
LayerCount: 2
Fore
SplineSet
20 50 m 1,0,-1
 30 50 l 1,1,-1
 30 20 l 1,2,-1
 20 20 l 1,3,-1
 20 50 l 1,4,-1
 20 50 l 1,0,-1
40 50 m 1,5,-1
 50 50 l 1,6,-1
 50 20 l 1,7,-1
 40 20 l 1,8,-1
 40 50 l 1,9,-1
 40 50 l 1,5,-1
10 20 m 1,10,-1
 20 20 l 1,11,-1
 20 0 l 1,12,-1
 10 0 l 1,13,-1
 10 20 l 1,10,-1
30 20 m 1,14,-1
 40 20 l 1,15,-1
 40 10 l 1,16,-1
 30 10 l 1,17,-1
 30 20 l 1,18,-1
 30 20 l 1,14,-1
50 20 m 1,19,-1
 60 20 l 1,20,-1
 60 10 l 1,21,-1
 50 10 l 1,22,-1
 50 20 l 1,23,-1
 50 20 l 1,19,-1
EndSplineSet
EndChar

StartChar: uniE0C7
Encoding: 57543 57543 346
Width: 60
VWidth: 73
GlyphClass: 1
Flags: W
LayerCount: 2
Fore
SplineSet
10 50 m 1,0,-1
 60 50 l 1,1,-1
 60 40 l 1,2,-1
 50 40 l 1,3,-1
 50 20 l 1,4,-1
 60 20 l 1,5,-1
 60 10 l 1,6,-1
 50 10 l 1,7,-1
 50 0 l 1,8,-1
 40 0 l 1,9,-1
 40 40 l 1,10,-1
 30 40 l 1,11,-1
 30 10 l 1,12,-1
 20 10 l 1,13,-1
 20 40 l 1,14,-1
 10 40 l 1,15,-1
 10 50 l 1,16,-1
 10 50 l 1,0,-1
10 10 m 1,17,-1
 20 10 l 1,18,-1
 20 0 l 1,19,-1
 10 0 l 1,20,-1
 10 10 l 1,21,-1
 10 10 l 1,17,-1
EndSplineSet
EndChar

StartChar: uniE0C8
Encoding: 57544 57544 347
Width: 60
VWidth: 73
GlyphClass: 1
Flags: W
LayerCount: 2
Fore
SplineSet
40 60 m 1,0,-1
 60 60 l 1,1,-1
 60 50 l 1,2,-1
 40 50 l 1,3,-1
 40 60 l 1,0,-1
20 50 m 1,4,-1
 40 50 l 1,5,-1
 40 40 l 1,6,-1
 20 40 l 1,7,-1
 20 50 l 1,4,-1
10 40 m 1,8,-1
 20 40 l 1,9,-1
 20 10 l 1,10,-1
 10 10 l 1,11,-1
 10 40 l 1,8,-1
40 40 m 1,12,-1
 50 40 l 1,13,-1
 50 10 l 1,14,-1
 40 10 l 1,15,-1
 40 40 l 1,12,-1
20 10 m 1,16,-1
 40 10 l 1,17,-1
 40 0 l 1,18,-1
 20 0 l 1,19,-1
 20 10 l 1,20,-1
 20 10 l 1,16,-1
EndSplineSet
EndChar

StartChar: uniE0C9
Encoding: 57545 57545 348
Width: 60
VWidth: 73
GlyphClass: 1
Flags: W
LayerCount: 2
Fore
SplineSet
40 70 m 1,0,-1
 50 70 l 1,1,-1
 50 50 l 1,2,-1
 40 50 l 1,3,-1
 40 20 l 1,4,-1
 50 20 l 1,5,-1
 50 50 l 1,6,-1
 60 50 l 1,7,-1
 60 20 l 1,8,-1
 50 20 l 1,9,-1
 50 10 l 1,10,-1
 30 10 l 1,11,-1
 30 0 l 1,12,-1
 20 0 l 1,13,-1
 20 20 l 1,14,-1
 10 20 l 1,15,-1
 10 50 l 1,16,-1
 20 50 l 1,17,-1
 20 60 l 1,18,-1
 40 60 l 1,19,-1
 40 70 l 1,20,-1
 40 70 l 1,0,-1
30 50 m 1,21,-1
 20 50 l 1,22,-1
 20 20 l 1,23,-1
 30 20 l 1,24,-1
 30 50 l 1,25,-1
 30 50 l 1,21,-1
EndSplineSet
EndChar

StartChar: uniE0CA
Encoding: 57546 57546 349
Width: 60
VWidth: 73
GlyphClass: 1
Flags: W
LayerCount: 2
Fore
SplineSet
30 70 m 1,0,-1
 40 70 l 1,1,-1
 40 60 l 1,2,-1
 30 60 l 1,3,-1
 30 70 l 1,0,-1
20 60 m 1,4,-1
 30 60 l 1,5,-1
 30 20 l 1,6,-1
 20 20 l 1,7,-1
 20 60 l 1,4,-1
40 60 m 1,8,-1
 50 60 l 1,9,-1
 50 20 l 1,10,-1
 40 20 l 1,11,-1
 40 60 l 1,8,-1
30 20 m 1,12,-1
 40 20 l 1,13,-1
 40 10 l 1,14,-1
 30 10 l 1,15,-1
 30 20 l 1,16,-1
 30 20 l 1,12,-1
10 10 m 1,17,-1
 30 10 l 1,18,-1
 30 0 l 1,19,-1
 10 0 l 1,20,-1
 10 10 l 1,21,-1
 10 10 l 1,17,-1
40 10 m 1,22,-1
 60 10 l 1,23,-1
 60 0 l 1,24,-1
 40 0 l 1,25,-1
 40 10 l 1,26,-1
 40 10 l 1,22,-1
EndSplineSet
EndChar

StartChar: uniE0CB
Encoding: 57547 57547 350
Width: 60
VWidth: 73
GlyphClass: 1
Flags: W
LayerCount: 2
Fore
SplineSet
20 70 m 1,0,-1
 30 70 l 1,1,-1
 30 60 l 1,2,-1
 40 60 l 1,3,-1
 40 70 l 1,4,-1
 50 70 l 1,5,-1
 50 60 l 1,6,-1
 40 60 l 1,7,-1
 40 50 l 1,8,-1
 30 50 l 1,9,-1
 30 40 l 1,10,-1
 50 40 l 1,11,-1
 50 30 l 1,12,-1
 30 30 l 1,13,-1
 30 0 l 1,14,-1
 20 0 l 1,15,-1
 20 40 l 1,16,-1
 10 40 l 1,17,-1
 10 50 l 1,18,-1
 20 50 l 1,19,-1
 20 70 l 1,20,-1
 20 70 l 1,0,-1
50 30 m 1,21,-1
 60 30 l 1,22,-1
 60 0 l 1,23,-1
 50 0 l 1,24,-1
 50 30 l 1,25,-1
 50 30 l 1,21,-1
EndSplineSet
EndChar

StartChar: uniE0CC
Encoding: 57548 57548 351
Width: 60
VWidth: 73
GlyphClass: 1
Flags: W
LayerCount: 2
Fore
SplineSet
10 70 m 1,0,-1
 60 70 l 1,1,-1
 60 0 l 1,2,-1
 10 0 l 1,3,-1
 10 70 l 1,4,-1
 10 70 l 1,0,-1
EndSplineSet
EndChar

StartChar: uniE0CD
Encoding: 57549 57549 352
Width: 60
VWidth: 73
GlyphClass: 1
Flags: W
LayerCount: 2
Fore
SplineSet
10 70 m 1,0,-1
 60 70 l 1,1,-1
 60 0 l 1,2,-1
 10 0 l 1,3,-1
 10 70 l 1,4,-1
 10 70 l 1,0,-1
30 60 m 1,5,-1
 20 60 l 1,6,-1
 20 10 l 1,7,-1
 50 10 l 1,8,-1
 50 60 l 1,9,-1
 30 60 l 1,10,-1
 30 60 l 1,5,-1
EndSplineSet
EndChar

StartChar: uniE0CE
Encoding: 57550 57550 353
Width: 60
VWidth: 73
GlyphClass: 1
Flags: W
LayerCount: 2
Fore
SplineSet
20 50 m 1,0,-1
 40 50 l 1,1,-1
 40 40 l 1,2,-1
 20 40 l 1,3,-1
 20 50 l 1,0,-1
10 40 m 1,4,-1
 20 40 l 1,5,-1
 20 30 l 1,6,-1
 10 30 l 1,7,-1
 10 40 l 1,4,-1
40 40 m 1,8,-1
 50 40 l 1,9,-1
 50 30 l 1,10,-1
 40 30 l 1,11,-1
 40 40 l 1,8,-1
30 30 m 1,12,-1
 40 30 l 1,13,-1
 40 20 l 1,14,-1
 30 20 l 1,15,-1
 30 30 l 1,12,-1
10 20 m 1,16,-1
 20 20 l 1,17,-1
 20 10 l 1,18,-1
 10 10 l 1,19,-1
 10 20 l 1,20,-1
 10 20 l 1,16,-1
40 20 m 1,21,-1
 50 20 l 1,22,-1
 50 10 l 1,23,-1
 40 10 l 1,24,-1
 40 20 l 1,25,-1
 40 20 l 1,21,-1
20 10 m 1,26,-1
 40 10 l 1,27,-1
 40 0 l 1,28,-1
 20 0 l 1,29,-1
 20 10 l 1,30,-1
 20 10 l 1,26,-1
EndSplineSet
EndChar

StartChar: uniE0CF
Encoding: 57551 57551 354
Width: 60
VWidth: 73
GlyphClass: 1
Flags: W
LayerCount: 2
Fore
SplineSet
10 30 m 1,0,-1
 60 30 l 1,1,-1
 60 0 l 1,2,-1
 10 0 l 1,3,-1
 10 30 l 1,4,-1
 10 30 l 1,0,-1
EndSplineSet
EndChar

StartChar: uniE0D0
Encoding: 57552 57552 355
Width: 60
VWidth: 73
GlyphClass: 1
Flags: W
LayerCount: 2
Fore
SplineSet
40 70 m 1,0,-1
 60 70 l 1,1,-1
 60 60 l 1,2,-1
 40 60 l 1,3,-1
 40 70 l 1,0,-1
30 60 m 1,4,-1
 40 60 l 1,5,-1
 40 50 l 1,6,-1
 50 50 l 1,7,-1
 50 40 l 1,8,-1
 40 40 l 1,9,-1
 40 10 l 1,10,-1
 50 10 l 1,11,-1
 50 0 l 1,12,-1
 20 0 l 1,13,-1
 20 10 l 1,14,-1
 30 10 l 1,15,-1
 30 40 l 1,16,-1
 20 40 l 1,17,-1
 20 50 l 1,18,-1
 30 50 l 1,19,-1
 30 60 l 1,20,-1
 30 60 l 1,4,-1
EndSplineSet
EndChar

StartChar: uniE0D1
Encoding: 57553 57553 356
Width: 60
VWidth: 73
GlyphClass: 1
Flags: W
LayerCount: 2
Fore
SplineSet
10 50 m 1,0,-1
 50 50 l 1,1,-1
 50 40 l 1,2,-1
 30 40 l 1,3,-1
 30 30 l 1,4,-1
 50 30 l 1,5,-1
 50 40 l 1,6,-1
 60 40 l 1,7,-1
 60 30 l 1,8,-1
 50 30 l 1,9,-1
 50 20 l 1,10,-1
 30 20 l 1,11,-1
 30 10 l 1,12,-1
 40 10 l 1,13,-1
 40 0 l 1,14,-1
 10 0 l 1,15,-1
 10 10 l 1,16,-1
 20 10 l 1,17,-1
 20 40 l 1,18,-1
 10 40 l 1,19,-1
 10 50 l 1,20,-1
 10 50 l 1,0,-1
EndSplineSet
EndChar

StartChar: uniE0D2
Encoding: 57554 57554 357
Width: 60
VWidth: 73
GlyphClass: 1
Flags: W
LayerCount: 2
Fore
SplineSet
10 50 m 1,0,-1
 20 50 l 1,1,-1
 20 40 l 1,2,-1
 10 40 l 1,3,-1
 10 50 l 1,0,-1
30 50 m 1,4,-1
 50 50 l 1,5,-1
 50 40 l 1,6,-1
 30 40 l 1,7,-1
 30 50 l 1,8,-1
 30 50 l 1,4,-1
20 40 m 1,9,-1
 30 40 l 1,10,-1
 30 0 l 1,11,-1
 10 0 l 1,12,-1
 10 10 l 1,13,-1
 20 10 l 1,14,-1
 20 40 l 1,15,-1
 20 40 l 1,9,-1
50 40 m 1,16,-1
 60 40 l 1,17,-1
 60 0 l 1,18,-1
 40 0 l 1,19,-1
 40 10 l 1,20,-1
 50 10 l 1,21,-1
 50 40 l 1,22,-1
 50 40 l 1,16,-1
EndSplineSet
EndChar

StartChar: uniE0D3
Encoding: 57555 57555 358
Width: 60
VWidth: 73
GlyphClass: 1
Flags: W
LayerCount: 2
Fore
SplineSet
20 60 m 1,0,-1
 30 60 l 1,1,-1
 30 30 l 1,2,-1
 40 30 l 1,3,-1
 40 60 l 1,4,-1
 50 60 l 1,5,-1
 50 30 l 1,6,-1
 40 30 l 1,7,-1
 40 20 l 1,8,-1
 20 20 l 1,9,-1
 20 60 l 1,10,-1
 20 60 l 1,0,-1
50 30 m 1,11,-1
 60 30 l 1,12,-1
 60 10 l 1,13,-1
 50 10 l 1,14,-1
 50 30 l 1,15,-1
 50 30 l 1,11,-1
10 20 m 1,16,-1
 20 20 l 1,17,-1
 20 0 l 1,18,-1
 10 0 l 1,19,-1
 10 20 l 1,16,-1
EndSplineSet
EndChar

StartChar: uniE0D4
Encoding: 57556 57556 359
Width: 60
VWidth: 73
GlyphClass: 1
Flags: W
LayerCount: 2
Fore
SplineSet
10 50 m 1,0,-1
 50 50 l 1,1,-1
 50 40 l 1,2,-1
 40 40 l 1,3,-1
 40 0 l 1,4,-1
 30 0 l 1,5,-1
 30 40 l 1,6,-1
 20 40 l 1,7,-1
 20 0 l 1,8,-1
 10 0 l 1,9,-1
 10 50 l 1,10,-1
 10 50 l 1,0,-1
50 40 m 1,11,-1
 60 40 l 1,12,-1
 60 0 l 1,13,-1
 50 0 l 1,14,-1
 50 40 l 1,15,-1
 50 40 l 1,11,-1
EndSplineSet
EndChar

StartChar: uniE0D5
Encoding: 57557 57557 360
Width: 60
VWidth: 73
GlyphClass: 1
Flags: W
LayerCount: 2
Fore
SplineSet
10 70 m 1,0,-1
 30 70 l 1,1,-1
 30 30 l 1,2,-1
 40 30 l 1,3,-1
 40 50 l 1,4,-1
 60 50 l 1,5,-1
 60 40 l 1,6,-1
 50 40 l 1,7,-1
 50 30 l 1,8,-1
 40 30 l 1,9,-1
 40 20 l 1,10,-1
 30 20 l 1,11,-1
 30 0 l 1,12,-1
 10 0 l 1,13,-1
 10 10 l 1,14,-1
 20 10 l 1,15,-1
 20 60 l 1,16,-1
 10 60 l 1,17,-1
 10 70 l 1,18,-1
 10 70 l 1,0,-1
40 20 m 1,19,-1
 50 20 l 1,20,-1
 50 10 l 1,21,-1
 60 10 l 1,22,-1
 60 0 l 1,23,-1
 40 0 l 1,24,-1
 40 20 l 1,25,-1
 40 20 l 1,19,-1
EndSplineSet
EndChar

StartChar: uniE0D6
Encoding: 57558 57558 361
Width: 60
VWidth: 73
GlyphClass: 1
Flags: W
LayerCount: 2
Fore
SplineSet
10 70 m 1,0,-1
 20 70 l 1,1,-1
 20 60 l 1,2,-1
 30 60 l 1,3,-1
 30 40 l 1,4,-1
 20 40 l 1,5,-1
 20 10 l 1,6,-1
 30 10 l 1,7,-1
 30 0 l 1,8,-1
 10 0 l 1,9,-1
 10 70 l 1,10,-1
 10 70 l 1,0,-1
50 70 m 1,11,-1
 60 70 l 1,12,-1
 60 0 l 1,13,-1
 40 0 l 1,14,-1
 40 10 l 1,15,-1
 50 10 l 1,16,-1
 50 40 l 1,17,-1
 40 40 l 1,18,-1
 40 60 l 1,19,-1
 50 60 l 1,20,-1
 50 70 l 1,21,-1
 50 70 l 1,11,-1
30 40 m 1,22,-1
 40 40 l 1,23,-1
 40 20 l 1,24,-1
 30 20 l 1,25,-1
 30 40 l 1,26,-1
 30 40 l 1,22,-1
EndSplineSet
EndChar

StartChar: uniE0D7
Encoding: 57559 57559 362
Width: 60
VWidth: 73
GlyphClass: 1
Flags: W
LayerCount: 2
Fore
SplineSet
20 70 m 1,0,-1
 50 70 l 1,1,-1
 50 50 l 1,2,-1
 40 50 l 1,3,-1
 40 60 l 1,4,-1
 20 60 l 1,5,-1
 20 70 l 1,6,-1
 20 70 l 1,0,-1
10 60 m 1,7,-1
 20 60 l 1,8,-1
 20 10 l 1,9,-1
 10 10 l 1,10,-1
 10 60 l 1,11,-1
 10 60 l 1,7,-1
30 40 m 1,12,-1
 60 40 l 1,13,-1
 60 30 l 1,14,-1
 50 30 l 1,15,-1
 50 0 l 1,16,-1
 20 0 l 1,17,-1
 20 10 l 1,18,-1
 40 10 l 1,19,-1
 40 30 l 1,20,-1
 30 30 l 1,21,-1
 30 40 l 1,22,-1
 30 40 l 1,12,-1
EndSplineSet
EndChar

StartChar: uniE0D8
Encoding: 57560 57560 363
Width: 60
VWidth: 73
GlyphClass: 1
Flags: W
LayerCount: 2
Fore
SplineSet
10 70 m 1,0,-1
 60 70 l 1,1,-1
 60 50 l 1,2,-1
 50 50 l 1,3,-1
 50 60 l 1,4,-1
 40 60 l 1,5,-1
 40 10 l 1,6,-1
 50 10 l 1,7,-1
 50 0 l 1,8,-1
 20 0 l 1,9,-1
 20 10 l 1,10,-1
 30 10 l 1,11,-1
 30 60 l 1,12,-1
 20 60 l 1,13,-1
 20 50 l 1,14,-1
 10 50 l 1,15,-1
 10 70 l 1,16,-1
 10 70 l 1,0,-1
EndSplineSet
EndChar

StartChar: uniE0D9
Encoding: 57561 57561 364
Width: 60
VWidth: 73
GlyphClass: 1
Flags: W
LayerCount: 2
Fore
SplineSet
10 70 m 1,0,-1
 50 70 l 1,1,-1
 50 60 l 1,2,-1
 30 60 l 1,3,-1
 30 40 l 1,4,-1
 50 40 l 1,5,-1
 50 60 l 1,6,-1
 60 60 l 1,7,-1
 60 40 l 1,8,-1
 50 40 l 1,9,-1
 50 30 l 1,10,-1
 30 30 l 1,11,-1
 30 10 l 1,12,-1
 40 10 l 1,13,-1
 40 0 l 1,14,-1
 10 0 l 1,15,-1
 10 10 l 1,16,-1
 20 10 l 1,17,-1
 20 60 l 1,18,-1
 10 60 l 1,19,-1
 10 70 l 1,20,-1
 10 70 l 1,0,-1
EndSplineSet
EndChar

StartChar: uniE0DA
Encoding: 57562 57562 365
Width: 60
VWidth: 73
GlyphClass: 1
Flags: W
LayerCount: 2
Fore
SplineSet
10 70 m 1,0,-1
 60 70 l 1,1,-1
 60 50 l 1,2,-1
 50 50 l 1,3,-1
 50 60 l 1,4,-1
 30 60 l 1,5,-1
 30 40 l 1,6,-1
 50 40 l 1,7,-1
 50 30 l 1,8,-1
 30 30 l 1,9,-1
 30 10 l 1,10,-1
 50 10 l 1,11,-1
 50 20 l 1,12,-1
 60 20 l 1,13,-1
 60 0 l 1,14,-1
 10 0 l 1,15,-1
 10 10 l 1,16,-1
 20 10 l 1,17,-1
 20 60 l 1,18,-1
 10 60 l 1,19,-1
 10 70 l 1,20,-1
 10 70 l 1,0,-1
EndSplineSet
EndChar

StartChar: uniE0DB
Encoding: 57563 57563 366
Width: 60
VWidth: 73
GlyphClass: 1
Flags: W
LayerCount: 2
Fore
SplineSet
30 70 m 1,0,-1
 60 70 l 1,1,-1
 60 60 l 1,2,-1
 40 60 l 1,3,-1
 40 50 l 1,4,-1
 30 50 l 1,5,-1
 30 70 l 1,6,-1
 30 70 l 1,0,-1
20 50 m 1,7,-1
 30 50 l 1,8,-1
 30 40 l 1,9,-1
 50 40 l 1,10,-1
 50 30 l 1,11,-1
 30 30 l 1,12,-1
 30 20 l 1,13,-1
 20 20 l 1,14,-1
 20 50 l 1,15,-1
 20 50 l 1,7,-1
10 20 m 1,16,-1
 20 20 l 1,17,-1
 20 0 l 1,18,-1
 10 0 l 1,19,-1
 10 20 l 1,16,-1
EndSplineSet
EndChar

StartChar: uniE0DC
Encoding: 57564 57564 367
Width: 60
VWidth: 73
GlyphClass: 1
Flags: W
LayerCount: 2
Fore
SplineSet
10 40 m 1,0,-1
 40 40 l 1,1,-1
 40 30 l 1,2,-1
 20 30 l 1,3,-1
 20 20 l 1,4,-1
 40 20 l 1,5,-1
 40 30 l 1,6,-1
 50 30 l 1,7,-1
 50 20 l 1,8,-1
 40 20 l 1,9,-1
 40 10 l 1,10,-1
 20 10 l 1,11,-1
 20 0 l 1,12,-1
 10 0 l 1,13,-1
 10 40 l 1,14,-1
 10 40 l 1,0,-1
EndSplineSet
EndChar

StartChar: uniE0DD
Encoding: 57565 57565 368
Width: 60
VWidth: 73
GlyphClass: 1
Flags: W
LayerCount: 2
Fore
SplineSet
20 40 m 1,0,-1
 40 40 l 1,1,-1
 40 30 l 1,2,-1
 50 30 l 1,3,-1
 50 20 l 1,4,-1
 20 20 l 1,5,-1
 20 10 l 1,6,-1
 10 10 l 1,7,-1
 10 30 l 1,8,-1
 20 30 l 1,9,-1
 20 40 l 1,10,-1
 20 40 l 1,0,-1
20 10 m 1,11,-1
 40 10 l 1,12,-1
 40 0 l 1,13,-1
 20 0 l 1,14,-1
 20 10 l 1,15,-1
 20 10 l 1,11,-1
EndSplineSet
EndChar

StartChar: uniE0DE
Encoding: 57566 57566 369
Width: 60
VWidth: 73
GlyphClass: 1
Flags: W
LayerCount: 2
Fore
SplineSet
20 50 m 1,0,-1
 50 50 l 1,1,-1
 50 40 l 1,2,-1
 40 40 l 1,3,-1
 40 10 l 1,4,-1
 30 10 l 1,5,-1
 30 40 l 1,6,-1
 20 40 l 1,7,-1
 20 50 l 1,8,-1
 20 50 l 1,0,-1
10 20 m 1,9,-1
 20 20 l 1,10,-1
 20 10 l 1,11,-1
 10 10 l 1,12,-1
 10 20 l 1,13,-1
 10 20 l 1,9,-1
20 10 m 1,14,-1
 30 10 l 1,15,-1
 30 0 l 1,16,-1
 20 0 l 1,17,-1
 20 10 l 1,18,-1
 20 10 l 1,14,-1
EndSplineSet
EndChar

StartChar: uniE0DF
Encoding: 57567 57567 370
Width: 60
VWidth: 73
GlyphClass: 1
Flags: W
LayerCount: 2
Fore
SplineSet
10 50 m 1,0,-1
 20 50 l 1,1,-1
 20 30 l 1,2,-1
 30 30 l 1,3,-1
 30 40 l 1,4,-1
 40 40 l 1,5,-1
 40 50 l 1,6,-1
 50 50 l 1,7,-1
 50 40 l 1,8,-1
 40 40 l 1,9,-1
 40 30 l 1,10,-1
 30 30 l 1,11,-1
 30 20 l 1,12,-1
 20 20 l 1,13,-1
 20 0 l 1,14,-1
 10 0 l 1,15,-1
 10 50 l 1,16,-1
 10 50 l 1,0,-1
30 20 m 1,17,-1
 40 20 l 1,18,-1
 40 10 l 1,19,-1
 30 10 l 1,20,-1
 30 20 l 1,21,-1
 30 20 l 1,17,-1
40 10 m 1,22,-1
 50 10 l 1,23,-1
 50 0 l 1,24,-1
 40 0 l 1,25,-1
 40 10 l 1,26,-1
 40 10 l 1,22,-1
EndSplineSet
EndChar

StartChar: uniE0E0
Encoding: 57568 57568 371
Width: 60
VWidth: 73
GlyphClass: 1
Flags: W
LayerCount: 2
Fore
SplineSet
10 40 m 1,0,-1
 60 40 l 1,1,-1
 60 30 l 1,2,-1
 40 30 l 1,3,-1
 40 20 l 1,4,-1
 30 20 l 1,5,-1
 30 30 l 1,6,-1
 10 30 l 1,7,-1
 10 40 l 1,8,-1
 10 40 l 1,0,-1
20 20 m 1,9,-1
 30 20 l 1,10,-1
 30 10 l 1,11,-1
 20 10 l 1,12,-1
 20 20 l 1,13,-1
 20 20 l 1,9,-1
30 10 m 1,14,-1
 50 10 l 1,15,-1
 50 0 l 1,16,-1
 30 0 l 1,17,-1
 30 10 l 1,18,-1
 30 10 l 1,14,-1
EndSplineSet
EndChar

StartChar: uniE0E1
Encoding: 57569 57569 372
Width: 60
VWidth: 73
GlyphClass: 1
Flags: W
LayerCount: 2
Fore
SplineSet
10 40 m 1,0,-1
 20 40 l 1,1,-1
 20 10 l 1,2,-1
 10 10 l 1,3,-1
 10 40 l 1,0,-1
40 40 m 1,4,-1
 50 40 l 1,5,-1
 50 0 l 1,6,-1
 40 0 l 1,7,-1
 40 10 l 1,8,-1
 30 10 l 1,9,-1
 30 20 l 1,10,-1
 40 20 l 1,11,-1
 40 40 l 1,12,-1
 40 40 l 1,4,-1
20 10 m 1,13,-1
 30 10 l 1,14,-1
 30 0 l 1,15,-1
 20 0 l 1,16,-1
 20 10 l 1,17,-1
 20 10 l 1,13,-1
EndSplineSet
EndChar

StartChar: uniE0E2
Encoding: 57570 57570 373
Width: 60
VWidth: 73
GlyphClass: 1
Flags: W
LayerCount: 2
Fore
SplineSet
20 50 m 1,0,-1
 40 50 l 1,1,-1
 40 40 l 1,2,-1
 20 40 l 1,3,-1
 20 50 l 1,0,-1
10 40 m 1,4,-1
 20 40 l 1,5,-1
 20 30 l 1,6,-1
 10 30 l 1,7,-1
 10 40 l 1,4,-1
40 40 m 1,8,-1
 50 40 l 1,9,-1
 50 10 l 1,10,-1
 40 10 l 1,11,-1
 40 20 l 1,12,-1
 20 20 l 1,13,-1
 20 30 l 1,14,-1
 40 30 l 1,15,-1
 40 40 l 1,16,-1
 40 40 l 1,8,-1
20 10 m 1,17,-1
 40 10 l 1,18,-1
 40 0 l 1,19,-1
 20 0 l 1,20,-1
 20 10 l 1,21,-1
 20 10 l 1,17,-1
EndSplineSet
EndChar

StartChar: uniE0E3
Encoding: 57571 57571 374
Width: 60
VWidth: 73
GlyphClass: 1
Flags: W
LayerCount: 2
Fore
SplineSet
30 70 m 1,0,-1
 40 70 l 1,1,-1
 40 60 l 1,2,-1
 30 60 l 1,3,-1
 30 70 l 1,0,-1
20 60 m 1,4,-1
 30 60 l 1,5,-1
 30 50 l 1,6,-1
 20 50 l 1,7,-1
 20 60 l 1,4,-1
40 60 m 1,8,-1
 50 60 l 1,9,-1
 50 50 l 1,10,-1
 40 50 l 1,11,-1
 40 60 l 1,8,-1
30 50 m 1,12,-1
 40 50 l 1,13,-1
 40 40 l 1,14,-1
 30 40 l 1,15,-1
 30 50 l 1,12,-1
20 40 m 1,16,-1
 30 40 l 1,17,-1
 30 30 l 1,18,-1
 20 30 l 1,19,-1
 20 40 l 1,16,-1
40 40 m 1,20,-1
 50 40 l 1,21,-1
 50 30 l 1,22,-1
 40 30 l 1,23,-1
 40 40 l 1,20,-1
10 30 m 1,24,-1
 20 30 l 1,25,-1
 20 20 l 1,26,-1
 50 20 l 1,27,-1
 50 30 l 1,28,-1
 60 30 l 1,29,-1
 60 0 l 1,30,-1
 50 0 l 1,31,-1
 50 10 l 1,32,-1
 20 10 l 1,33,-1
 20 0 l 1,34,-1
 10 0 l 1,35,-1
 10 30 l 1,36,-1
 10 30 l 1,24,-1
EndSplineSet
EndChar

StartChar: uniE0E4
Encoding: 57572 57572 375
Width: 60
VWidth: 73
GlyphClass: 1
Flags: W
LayerCount: 2
Fore
SplineSet
10 40 m 1,0,-1
 30 40 l 1,1,-1
 30 30 l 1,2,-1
 20 30 l 1,3,-1
 20 0 l 1,4,-1
 10 0 l 1,5,-1
 10 40 l 1,6,-1
 10 40 l 1,0,-1
40 40 m 1,7,-1
 50 40 l 1,8,-1
 50 30 l 1,9,-1
 40 30 l 1,10,-1
 40 40 l 1,7,-1
30 30 m 1,11,-1
 40 30 l 1,12,-1
 40 0 l 1,13,-1
 30 0 l 1,14,-1
 30 30 l 1,11,-1
50 30 m 1,15,-1
 60 30 l 1,16,-1
 60 0 l 1,17,-1
 50 0 l 1,18,-1
 50 30 l 1,19,-1
 50 30 l 1,15,-1
EndSplineSet
EndChar

StartChar: uniE0E5
Encoding: 57573 57573 376
Width: 60
VWidth: 73
GlyphClass: 1
Flags: W
LayerCount: 2
Fore
SplineSet
20 50 m 1,0,-1
 50 50 l 1,1,-1
 50 40 l 1,2,-1
 40 40 l 1,3,-1
 40 10 l 1,4,-1
 50 10 l 1,5,-1
 50 0 l 1,6,-1
 20 0 l 1,7,-1
 20 10 l 1,8,-1
 30 10 l 1,9,-1
 30 40 l 1,10,-1
 20 40 l 1,11,-1
 20 50 l 1,12,-1
 20 50 l 1,0,-1
EndSplineSet
EndChar

StartChar: uniE0E6
Encoding: 57574 57574 377
Width: 60
VWidth: 73
GlyphClass: 1
Flags: W
LayerCount: 2
Fore
SplineSet
30 50 m 1,0,-1
 40 50 l 1,1,-1
 40 20 l 1,2,-1
 50 20 l 1,3,-1
 50 10 l 1,4,-1
 40 10 l 1,5,-1
 40 0 l 1,6,-1
 30 0 l 1,7,-1
 30 10 l 1,8,-1
 10 10 l 1,9,-1
 10 30 l 1,10,-1
 20 30 l 1,11,-1
 20 40 l 1,12,-1
 30 40 l 1,13,-1
 30 50 l 1,14,-1
 30 50 l 1,0,-1
30 30 m 1,15,-1
 20 30 l 1,16,-1
 20 20 l 1,17,-1
 30 20 l 1,18,-1
 30 30 l 1,15,-1
EndSplineSet
EndChar

StartChar: uniE0E7
Encoding: 57575 57575 378
Width: 60
VWidth: 73
GlyphClass: 1
Flags: W
LayerCount: 2
Fore
SplineSet
0 0 m 1,0,-1
 0 0 l 1,1,-1
 0 0 l 1,2,-1
 0 0 l 1,0,-1
EndSplineSet
EndChar

StartChar: uniE0E8
Encoding: 57576 57576 379
Width: 60
VWidth: 73
GlyphClass: 1
Flags: W
LayerCount: 2
Fore
SplineSet
0 0 m 1,0,-1
 0 0 l 1,1,-1
 0 0 l 1,2,-1
 0 0 l 1,0,-1
EndSplineSet
EndChar

StartChar: uniE0E9
Encoding: 57577 57577 380
Width: 60
VWidth: 73
GlyphClass: 1
Flags: W
LayerCount: 2
Fore
SplineSet
10 50 m 1,0,-1
 20 50 l 1,1,-1
 20 20 l 1,2,-1
 60 20 l 1,3,-1
 60 10 l 1,4,-1
 10 10 l 1,5,-1
 10 50 l 1,6,-1
 10 50 l 1,0,-1
EndSplineSet
EndChar

StartChar: uniFF3F
Encoding: 65343 65343 381
Width: 60
VWidth: 73
GlyphClass: 1
Flags: W
LayerCount: 2
Fore
SplineSet
10 30 m 1,0,-1
 60 30 l 1,1,-1
 60 0 l 1,2,-1
 10 0 l 1,3,-1
 10 30 l 1,4,-1
 10 30 l 1,0,-1
EndSplineSet
EndChar

StartChar: u1D404
Encoding: 119812 119812 382
Width: 60
VWidth: 73
GlyphClass: 1
Flags: W
LayerCount: 2
Fore
SplineSet
10 70 m 1,0,-1
 60 70 l 1,1,-1
 60 50 l 1,2,-1
 50 50 l 1,3,-1
 50 60 l 1,4,-1
 30 60 l 1,5,-1
 30 40 l 1,6,-1
 50 40 l 1,7,-1
 50 30 l 1,8,-1
 30 30 l 1,9,-1
 30 10 l 1,10,-1
 50 10 l 1,11,-1
 50 20 l 1,12,-1
 60 20 l 1,13,-1
 60 0 l 1,14,-1
 10 0 l 1,15,-1
 10 10 l 1,16,-1
 20 10 l 1,17,-1
 20 60 l 1,18,-1
 10 60 l 1,19,-1
 10 70 l 1,20,-1
 10 70 l 1,0,-1
EndSplineSet
EndChar

StartChar: u1D406
Encoding: 119814 119814 383
Width: 60
VWidth: 73
GlyphClass: 1
Flags: W
LayerCount: 2
Fore
SplineSet
20 70 m 1,0,-1
 50 70 l 1,1,-1
 50 50 l 1,2,-1
 40 50 l 1,3,-1
 40 60 l 1,4,-1
 20 60 l 1,5,-1
 20 70 l 1,6,-1
 20 70 l 1,0,-1
10 60 m 1,7,-1
 20 60 l 1,8,-1
 20 10 l 1,9,-1
 10 10 l 1,10,-1
 10 60 l 1,11,-1
 10 60 l 1,7,-1
30 40 m 1,12,-1
 60 40 l 1,13,-1
 60 30 l 1,14,-1
 50 30 l 1,15,-1
 50 0 l 1,16,-1
 20 0 l 1,17,-1
 20 10 l 1,18,-1
 40 10 l 1,19,-1
 40 30 l 1,20,-1
 30 30 l 1,21,-1
 30 40 l 1,22,-1
 30 40 l 1,12,-1
EndSplineSet
EndChar

StartChar: u1D40C
Encoding: 119820 119820 384
Width: 60
VWidth: 73
GlyphClass: 1
Flags: W
LayerCount: 2
Fore
SplineSet
10 70 m 1,0,-1
 20 70 l 1,1,-1
 20 60 l 1,2,-1
 30 60 l 1,3,-1
 30 40 l 1,4,-1
 20 40 l 1,5,-1
 20 10 l 1,6,-1
 30 10 l 1,7,-1
 30 0 l 1,8,-1
 10 0 l 1,9,-1
 10 70 l 1,10,-1
 10 70 l 1,0,-1
50 70 m 1,11,-1
 60 70 l 1,12,-1
 60 0 l 1,13,-1
 40 0 l 1,14,-1
 40 10 l 1,15,-1
 50 10 l 1,16,-1
 50 40 l 1,17,-1
 40 40 l 1,18,-1
 40 60 l 1,19,-1
 50 60 l 1,20,-1
 50 70 l 1,21,-1
 50 70 l 1,11,-1
30 40 m 1,22,-1
 40 40 l 1,23,-1
 40 20 l 1,24,-1
 30 20 l 1,25,-1
 30 40 l 1,26,-1
 30 40 l 1,22,-1
EndSplineSet
EndChar

StartChar: u1D40F
Encoding: 119823 119823 385
Width: 60
VWidth: 73
GlyphClass: 1
Flags: W
LayerCount: 2
Fore
SplineSet
10 70 m 1,0,-1
 50 70 l 1,1,-1
 50 60 l 1,2,-1
 30 60 l 1,3,-1
 30 40 l 1,4,-1
 50 40 l 1,5,-1
 50 60 l 1,6,-1
 60 60 l 1,7,-1
 60 40 l 1,8,-1
 50 40 l 1,9,-1
 50 30 l 1,10,-1
 30 30 l 1,11,-1
 30 10 l 1,12,-1
 40 10 l 1,13,-1
 40 0 l 1,14,-1
 10 0 l 1,15,-1
 10 10 l 1,16,-1
 20 10 l 1,17,-1
 20 60 l 1,18,-1
 10 60 l 1,19,-1
 10 70 l 1,20,-1
 10 70 l 1,0,-1
EndSplineSet
EndChar

StartChar: u1D413
Encoding: 119827 119827 386
Width: 60
VWidth: 73
GlyphClass: 1
Flags: W
LayerCount: 2
Fore
SplineSet
10 70 m 1,0,-1
 60 70 l 1,1,-1
 60 50 l 1,2,-1
 50 50 l 1,3,-1
 50 60 l 1,4,-1
 40 60 l 1,5,-1
 40 10 l 1,6,-1
 50 10 l 1,7,-1
 50 0 l 1,8,-1
 20 0 l 1,9,-1
 20 10 l 1,10,-1
 30 10 l 1,11,-1
 30 60 l 1,12,-1
 20 60 l 1,13,-1
 20 50 l 1,14,-1
 10 50 l 1,15,-1
 10 70 l 1,16,-1
 10 70 l 1,0,-1
EndSplineSet
EndChar

StartChar: u1D41F
Encoding: 119839 119839 387
Width: 60
VWidth: 73
GlyphClass: 1
Flags: W
LayerCount: 2
Fore
SplineSet
40 70 m 1,0,-1
 60 70 l 1,1,-1
 60 60 l 1,2,-1
 40 60 l 1,3,-1
 40 70 l 1,0,-1
30 60 m 1,4,-1
 40 60 l 1,5,-1
 40 50 l 1,6,-1
 50 50 l 1,7,-1
 50 40 l 1,8,-1
 40 40 l 1,9,-1
 40 10 l 1,10,-1
 50 10 l 1,11,-1
 50 0 l 1,12,-1
 20 0 l 1,13,-1
 20 10 l 1,14,-1
 30 10 l 1,15,-1
 30 40 l 1,16,-1
 20 40 l 1,17,-1
 20 50 l 1,18,-1
 30 50 l 1,19,-1
 30 60 l 1,20,-1
 30 60 l 1,4,-1
EndSplineSet
EndChar

